<svg xmlns="http://www.w3.org/2000/svg" xmlns:xlink="http://www.w3.org/1999/xlink" width="146" height="146" viewBox="0 0 146 146">
  <defs>
    <clipPath id="clip-path">
      <rect id="Rectángulo_380973" data-name="Rectángulo 380973" width="94.725" height="94.863" fill="none" stroke="#fff" stroke-width="1"/>
    </clipPath>
  </defs>
  <g id="Grupo_1083379" data-name="Grupo 1083379" transform="translate(-307 -1267)">
    <g id="Grupo_1071465" data-name="Grupo 1071465" transform="translate(38 309)">
      <circle id="Elipse_5614" data-name="Elipse 5614" cx="73" cy="73" r="73" transform="translate(269 958)" fill="#304c8e"/>
    </g>
    <g id="Grupo_1082915" data-name="Grupo 1082915" transform="translate(332.638 1292.568)">
      <g id="Grupo_1082914" data-name="Grupo 1082914" clip-path="url(#clip-path)">
        <path id="Trazado_838140" data-name="Trazado 838140" d="M.047,41.53C-.906,23.312,12.909,3.175,35.552.357A40.835,40.835,0,0,1,81.758,35.679a40.558,40.558,0,0,1-6.952,28.845c-.832,1.217-.652,1.817.468,2.655q7.89,5.9,15.677,11.946c3.645,2.818,4.728,6.974,2.912,10.792a8.465,8.465,0,0,1-13.74,2.394,74.352,74.352,0,0,1-5.162-6.473c-2.661-3.454-5.327-6.9-7.911-10.414-.818-1.109-1.423-1.341-2.654-.489a41.01,41.01,0,0,1-24.444,7.326C21.537,82.039,4.6,68.21.8,50.171A33.292,33.292,0,0,1,.047,41.53m3.523-.369A37.493,37.493,0,1,0,40.886,3.707,37.448,37.448,0,0,0,3.571,41.16M86.049,91.23a5.005,5.005,0,0,0,2.839-9.177c-5.337-4.114-10.739-8.144-16.038-12.3-1.278-1-1.908-.4-2.729.454-.778.811-1.6,1.39-.558,2.719,4.2,5.351,8.275,10.79,12.41,16.189a4.862,4.862,0,0,0,4.075,2.119" transform="translate(0 0)" fill="#fff" stroke="#fff" stroke-width="1"/>
        <path id="Trazado_838141" data-name="Trazado 838141" d="M4.6,39.384A34.413,34.413,0,0,1,29.262,6.027c2.326-.7,3.549-.471,3.755.82.323,2.013-1.3,2.185-2.652,2.59A31.217,31.217,0,0,0,8.085,41.681C8.906,55.606,19.958,67.746,34,70.147A31.2,31.2,0,1,0,43.637,8.494c-1.213-.162-2.438-.252-3.66-.325-1.268-.077-2.461-.355-2.4-1.9.056-1.433,1.194-1.661,2.408-1.649A33.543,33.543,0,0,1,60.465,11.8,34.809,34.809,0,1,1,4.621,43.248a33.062,33.062,0,0,1-.02-3.863" transform="translate(1.791 1.819)" fill="#fff" stroke="#fff" stroke-width="1"/>
        <path id="Trazado_838142" data-name="Trazado 838142" d="M35.651,52.25c-5.464,0-10.926.018-16.388,0-4.994-.02-7.179-3.788-4.672-8.128q8.2-14.187,16.477-28.325c2.612-4.46,6.664-4.464,9.264-.025q8.143,13.9,16.233,27.826c.247.425.484.856.7,1.3,1.784,3.663-.385,7.287-4.489,7.337-5.707.071-11.416.018-17.124.02m.066-3.539q7.924,0,15.846,0c2.912-.006,3.376-.772,1.932-3.261Q45.453,31.581,37.378,17.74c-1.257-2.155-2.082-2.142-3.327,0Q25.939,31.664,17.831,45.6c-1.3,2.234-.794,3.1,1.855,3.109,5.342.017,10.686.006,16.03.006" transform="translate(5.334 4.9)" fill="#fff" stroke="#fff" stroke-width="1"/>
        <path id="Trazado_838143" data-name="Trazado 838143" d="M64.758,63.253A1.643,1.643,0,0,1,63,64.845c-1.109.017-3.208-2.091-3.162-3.186a1.635,1.635,0,0,1,1.751-1.72c1.111-.024,3.162,2.085,3.169,3.314" transform="translate(23.562 23.601)" fill="#fff" stroke="#fff" stroke-width="1"/>
        <path id="Trazado_838144" data-name="Trazado 838144" d="M31.8,27.612c0,1.717.063,3.437-.018,5.15-.053,1.126-.538,2.088-1.883,2.042-1.229-.043-1.714-.96-1.731-2.008q-.088-5.149,0-10.3c.02-1.128.548-2.078,1.886-2.039,1.236.036,1.681.962,1.727,2.008.077,1.713.021,3.433.024,5.15" transform="translate(11.075 8.053)" fill="#fff" stroke="#fff" stroke-width="1"/>
        <path id="Trazado_838145" data-name="Trazado 838145" d="M28.118,35.264c.107-1.194.355-2.418,1.891-2.39s1.816,1.249,1.8,2.479-.362,2.473-1.865,2.436c-1.463-.036-1.787-1.236-1.824-2.525" transform="translate(11.072 12.944)" fill="#fff" stroke="#fff" stroke-width="1"/>
      </g>
    </g>
  </g>
</svg>
