<svg xmlns="http://www.w3.org/2000/svg" xmlns:xlink="http://www.w3.org/1999/xlink" width="146" height="146" viewBox="0 0 146 146">
  <defs>
    <clipPath id="clip-path">
      <rect id="Rectángulo_380974" data-name="Rectángulo 380974" width="101.92" height="102.232" fill="none"/>
    </clipPath>
  </defs>
  <g id="Grupo_1083380" data-name="Grupo 1083380" transform="translate(-727 -1267)">
    <g id="Grupo_1071467" data-name="Grupo 1071467" transform="translate(458 309)">
      <circle id="Elipse_5614" data-name="Elipse 5614" cx="73" cy="73" r="73" transform="translate(269 958)" fill="#304c8e"/>
    </g>
    <g id="Grupo_1082917" data-name="Grupo 1082917" transform="translate(749.04 1289.37)">
      <g id="Grupo_1082916" data-name="Grupo 1082916" transform="translate(0 0)" clip-path="url(#clip-path)">
        <path id="Trazado_838146" data-name="Trazado 838146" d="M101.908,63.8c0,3.809.029,7.617-.007,11.426-.034,3.418-1.983,5.384-5.368,5.445-2.186.039-4.373-.008-6.559.01a4.824,4.824,0,0,1-5.015-3.452c-.433-1.293-.869-1.27-1.868-.711a8.112,8.112,0,0,1-4.53.764c-1.151-.065-1.714.118-1.781,1.562-.158,3.422-2.331,5.445-5.726,5.51a2.2,2.2,0,0,0-2.068,1.064,5.237,5.237,0,0,1-4.725,2.321A2.214,2.214,0,0,0,62.2,88.816a5.2,5.2,0,0,1-6.363,1.913,2.165,2.165,0,0,0-2.748.5c-2.075,2.051-4.632,2.157-7.13.451a3.4,3.4,0,0,0-2.73-.63,5.038,5.038,0,0,1-5.033-2.031,2.664,2.664,0,0,0-2.386-1.291c-2.454-.015-3.884-1.5-5.342-3.5A43.468,43.468,0,0,0,23.5,77.245a5.668,5.668,0,0,0-4.619-1.682c-.949.146-1.447.348-1.8,1.343-.972,2.753-2.491,3.736-5.431,3.768-2.186.023-4.373.048-6.558-.015a4.892,4.892,0,0,1-5.06-5.1q-.074-11.955,0-23.91a4.912,4.912,0,0,1,5.039-5.127c2.325-.069,4.654-.022,6.981-.012a4.8,4.8,0,0,1,4.186,2.08c.741,1.1,1.7,1.184,2.876,1.329,6.42.791,12.246-1.409,18.06-3.537A26.348,26.348,0,0,1,47.1,44.775c5.145.135,10.3.1,15.445.01a19.979,19.979,0,0,1,7.632,1.4c2.895,1.115,5.79,2.249,8.754,3.151,2.624.8,5.171,1.383,7.419-1.374,1.792-2.2,11.483-2.145,13.69-.308a5.179,5.179,0,0,1,1.878,4.291c-.039,3.949-.012,7.9-.012,11.849m-48.1-15.243c-5.679.01-10.705-.495-15.6,1.568-6.079,2.558-12.394,4.26-19.119,3.465-.07-.008-.141,0-.212,0-1.179-.093-1.633.459-1.626,1.626.029,5.008.008,10.016.015,15.024,0,.7-.06,1.48.927,1.62.912.128,1.682-.01,2.011-1.052.9-2.862,3.226-4.595,5.36-6.388a5.15,5.15,0,0,1,7.669.895,2.978,2.978,0,0,0,2.635,1.248,4.908,4.908,0,0,1,4.609,2.866c.647,1.465,1.875,2.066,2.944,3.026a49.356,49.356,0,0,1,7.028,7.123,70.161,70.161,0,0,0,5.527,6.553c.817.874,1.814,1.613,2.881.462.968-1.046.2-1.947-.577-2.733-1.939-1.951-3.846-3.937-5.846-5.823-1.092-1.03-.981-1.764.035-2.785s1.76-1.083,2.786-.013c2.39,2.494,4.867,4.908,7.32,7.343.868.863,1.844,1.88,3.031.638,1.085-1.133.129-2.061-.683-2.878-2.887-2.9-5.764-5.807-8.685-8.672-1.045-1.024-1.841-1.8-.362-3.244,1.406-1.369,2.132-.585,3.092.384q5.285,5.338,10.622,10.624c.8.8,1.723,1.461,2.74.462s.37-1.932-.429-2.734c-4.384-4.394-8.8-8.757-13.145-13.187-.921-.939-1.548-.845-2.458-.034a46.914,46.914,0,0,1-4.6,3.728A6.645,6.645,0,0,1,41.242,63.3c-.458-2.772.745-4.922,2.85-6.658,3.092-2.55,6.165-5.125,9.715-8.082m30.863,14c0-2.327-.058-4.656.021-6.981.05-1.435-.422-2.147-1.928-1.979-2.83.317-5.419-.569-8-1.571-2.43-.943-4.888-1.821-7.349-2.684a10.4,10.4,0,0,0-10.7,1.866q-4.975,4.11-9.911,8.263c-1.817,1.527-2.179,3.182-1.04,4.53,1.228,1.456,2.639,1.419,4.621-.19,2.08-1.69,4.123-3.424,6.184-5.135.678-.563,1.324-1.056,2.193-.216,3.812,3.684,7.9,3.936,12.213.892,1.409-.993,1.8.41,2.479,1.079.773.765.648,1.434-.237,2.087a14.161,14.161,0,0,1-5.107,2.46c-.6.148-1.5.051-1.688.641-.247.762.676,1.132,1.134,1.62a33.9,33.9,0,0,1,3.389,3.48c2.228,3.205,5.384,3.219,8.668,2.778,3.541-.476,5.056-2.326,5.058-5.863q0-2.539,0-5.077m-80.957.86c0,3.662.018,7.325-.007,10.987-.013,1.746.748,2.623,2.54,2.584,1.619-.035,3.239-.025,4.859,0a2.135,2.135,0,0,0,2.45-2.453q-.009-10.882,0-21.764a2.23,2.23,0,0,0-2.434-2.532c-1.548-.047-3.1-.01-4.648-.019-1.919-.013-2.821.872-2.785,2.847.062,3.45.017,6.9.019,10.353m94.5.173c0-3.592-.019-7.184.008-10.777a2.228,2.228,0,0,0-2.39-2.573q-2.532-.078-5.07,0a2.231,2.231,0,0,0-2.4,2.566q.031,10.882.008,21.762a2.132,2.132,0,0,0,2.486,2.417c1.338-.024,2.677,0,4.015,0,2.93-.015,3.33-.4,3.341-3.252.012-3.381,0-6.761,0-10.142m-60.969,8.7a1.552,1.552,0,0,0-.811-1.568,1.435,1.435,0,0,0-1.764.213c-1.716,1.661-3.421,3.333-5.076,5.054a1.469,1.469,0,0,0,.015,2.254,1.512,1.512,0,0,0,2.266-.082c1.67-1.608,3.3-3.258,4.908-4.926a2.961,2.961,0,0,0,.463-.944m5.083,5.058c0-1.436-1.39-2.274-2.382-1.419-1.908,1.644-3.653,3.487-5.393,5.316a1.39,1.39,0,0,0,.135,2.081,1.428,1.428,0,0,0,2.1.034c1.776-1.7,3.493-3.456,5.2-5.218a2.1,2.1,0,0,0,.34-.793M30.474,68.776a1.466,1.466,0,0,0-.757-1.413,1.4,1.4,0,0,0-1.768.14c-1.227,1.16-2.427,2.353-3.578,3.587a1.4,1.4,0,0,0-.1,1.771,1.463,1.463,0,0,0,1.433.717c1.035-.069,4.723-3.787,4.769-4.8M42.4,87.128c1.294-.025,5.1-3.838,4.99-4.932-.118-1.239-1.023-1.935-2.045-1.349A10.721,10.721,0,0,0,41.1,85.14c-.547,1.056.243,1.844,1.3,1.988" transform="translate(0 9.36)" fill="#fff"/>
        <path id="Trazado_838147" data-name="Trazado 838147" d="M46.859,51.088c-8.178,0-16.355.017-24.534-.022-.892,0-2.205.5-2.517-.829-.25-1.065-.615-2.4,1.02-3.011.713-.267.526-1.086.527-1.7.01-4.934-.015-9.87.017-14.8a6.962,6.962,0,0,0-1.029-3.176c-1.508-3.037-1.508-3.031,1.542-4.25,4.844-1.935,9.664-3.926,14.534-5.787a2.451,2.451,0,0,0,1.892-2.826,28.766,28.766,0,0,1-.01-2.96A8.05,8.05,0,0,1,42.83,4.367c1.429-.771,2.479-1.376,2.311-3.232C45.029-.105,46.14.018,46.973,0c.883-.017,1.866.024,1.737,1.248-.185,1.764.846,2.334,2.208,3.066A8.427,8.427,0,0,1,55.56,12.26c.008,5.289-.833,4.076,4.134,6.113,4.368,1.791,8.742,3.574,13.157,5.245,1.611.609,2.213,1.334,1.16,2.9a10.754,10.754,0,0,0-1.573,6.646c.117,3.662-.006,7.332.05,11,.021,1.3-.525,2.76,1.318,3.605.715.328.461,1.712.207,2.584-.294,1.008-1.263.724-1.984.727q-12.583.033-25.168.015M24.514,26.871H69.626a8.454,8.454,0,0,0-1.074-.742c-6.8-2.725-13.619-5.422-20.411-8.179a3.755,3.755,0,0,0-3.038.25c-6.147,2.47-12.3,4.919-18.445,7.4-.689.279-1.527.331-2.145,1.271M41.993,13.032c.248.667-.588,2.6,1.4,1.609a7.007,7.007,0,0,1,7.159.082c.446.259,1.034.428,1.286-.461.721-2.535-.941-5.977-3.348-6.784-3.515-1.179-6.407,1.248-6.5,5.553M28.132,39.141c0-2.257-.03-4.515.012-6.771.023-1.189-.478-1.629-1.647-1.609-1.138.021-1.445.586-1.441,1.6q.027,6.665,0,13.33c-.006,1.1.282,1.718,1.54,1.719s1.569-.6,1.551-1.708c-.036-2.186-.011-4.373-.012-6.559m3.7-.26c0,2.257.021,4.515-.01,6.771-.015,1.065.215,1.753,1.5,1.756,1.218,0,1.6-.531,1.59-1.669q-.045-6.665,0-13.331c.008-1.155-.409-1.654-1.609-1.649-1.3,0-1.494.725-1.481,1.775.028,2.116.008,4.232.008,6.348m6.772.2c0,2.186.021,4.373-.008,6.559-.015,1.057.2,1.762,1.491,1.765,1.209,0,1.608-.513,1.6-1.659q-.045-6.665,0-13.331c.008-1.146-.389-1.664-1.6-1.659-1.295,0-1.507.707-1.492,1.765.029,2.186.008,4.372.008,6.559m6.775-.048c0,2.257.017,4.515-.007,6.771-.012,1.013.3,1.579,1.44,1.6,1.169.021,1.656-.42,1.648-1.608q-.047-6.663,0-13.33c.007-1.1-.3-1.71-1.55-1.708s-1.557.623-1.54,1.718c.035,2.186.011,4.373.011,6.559m6.773.025c0,2.256.018,4.514-.008,6.77-.012,1.031.345,1.556,1.464,1.575,1.19.021,1.632-.465,1.624-1.632q-.047-6.665,0-13.33c.007-1.123-.346-1.687-1.575-1.685-1.277,0-1.531.667-1.515,1.744.033,2.186.01,4.372.012,6.559m9.838.083c0-2.257-.03-4.515.013-6.771.022-1.186-.474-1.631-1.646-1.612-1.137.019-1.446.584-1.442,1.6q.027,6.665,0,13.33c-.006,1.094.279,1.719,1.539,1.721s1.571-.6,1.552-1.706c-.036-2.186-.011-4.373-.013-6.559M68.768,39c0-2.186-.028-4.373.012-6.559.021-1.132-.354-1.7-1.581-1.676-1.088.019-1.511.468-1.507,1.532q.031,6.772,0,13.543c0,1.034.353,1.55,1.469,1.569,1.2.021,1.641-.475,1.619-1.638-.042-2.256-.012-4.514-.012-6.771" transform="translate(4.047 0)" fill="#fff"/>
      </g>
    </g>
  </g>
</svg>
