<svg xmlns="http://www.w3.org/2000/svg" xmlns:xlink="http://www.w3.org/1999/xlink" width="120" height="120" viewBox="0 0 120 120">
  <defs>
    <clipPath id="clip-path">
      <rect id="Rectángulo_381113" data-name="Rectángulo 381113" width="77" height="71.927" fill="none"/>
    </clipPath>
  </defs>
  <g id="Grupo_1083384" data-name="Grupo 1083384" transform="translate(-390 -1675.921)">
    <g id="Grupo_1083030" data-name="Grupo 1083030" transform="translate(390 1675.921)">
      <circle id="Elipse_5614" data-name="Elipse 5614" cx="60" cy="60" r="60" fill="#304c8e"/>
    </g>
    <g id="Grupo_1083129" data-name="Grupo 1083129" transform="translate(411.5 1704.457)">
      <g id="Grupo_1083128" data-name="Grupo 1083128" clip-path="url(#clip-path)">
        <path id="Trazado_842772" data-name="Trazado 842772" d="M38.509,0q10.149,0,20.3,0c2.739,0,2.837.1,2.837,2.923q0,16.222.009,32.445c0,.743-.281,1.712,1.026,1.728.706.008,1.283-.069,1.3-.981.017-1.15.7-1.574,1.773-1.572,3.143.007,6.286.014,9.43,0,1.282-.007,1.821.611,1.819,1.866q-.02,11.028,0,22.056c0,1.363-.624,1.915-1.953,1.9q-4.554-.044-9.11,0c-1.315.013-1.992-.5-1.978-1.88.009-.9.333-1.962-1.275-1.99-2.536-.043-3.276.258-3.558,1.9a9.7,9.7,0,0,1-.269,2.048A3.782,3.782,0,0,1,55.111,62.9a10.438,10.438,0,0,0-3.149.732c-2.035.6-3.671,1.792-5.489,2.647-1.662.782-3.43,1.224-4.808,2.583a2.18,2.18,0,0,1-1.979.429c-1.778-.415-3.034.444-4.292,1.493a4.693,4.693,0,0,1-5.238.631c-1.4-.621-1.437-2.461-2.438-3.153-.965-.667-2.69-.189-3.559-1.4A3.382,3.382,0,0,0,21.212,65.4a3.456,3.456,0,0,1-3.124-2.6,1.667,1.667,0,0,0-1.175-1.3,3.72,3.72,0,0,1-2.836-3.793c0-.4.125-1-.438-1.053-.738-.071-.565.617-.619,1.049a1.446,1.446,0,0,1-1.652,1.361c-3.2.005-6.393-.008-9.589.008C.343,59.086,0,58.26,0,57.008c.02-5.7.008-11.4.007-17.1,0-1.6.021-3.2,0-4.795-.018-1.265.558-1.859,1.833-1.852q4.635.027,9.27,0c1.109-.006,1.9.333,1.92,1.593.015.922.615.963,1.311.967.9.006,1.024-.548,1.021-1.265-.01-2.344,0-4.688,0-7.032q0-12.467,0-24.933c0-2.376.2-2.584,2.532-2.585Q28.2,0,38.509,0M58.852,36.094V34.441c0-9.91-.034-19.82.034-29.729.011-1.58-.508-1.955-2.009-1.949q-18.381.08-36.761,0c-1.515-.007-2.01.393-2,1.959.067,9.589.033,19.18.034,28.77,0,2.425.281,2.661,2.673,2.246a2.8,2.8,0,0,0,.773-.194c2.6-1.305,5.4-.967,8.154-1.007a9.39,9.39,0,0,1,6,1.839c1.371,1.062,2.279.839,3.425-.192a10.975,10.975,0,0,1,8.665-2.935,17.693,17.693,0,0,0,2.715,0,10.518,10.518,0,0,1,8.291,2.842M13.034,46.124q0,3.036,0,6.072a1.476,1.476,0,0,1,0,.16c-.113,1.047.392,1.306,1.393,1.411,1.769.185,3.029-.628,4.334-1.616,1.858-1.406,4.539-1.575,5.67.022,1.256,1.772,2.966,2.935,4.374,4.44,1.274,1.362,2.834.6,4.09,1.307.191.107.278-.227.389-.4.933-1.49,1.506-1.621,2.847-.5,2.329,1.944,4.751,3.779,6.929,5.9.725.707,1.59,1.616,2.565.547.956-1.048-.266-1.6-.867-2.146-2.207-2-4.463-3.955-6.708-5.918-.794-.694-1.371-1.5-.54-2.453.769-.88,1.646-.477,2.39.171,2.769,2.413,5.524,4.843,8.3,7.253a7.755,7.755,0,0,0,1.295.907.771.771,0,0,0,1.01-.226c.349-.449-.108-.662-.361-.9q-1.407-1.3-2.836-2.579-3.332-2.984-6.672-5.959c-.769-.687-1.4-1.507-.6-2.467s1.714-.485,2.5.2c.121.1.237.215.356.321q5.475,4.9,10.946,9.8c.622.56,1.256.891,1.961.247.746-.681.374-1.341-.187-1.932-.293-.308-.606-.6-.924-.883q-5.131-4.567-10.265-9.131c-2.5-2.227-2.512-2.265-5.483-.8a6.078,6.078,0,0,1-3.888.5A3.544,3.544,0,0,1,32.1,44.657,3.82,3.82,0,0,1,33.7,40.3c1.286-.849,1.014-1.348-.193-1.889a13,13,0,0,0-9.2-.635,17.277,17.277,0,0,1-5.467.842c-1.383-.039-2.773.055-4.153-.026-1.226-.071-1.74.315-1.678,1.619.093,1.966.024,3.94.024,5.911m50.935.767V43.538c0-3.64,0-3.683-3.595-3.625A3.61,3.61,0,0,1,57.058,38.5a5.977,5.977,0,0,0-3.8-2.176,29.166,29.166,0,0,0-7.472-.152,7.186,7.186,0,0,0-3.8,1.538c-2.044,1.531-4.092,3.058-6.126,4.6-.587.446-1.346.918-.783,1.8.521.82,1.34.762,2.13.385,1.248-.6,2.5-1.191,3.717-1.844a2.343,2.343,0,0,1,3.031.414c3.934,3.661,7.918,7.267,11.862,10.917.764.707,1.391,1.557,2.25.09.245-.418.86-.348,1.341-.35,1.064,0,2.131-.05,3.192.006s1.4-.411,1.375-1.422c-.05-1.808-.014-3.618-.012-5.428M10.24,46.3c0-2.929-.036-5.859.018-8.787.021-1.118-.387-1.522-1.491-1.475-1.542.064-3.089.047-4.632.006-.935-.025-1.349.3-1.345,1.288q.039,8.867,0,17.734c0,.89.359,1.245,1.24,1.226,1.49-.032,2.986-.074,4.472.014,1.292.076,1.805-.334,1.762-1.7-.089-2.766-.027-5.538-.027-8.307M74.2,47.611c0-2.929-.033-5.859.017-8.787.019-1.084-.321-1.557-1.46-1.507-1.541.068-3.089.044-4.632.007-.906-.021-1.38.242-1.375,1.257q.039,8.867,0,17.734c0,1.012.464,1.281,1.373,1.259,1.544-.037,3.091-.061,4.632.007,1.136.05,1.482-.418,1.462-1.5-.051-2.822-.017-5.645-.017-8.467M22.916,55.125a1.223,1.223,0,0,0-1.909-.9,28.252,28.252,0,0,0-3.59,2.644c-.813.71-.522,1.46.427,1.847.918.374,5.076-2.61,5.072-3.59M37,65.415a1.254,1.254,0,0,0-2.011-.917c-1.086.664-2.087,1.469-3.107,2.238-.565.426-1.163.924-.626,1.715a1.265,1.265,0,0,0,1.958.259c1.09-.763,2.147-1.572,3.212-2.37A1.384,1.384,0,0,0,37,65.415M22.186,62.647a2.864,2.864,0,0,0,1.312-.721q1.2-1.033,2.406-2.062c.467-.4,1.209-.712.621-1.5a1.228,1.228,0,0,0-1.832-.249c-1.169.819-2.312,1.678-3.435,2.559a.953.953,0,0,0-.315,1.272,1.353,1.353,0,0,0,1.243.7m4.949,2.55a1.9,1.9,0,0,0,1.163-.449c.9-.652,1.8-1.309,2.677-1.987.6-.458,1.3-.969.669-1.813-.669-.9-1.488-.6-2.214-.015-.984.8-1.939,1.633-2.909,2.449-.326.274-.708.524-.5,1.041a1.276,1.276,0,0,0,1.114.773" transform="translate(0 0)" fill="#fff"/>
        <path id="Trazado_842773" data-name="Trazado 842773" d="M92.723,41.824A12.751,12.751,0,0,1,80.03,28.786a12.908,12.908,0,1,1,25.812.419A12.765,12.765,0,0,1,92.723,41.824m.13-23A10.282,10.282,0,0,0,82.845,29.042a10.091,10.091,0,0,0,20.182-.17A10.265,10.265,0,0,0,92.854,18.825" transform="translate(-54.436 -10.891)" fill="#fff"/>
        <path id="Trazado_842774" data-name="Trazado 842774" d="M103.8,51.673a3.011,3.011,0,0,1-.808-.338c-1.423-1.03-2.808-2.114-4.234-3.141-.82-.59-.541-1.135-.044-1.728.472-.562.857-1.338,1.776-.616.293.23.605.435.9.658,2.507,1.865,2.506,1.864,4.769-.4,1.281-1.28,2.582-2.54,3.839-3.843.773-.8,1.281-.319,1.851.25s1.041,1.073.248,1.851c-2.28,2.239-4.525,4.512-6.792,6.764a1.783,1.783,0,0,1-1.51.54" transform="translate(-66.821 -28.463)" fill="#fff"/>
      </g>
    </g>
  </g>
</svg>
