<svg id="Group_43_" data-name="Group (43)" xmlns="http://www.w3.org/2000/svg" width="86.072" height="86.072" viewBox="0 0 86.072 86.072">
  <path id="Trazado_598926" data-name="Trazado 598926" d="M71.055,16.055l-55,55A42.574,42.574,0,0,0,17.812,75.3L75.3,17.815a42.574,42.574,0,0,0-4.246-1.757Z" transform="translate(-13.68 -13.68)" fill="#4ca220"/>
  <path id="Trazado_598927" data-name="Trazado 598927" d="M47.947.8.8,47.947A43,43,0,0,0,1.5,52.5L52.5,1.5A43,43,0,0,0,47.947.8Z" transform="translate(-0.68 -0.68)" fill="#4ca220"/>
  <path id="Trazado_598928" data-name="Trazado 598928" d="M327.419,284.357c0-.368-.02-.735-.027-1.1l-44.157,44.154c.368.01.732.027,1.1.027a43.183,43.183,0,0,0,4.5-.236l38.346-38.347a43.173,43.173,0,0,0,.236-4.5Z" transform="translate(-241.347 -241.367)" fill="#4ca220"/>
  <path id="Trazado_598929" data-name="Trazado 598929" d="M108.092,47.637q-1.639-1.29-3.4-2.415L45.2,104.711q1.128,1.76,2.415,3.4Z" transform="translate(-38.515 -38.534)" fill="#4ca220"/>
  <path id="Trazado_598930" data-name="Trazado 598930" d="M0,40.279,40.279,0c-1.164.071-2.317.189-3.454.351L.351,36.825C.189,37.962.071,39.115,0,40.279Z" fill="#4ca220"/>
  <path id="Trazado_598931" data-name="Trazado 598931" d="M144.984,84.058,84.058,144.984a43.246,43.246,0,0,0,3.663,3.278l60.542-60.542A43.271,43.271,0,0,0,144.984,84.058Z" transform="translate(-71.627 -71.627)" fill="#4ca220"/>
  <path id="Trazado_598932" data-name="Trazado 598932" d="M198.627,141.25a43.194,43.194,0,0,0-2.354-4.307l-59.331,59.331a42.825,42.825,0,0,0,4.307,2.354Z" transform="translate(-116.69 -116.69)" fill="#4ca220"/>
  <path id="Trazado_598933" data-name="Trazado 598933" d="M44.006,19.794A43.2,43.2,0,0,0,19.794,44.006Z" transform="translate(-16.867 -16.867)" fill="#4ca220"/>
  <path id="Trazado_598934" data-name="Trazado 598934" d="M382.436,409.757a43.167,43.167,0,0,0,27.321-27.321Z" transform="translate(-325.877 -325.877)" fill="#4ca220"/>
  <path id="Trazado_598935" data-name="Trazado 598935" d="M254.786,200.477l-54.309,54.309a42.836,42.836,0,0,0,5.781,1.44l49.968-49.968A43.352,43.352,0,0,0,254.786,200.477Z" transform="translate(-170.828 -170.828)" fill="#4ca220"/>
</svg>
