<svg xmlns="http://www.w3.org/2000/svg" xmlns:xlink="http://www.w3.org/1999/xlink" width="116.999" height="115" viewBox="0 0 116.999 115">
  <defs>
    <clipPath id="clip-path">
      <rect id="Rect치ngulo_381081" data-name="Rect치ngulo 381081" width="76.764" height="76.732" transform="translate(0 0)" fill="none"/>
    </clipPath>
  </defs>
  <g id="Grupo_1083382" data-name="Grupo 1083382" transform="translate(-742 -1036.392)">
    <g id="Grupo_1071419" data-name="Grupo 1071419" transform="translate(316.563 -6462.078)">
      <g id="Grupo_1015374" data-name="Grupo 1015374" transform="translate(425.927 7498.205)">
        <g id="Grupo_1015448" data-name="Grupo 1015448" transform="translate(0 0)">
          <g id="Grupo_1014855" data-name="Grupo 1014855" transform="translate(0 0)">
            <path id="Uni칩n_12" data-name="Uni칩n 12" d="M58.5,0C90.809,0,117,25.744,117,57.5S90.809,115,58.5,115,0,89.256,0,57.5,26.192,0,58.5,0Z" transform="translate(-0.49 0.265)" fill="#7e10b8"/>
            <path id="Trazado_608395" data-name="Trazado 608395" d="M49,0C76.062,0,98,22.162,98,49.5S76.062,99,49,99,0,76.838,0,49.5,21.938,0,49,0Z" transform="translate(9.51 7.265)" fill="#f2e6f8"/>
          </g>
        </g>
      </g>
    </g>
    <g id="Grupo_1083043" data-name="Grupo 1083043" transform="translate(761.618 1055.527)">
      <g id="Grupo_1083042" data-name="Grupo 1083042" clip-path="url(#clip-path)">
        <path id="Trazado_842246" data-name="Trazado 842246" d="M38.407.032C44.548.032,50.69.068,56.831,0c1.155-.013,1.389.313,1.362,1.4-.077,3.144.03,6.292-.056,9.435-.033,1.194.2,1.6,1.506,1.579,5.241-.087,10.485,0,15.727-.066,1.138-.015,1.389.292,1.387,1.4q-.06,23.367.006,46.734c0,1.26-.422,1.427-1.512,1.42-6.59-.044-13.181,0-19.772-.047-1.122-.008-1.5.22-1.234,1.394A19.845,19.845,0,0,1,54.5,67.58,3.836,3.836,0,0,1,52.6,71.235c-.619.351-.614.8-.638,1.361-.12,2.856-1.457,4.129-4.332,4.132q-9.211.008-18.424,0c-2.981,0-4.28-1.228-4.413-4.2A1.326,1.326,0,0,0,24.1,71.2a3.384,3.384,0,0,1-1.8-3.234c.066-1.116-.452-1.149-1.3-1.146-6.491.025-12.982-.025-19.472.047-1.253.014-1.538-.3-1.532-1.539Q.078,47.357.014,29.383a2.937,2.937,0,0,1,.933-2.354Q5.408,22.7,9.741,18.243a2.69,2.69,0,0,1,2.223-.891c1.746.06,3.5-.05,5.241.043,1.087.057,1.44-.2,1.422-1.368-.075-4.792.035-9.588-.072-14.378C18.523.21,19-.011,20.282,0c6.041.065,12.083.029,18.125.029M48.9,29.359c-.038-.149-.117-.22-.273-.146.055.086.11.173.166.259A15.8,15.8,0,0,1,51.9,36.893,14.535,14.535,0,0,1,48.79,47.287l-.162.26c.155.074.233,0,.269-.146a22.134,22.134,0,0,0,10.114-7.762,2.01,2.01,0,0,0,0-2.517A22.132,22.132,0,0,0,48.9,29.359m-21.038,0a22.127,22.127,0,0,0-10.113,7.766,2.012,2.012,0,0,0,0,2.517A22.122,22.122,0,0,0,27.865,47.4c.035.149.112.22.268.147-.054-.086-.109-.172-.164-.258a15.806,15.806,0,0,1-3.108-7.423,14.578,14.578,0,0,1,3.106-10.4l.167-.257c-.156-.074-.235,0-.273.144m3.152,21.895c-6.854-2.215-11-4.874-14.629-9.3-2.018-2.46-2.034-4.7.008-7.143a27.534,27.534,0,0,1,17.458-9.8c1.1-.172,2.686.528,3.211-.7.451-1.058.065-2.458.115-3.7.029-.72-.326-.8-.907-.8q-11.46.018-22.919-.009c-.815,0-1,.277-.992,1.037.04,2.546-.025,5.094.036,7.639.022.94-.184,1.291-1.208,1.259-2.544-.079-5.093.008-7.639-.045-.859-.018-1.089.252-1.087,1.1q.039,16.251,0,32.5c0,.836.221,1.119,1.087,1.114q8.913-.051,17.826,0c.889.006,1.031-.374,1.144-1.135a15.783,15.783,0,0,1,7.1-11.122c.4-.271.811-.521,1.394-.9m14.628-.02a16.615,16.615,0,0,1,7.332,7.651c.3.657.785.5,1.245.5,6.29.011,12.579-.017,18.869.032,1.025.008,1.218-.334,1.216-1.273q-.041-21.041,0-42.08c0-.882-.175-1.222-1.139-1.212-4.642.048-9.285.055-13.926-.005-1.028-.013-1.108.412-1.1,1.236.008.851.044,1.347,1.166,1.323,3.742-.08,7.487,0,11.23-.051.947-.013,1.265.207,1.259,1.218q-.067,11.156,0,22.312c.007,1.051-.385,1.214-1.294,1.2-3.044-.045-6.089-.011-9.134-.022a1.835,1.835,0,0,0-1.6.557,27.559,27.559,0,0,1-14.123,8.611m9.883-21.083c.109-.208.186-.286.186-.365.008-8.785,0-17.57.029-26.355,0-.863-.385-.957-1.087-.956q-16.248.021-32.5-.005c-.805,0-1.144.168-1.135,1.065.043,4.242.05,8.486-.005,12.728-.012.988.363,1.147,1.223,1.13,2.395-.049,4.8-.093,7.186.014,1.237.055,1.512-.271,1.565-1.528A10.583,10.583,0,0,1,37.7,5.935,10.49,10.49,0,0,1,49.537,7.888a10.653,10.653,0,0,1,3.187,11.449A11.137,11.137,0,0,1,47.3,25.988a30.293,30.293,0,0,1,8.228,4.161M69.28,29.8c0-2.939-.031-5.878.018-8.816.015-.876-.165-1.212-1.133-1.189-2.937.068-5.878.073-8.815,0-1.033-.026-1.218.342-1.2,1.27.051,3.237.062,6.475,0,9.711a3.394,3.394,0,0,0,1.068,2.76c1.546,1.5,2.994,3.117,2.594,5.568-.115.709.477.483.805.487,1.843.021,3.688-.041,5.528.032.921.037,1.185-.225,1.164-1.155-.062-2.888-.022-5.778-.022-8.666M27.957,42.056c1.727-.581,1.963-1.632,1.84-3.375A8.545,8.545,0,0,1,40.032,29.89c.674.141,1.014.227.916,1.1-.294,2.634,1.516,4.138,4.113,3.431.742-.2,1.053-.139,1.323.6a8.42,8.42,0,0,1-1.363,8.856c-2.193,2.61-5.08,3.8-8.422,2.886-1.625-.442-2.751-.334-3.718,1.016-.02.029-.012.078-.017.118,4.02,2.77,10.005,1.933,13.63-1.905a11.121,11.121,0,0,0-13.7-17.225,10.925,10.925,0,0,0-4.838,13.292m10.407,2.521a6.268,6.268,0,0,0,6.209-6.183c-.006-.653,0-1.2-.987-1.275a5.268,5.268,0,0,1-4.963-4.053c-.209-.717-.5-.9-1.263-.776a6.185,6.185,0,0,0,1,12.287m2.124,29.7c.984,0,1.967-.055,2.941.016.926.068,1.2-.267,1.185-1.184-.055-2.544.011-5.091-.035-7.635-.015-.833.235-1.048,1.08-1.131,1.484-.147,1.416.672,1.407,1.7-.034,3.573-.013,3.555,3.531,3.244.931-.082,1.369-.527,1.359-1.42a32.938,32.938,0,0,0-.128-4.185,13.163,13.163,0,0,0-5.337-8.957c-.319,2.69-.61,5.15-.921,7.772l-4.247-2.066c.527,2.595.849,4.926,1.5,7.162.673,2.331.5,4.223-1.664,5.651a1.109,1.109,0,0,0-.667,1.031M30.265,54.714c-4.589,3.612-5.86,8.218-5.43,13.489A1.136,1.136,0,0,0,25.9,69.269c3.242.623,3.81.167,3.811-3.1a5.042,5.042,0,0,0,0-.748c-.137-.917.341-1.1,1.129-1.042.679.05,1.407-.174,1.352.987-.081,1.693-.02,3.393-.02,5.09,0,3.9,0,3.9,3.893,3.814.074,0,.145-.091.321-.21A8.348,8.348,0,0,0,35.267,72.9c-1.678-1.177-2.029-2.6-1.453-4.6.718-2.5,1.055-5.1,1.6-7.861-1.511.739-2.793,1.367-4.222,2.068-.312-2.638-.6-5.1-.923-7.793M48.971,21.263c3.607-5.13,1.124-12.1-4.575-13.481-.759-.184-1.091-.158-1.072.744.043,2.142.017,4.285.011,6.428a1.391,1.391,0,0,0,.412,1.072c1.727,1.717,3.442,3.447,5.224,5.237m-8.145-9.678c0-1-.058-2,.016-2.987s-.351-1.038-1.127-.791a8.535,8.535,0,0,0-6.026,6.261c-.778,2.929-.446,3.3,2.556,3.3h.15c2.99,0,4.431-1.4,4.431-4.293V11.585M39.6,21.5c0,1.07.006,1.766,0,2.462-.005.429.032.805.6.824a10.955,10.955,0,0,0,6.336-1.243c.561-.341.668-.606.15-1.106-1.432-1.38-2.834-2.79-4.226-4.212-.378-.386-.65-.333-1.141-.138-1.837.731-1.892,2.189-1.713,3.413m-1,37.968-.428-.009c-.615,3-1.156,6.017-1.877,8.99a2.431,2.431,0,0,0,.991,2.939c.441.3.759,1.314,1.361.741.77-.731,2.181-1.225,1.947-2.58-.582-3.375-1.319-6.722-1.994-10.081M9.923,22.307,5.087,27.182c1.278,0,3.422.627,4.5-.177s.217-3.069.331-4.689c.007-.093-.032-.19,0-.009M35.967,52.273c.6,1.4,1.185,2.754,1.759,4.118.121.289.237.536.607.554.441.022.579-.257.724-.6.562-1.35,1.15-2.69,1.747-4.077a10.442,10.442,0,0,0-4.837.009M32.7,54.028c.1.991.219,1.981.314,2.973.171,1.792.407,1.882,1.926.915.528-.336.5-.63.288-1.1-.469-1.044-.9-2.1-1.359-3.154-.134-.309-.231-.7-.713-.589-.545.123-.473.554-.456.953m11.348.075c-.015-.278.225-.821-.376-1.006-.652-.2-.687.4-.856.781-.448,1-.933,1.985-1.3,3.014-.485,1.367.882,1.233,1.483,1.518.8.376.614-.53.673-.9.173-1.08.246-2.177.374-3.408M29.724,72.852c.168-.782-.166-1.2-1.191-1.1-.7.068-1.379-.093-1.294,1.029.082,1.084.622,1.437,1.61,1.513,1.116.086.826-.68.875-1.443m17.339.142c.1.51-.376,1.357.793,1.3,1.071-.052,1.62-.455,1.667-1.608.042-1.057-.6-.877-1.241-.928-.923-.074-1.466.15-1.219,1.235M30.92,45.809c.626-.085,1.188-.357,1.185-1.067a1.269,1.269,0,0,0-1.16-1.32,1.052,1.052,0,0,0-1.195,1.062c-.066.766.438,1.158,1.17,1.325" fill="#040403"/>
        <path id="Trazado_842247" data-name="Trazado 842247" d="M31.013,51.252c-.583.374-1,.624-1.393.9a15.786,15.786,0,0,0-7.1,11.122c-.113.761-.255,1.141-1.144,1.135q-8.912-.054-17.825,0c-.866,0-1.089-.278-1.087-1.114q.036-16.253,0-32.5c0-.846.227-1.116,1.087-1.1,2.545.053,5.094-.034,7.638.045,1.025.032,1.231-.319,1.209-1.259-.061-2.545,0-5.093-.036-7.639-.012-.76.177-1.04.992-1.037q11.458.043,22.918.009c.582,0,.937.076.908.8-.05,1.246.336,2.647-.115,3.7-.526,1.232-2.114.532-3.211.7a27.537,27.537,0,0,0-17.459,9.8c-2.041,2.446-2.026,4.683-.008,7.143,3.63,4.424,7.775,7.084,14.629,9.3m-26.021.76c0,2.9.033,5.792-.02,8.687-.016.906.225,1.2,1.165,1.189,5.043-.046,10.086-.036,15.129-.006.771,0,1.031-.2,1.022-1q-.06-5.167,0-10.336c.012-.879-.3-1.091-1.115-1.065-1.7.055-3.4.088-5.091-.009-1.068-.062-1.225.381-1.206,1.293.051,2.4-.025,4.794.037,7.189.027,1.017-.1,1.5-1.336,1.489-1.2-.011-1.226-.534-1.22-1.444.032-4.893-.007-9.786.034-14.679.008-.941-.2-1.321-1.225-1.268-1.693.088-3.4.065-5.091.008-.863-.03-1.111.279-1.1,1.114.04,2.946.015,5.892.015,8.838M8.606,34.706c.942,0,1.89-.059,2.826.016,1.014.081,1-.523.961-1.213-.033-.657.231-1.42-.953-1.371-1.832.075-3.671.043-5.5.007-.684-.013-.936.185-1,.908-.1,1.232.175,1.893,1.586,1.672a13.493,13.493,0,0,1,2.081-.019m.119,4.89c.994,0,1.988-.02,2.981.006.966.026.674-.693.643-1.146-.033-.479.435-1.3-.645-1.293-2.037.007-4.074,0-6.11,0a.521.521,0,0,0-.609.467c-.349,1.419.043,1.962,1.5,1.964q1.118,0,2.235,0M27.248,23.579c.262-1.071-.2-1.352-1.245-1.355-.985,0-1.258.285-1.264,1.257-.007,1.009.229,1.4,1.315,1.362.951-.031,1.438-.23,1.194-1.264M16.214,22.286c-.891-.148-1.438,0-1.372,1.11.052.875,0,1.549,1.23,1.441.825-.073,1.442-.033,1.34-1.171-.077-.842.068-1.689-1.2-1.38m4.827.02c-.878-.248-1.322.017-1.26,1.091.05.852-.046,1.553,1.2,1.441.826-.075,1.438-.045,1.334-1.171-.077-.831.079-1.689-1.272-1.361" fill="#dddfe3"/>
        <path id="Trazado_842248" data-name="Trazado 842248" d="M45.641,51.232a27.551,27.551,0,0,0,14.124-8.611,1.833,1.833,0,0,1,1.6-.556c3.045.01,6.091-.024,9.135.022.909.013,1.3-.15,1.294-1.2q-.07-11.157,0-22.313c.006-1.011-.312-1.23-1.259-1.218-3.743.051-7.488-.029-11.23.051-1.123.024-1.159-.471-1.166-1.322-.007-.825.072-1.249,1.1-1.236,4.641.059,9.284.052,13.926,0,.964-.01,1.14.331,1.139,1.212q-.039,21.04,0,42.08c0,.94-.191,1.281-1.217,1.273-6.289-.049-12.579-.021-18.868-.031-.46,0-.942.153-1.245-.5a16.615,16.615,0,0,0-7.333-7.652m19.888,5.71c1.746,0,3.494-.054,5.236.021.947.04,1.064-.4,1.014-1.154-.044-.678.177-1.363-.983-1.341-3.491.067-6.984.059-10.475,0-1.044-.017-.947.571-.932,1.236.015.629-.181,1.3.9,1.255,1.742-.076,3.491-.021,5.237-.02m.116-7.444c-1.744,0-3.491.05-5.233-.02-.925-.037-1.094.361-1.03,1.145.055.668-.206,1.385.969,1.364q5.232-.093,10.467,0c1.18.02.9-.717.959-1.372.071-.793-.136-1.174-1.048-1.136-1.692.07-3.389.02-5.084.02m-.006-2.449c1.695,0,3.393-.048,5.085.02.892.035,1.14-.308,1.052-1.119-.069-.641.252-1.4-.945-1.376q-5.235.091-10.471,0c-1.168-.022-.928.674-.979,1.35-.058.778.089,1.187,1.023,1.148,1.742-.073,3.49-.021,5.235-.021" fill="#dcdfe3"/>
        <path id="Trazado_842249" data-name="Trazado 842249" d="M55.524,30.149A30.321,30.321,0,0,0,47.3,25.988a11.134,11.134,0,0,0,5.428-6.651A10.653,10.653,0,0,0,49.537,7.888,10.49,10.49,0,0,0,37.7,5.935a10.584,10.584,0,0,0-6.714,9.943c-.053,1.256-.328,1.582-1.565,1.527-2.391-.107-4.791-.063-7.186-.014-.859.017-1.235-.142-1.222-1.13.054-4.242.047-8.486,0-12.728-.009-.9.33-1.066,1.135-1.064q16.249.031,32.5,0c.7,0,1.09.093,1.087.956-.029,8.785-.021,17.57-.029,26.356,0,.078-.077.156-.186.364M25.942,7.495a10.208,10.208,0,0,1,1.344.01c.988.133,1.248-.26,1.253-1.236.006-1.026-.253-1.443-1.323-1.333a12.662,12.662,0,0,1-2.538,0c-1.085-.107-1.179.45-1.208,1.331-.032.993.294,1.374,1.278,1.237a8.8,8.8,0,0,1,1.194-.009M25.9,12.377a11.363,11.363,0,0,1,1.344.009c.932.113,1.274-.17,1.284-1.195.011-1.08-.322-1.393-1.348-1.283a12.785,12.785,0,0,1-2.388,0c-.91-.073-1.314.131-1.315,1.187,0,1.087.372,1.421,1.378,1.285a7.914,7.914,0,0,1,1.045-.007" fill="#f4d06d"/>
        <path id="Trazado_842250" data-name="Trazado 842250" d="M69.28,29.8c0,2.889-.039,5.778.023,8.666.02.93-.244,1.192-1.165,1.156-1.84-.074-3.685-.012-5.528-.033-.327,0-.92.223-.8-.487.4-2.45-1.049-4.063-2.594-5.567a3.4,3.4,0,0,1-1.069-2.76c.065-3.236.055-6.475,0-9.712-.015-.928.171-1.3,1.2-1.269,2.936.074,5.877.069,8.814,0,.969-.023,1.149.314,1.134,1.19-.05,2.937-.019,5.876-.019,8.815" fill="#fad56f"/>
        <path id="Trazado_842251" data-name="Trazado 842251" d="M27.958,42.056a10.923,10.923,0,0,1,4.837-13.292,11.121,11.121,0,0,1,13.7,17.225c-3.625,3.838-9.61,4.675-13.63,1.905.005-.04,0-.089.018-.118.966-1.35,2.092-1.458,3.717-1.016,3.342.91,6.229-.276,8.422-2.886a8.418,8.418,0,0,0,1.363-8.856c-.27-.735-.58-.8-1.322-.6-2.6.707-4.408-.8-4.114-3.431.1-.874-.242-.96-.916-1.1A8.545,8.545,0,0,0,29.8,38.681c.123,1.743-.113,2.793-1.839,3.375" fill="#919aa5"/>
        <path id="Trazado_842252" data-name="Trazado 842252" d="M38.365,44.578a6.186,6.186,0,0,1-1-12.288c.762-.126,1.053.06,1.263.777a5.265,5.265,0,0,0,4.963,4.052c.991.08.981.622.987,1.275a6.269,6.269,0,0,1-6.209,6.184" fill="#4dbde4"/>
        <path id="Trazado_842253" data-name="Trazado 842253" d="M40.488,74.281a1.113,1.113,0,0,1,.667-1.032c2.165-1.428,2.338-3.319,1.664-5.65-.647-2.236-.969-4.567-1.495-7.162L45.57,62.5c.311-2.622.6-5.083.921-7.772a13.159,13.159,0,0,1,5.337,8.957,32.749,32.749,0,0,1,.128,4.185c.011.893-.427,1.338-1.358,1.42-3.544.31-3.566.328-3.532-3.245.01-1.03.077-1.848-1.407-1.7-.844.084-1.1.3-1.08,1.131.046,2.545-.019,5.091.036,7.635.019.918-.259,1.252-1.186,1.185-.974-.071-1.957-.016-2.941-.016" fill="#add57a"/>
        <path id="Trazado_842254" data-name="Trazado 842254" d="M30.266,54.714c.319,2.7.611,5.155.923,7.793l4.221-2.068c-.54,2.757-.877,5.364-1.6,7.861-.575,2-.224,3.426,1.454,4.6a8.284,8.284,0,0,1,1.113,1.151c-.176.119-.248.209-.321.211-3.893.086-3.893.085-3.893-3.815,0-1.7-.061-3.4.02-5.089.055-1.162-.673-.938-1.353-.987-.787-.058-1.265.124-1.128,1.041a5.182,5.182,0,0,1,.005.748c0,3.273-.569,3.728-3.811,3.1A1.134,1.134,0,0,1,24.836,68.2c-.43-5.271.841-9.878,5.43-13.49" fill="#add57a"/>
        <path id="Trazado_842255" data-name="Trazado 842255" d="M27.865,47.4A22.121,22.121,0,0,1,17.75,39.64a2.011,2.011,0,0,1,0-2.517,22.116,22.116,0,0,1,10.112-7.765l.108.113a14.573,14.573,0,0,0-3.108,10.4A15.808,15.808,0,0,0,27.97,47.29l-.1.111" fill="#c6cbd3"/>
        <path id="Trazado_842256" data-name="Trazado 842256" d="M48.79,47.286A14.534,14.534,0,0,0,51.9,36.893a15.8,15.8,0,0,0-3.108-7.421l.108-.113a22.145,22.145,0,0,1,10.113,7.763,2.012,2.012,0,0,1,0,2.518A22.139,22.139,0,0,1,48.9,47.4l-.108-.116" fill="#c6cbd3"/>
        <path id="Trazado_842257" data-name="Trazado 842257" d="M48.972,21.263c-1.783-1.79-3.5-3.52-5.225-5.237a1.4,1.4,0,0,1-.412-1.072c.007-2.142.033-4.285-.011-6.427-.018-.9.313-.929,1.073-.745,5.7,1.381,8.181,8.352,4.575,13.481" fill="#c8cdd5"/>
        <path id="Trazado_842258" data-name="Trazado 842258" d="M40.826,11.585v1.494c0,2.9-1.441,4.292-4.431,4.293h-.15c-3,0-3.334-.375-2.556-3.3a8.537,8.537,0,0,1,6.026-6.261c.776-.246,1.2-.21,1.127.791s-.016,1.991-.016,2.987" fill="#eb7182"/>
        <path id="Trazado_842259" data-name="Trazado 842259" d="M39.6,21.5c-.179-1.225-.125-2.682,1.712-3.413.492-.2.764-.248,1.142.138,1.391,1.421,2.794,2.832,4.226,4.212.518.5.411.764-.15,1.106a10.956,10.956,0,0,1-6.336,1.243c-.564-.019-.6-.4-.6-.824.008-.7,0-1.392,0-2.462" fill="#add57a"/>
        <path id="Trazado_842260" data-name="Trazado 842260" d="M38.6,59.467c.675,3.358,1.413,6.706,1.995,10.08.233,1.355-1.178,1.85-1.947,2.581-.6.573-.92-.443-1.362-.742a2.43,2.43,0,0,1-.991-2.938c.721-2.974,1.263-5.991,1.877-8.991l.428.01" fill="#eb7182"/>
        <path id="Trazado_842261" data-name="Trazado 842261" d="M9.923,22.308c-.034-.181.005-.085,0,.008-.114,1.621.741,3.893-.331,4.69s-3.224.177-4.5.177l4.836-4.875" fill="#e06c7d"/>
        <path id="Trazado_842262" data-name="Trazado 842262" d="M35.967,52.273a10.442,10.442,0,0,1,4.837-.009c-.6,1.387-1.184,2.727-1.747,4.077-.145.347-.283.626-.724.6-.369-.018-.485-.265-.607-.554-.574-1.364-1.162-2.723-1.759-4.118" fill="#e4c6ab"/>
        <path id="Trazado_842263" data-name="Trazado 842263" d="M32.7,54.028c-.017-.4-.089-.83.457-.953.482-.108.578.28.713.59.457,1.049.889,2.109,1.359,3.153.21.469.24.762-.288,1.1-1.519.968-1.755.877-1.926-.915-.1-.992-.209-1.982-.315-2.973" fill="#add57a"/>
        <path id="Trazado_842264" data-name="Trazado 842264" d="M44.047,54.1c-.127,1.231-.2,2.327-.374,3.408-.059.369.125,1.275-.672.9-.6-.284-1.968-.15-1.483-1.517.365-1.029.849-2.016,1.3-3.015.169-.377.205-.981.857-.78.6.185.361.727.375,1.006" fill="#add57a"/>
        <path id="Trazado_842265" data-name="Trazado 842265" d="M29.724,72.853c-.049.762.242,1.529-.874,1.443-.988-.076-1.529-.43-1.611-1.513-.084-1.122.591-.962,1.3-1.029,1.025-.1,1.358.317,1.19,1.1" fill="#e4c6ab"/>
        <path id="Trazado_842266" data-name="Trazado 842266" d="M47.063,72.994c-.247-1.085.3-1.309,1.219-1.235.64.051,1.284-.129,1.241.928-.047,1.154-.6,1.556-1.667,1.608-1.169.056-.7-.791-.793-1.3" fill="#e4c6ab"/>
        <path id="Trazado_842267" data-name="Trazado 842267" d="M30.92,45.809c-.732-.167-1.236-.559-1.17-1.325a1.052,1.052,0,0,1,1.195-1.062,1.269,1.269,0,0,1,1.16,1.32c0,.71-.559.982-1.185,1.067" fill="#4dbde4"/>
        <path id="Trazado_842268" data-name="Trazado 842268" d="M27.861,29.358c.038-.148.117-.219.273-.144-.056.085-.111.171-.166.257-.035-.038-.071-.075-.107-.113" fill="#c6cbd3"/>
        <path id="Trazado_842269" data-name="Trazado 842269" d="M27.97,47.289l.164.258c-.156.073-.233,0-.269-.147l.1-.111" fill="#c6cbd3"/>
        <path id="Trazado_842270" data-name="Trazado 842270" d="M48.9,47.4c-.037.147-.114.219-.27.145.054-.086.109-.173.162-.26l.108.115" fill="#c6cbd3"/>
        <path id="Trazado_842271" data-name="Trazado 842271" d="M48.792,29.472c-.055-.086-.11-.173-.166-.259.156-.074.236,0,.273.146-.036.037-.072.075-.107.113" fill="#c6cbd3"/>
        <path id="Trazado_842272" data-name="Trazado 842272" d="M4.992,52.012c0-2.946.024-5.892-.015-8.837-.012-.835.236-1.144,1.1-1.115,1.7.058,3.4.081,5.092-.007,1.024-.053,1.233.326,1.225,1.267-.041,4.893,0,9.787-.034,14.68-.006.909.022,1.432,1.22,1.443,1.231.011,1.362-.471,1.336-1.489-.063-2.4.013-4.793-.037-7.189-.02-.912.137-1.355,1.206-1.293,1.692.1,3.4.064,5.091.009.819-.026,1.127.187,1.115,1.066-.047,3.444-.042,6.89,0,10.335.01.8-.25,1.005-1.021,1-5.043-.03-10.086-.039-15.129.006C5.2,61.9,4.956,61.6,4.972,60.7c.053-2.9.02-5.792.02-8.688m4.929.159c0-2.188-.045-4.378.022-6.564.028-.922-.354-1.09-1.134-1.021-.659.058-1.366-.21-1.35.964.06,4.276.067,8.555-.005,12.831-.019,1.138.6.965,1.3,1.019.861.066,1.236-.126,1.2-1.112-.084-2.036-.026-4.078-.026-6.117m9.9,3.454c0-.9-.062-1.8.016-2.684.088-1-.477-.988-1.189-.987-.752,0-1.348-.038-1.293,1.048.085,1.686.081,3.383,0,5.07-.048,1,.189,1.342,1.276,1.364,1.2.025,1.261-.527,1.2-1.425-.053-.792-.011-1.59-.011-2.386" fill="#050403"/>
        <path id="Trazado_842273" data-name="Trazado 842273" d="M8.606,34.706a13.62,13.62,0,0,0-2.081.018c-1.411.222-1.687-.44-1.585-1.671.06-.723.311-.921.995-.908,1.835.036,3.673.068,5.5-.008,1.184-.049.92.715.953,1.372.035.69.053,1.294-.96,1.213-.937-.075-1.884-.016-2.827-.016" fill="#161617"/>
        <path id="Trazado_842274" data-name="Trazado 842274" d="M8.725,39.6q-1.118,0-2.236,0c-1.461,0-1.853-.545-1.5-1.964a.522.522,0,0,1,.609-.467c2.037,0,4.074,0,6.111,0,1.08,0,.612.814.644,1.293.031.453.323,1.172-.642,1.146-.993-.026-1.987-.006-2.981-.005" fill="#040403"/>
        <path id="Trazado_842275" data-name="Trazado 842275" d="M27.248,23.579c.243,1.034-.244,1.233-1.195,1.264-1.085.036-1.322-.352-1.315-1.362.007-.972.28-1.259,1.265-1.256,1.047,0,1.507.283,1.245,1.354" fill="#161617"/>
        <path id="Trazado_842276" data-name="Trazado 842276" d="M16.214,22.286c1.265-.308,1.121.538,1.2,1.38.1,1.138-.515,1.1-1.339,1.171-1.227.108-1.178-.566-1.23-1.441-.066-1.111.481-1.258,1.372-1.11" fill="#161617"/>
        <path id="Trazado_842277" data-name="Trazado 842277" d="M21.041,22.306c1.351-.328,1.195.53,1.272,1.361.1,1.126-.508,1.1-1.334,1.171-1.244.112-1.148-.589-1.2-1.441-.062-1.074.382-1.339,1.26-1.091" fill="#161617"/>
        <path id="Trazado_842278" data-name="Trazado 842278" d="M65.528,56.941c-1.746,0-3.494-.055-5.237.02-1.083.047-.887-.625-.9-1.255-.016-.665-.113-1.252.931-1.235,3.491.056,6.985.064,10.475,0,1.16-.023.94.662.984,1.341.049.758-.068,1.194-1.014,1.153-1.743-.074-3.491-.021-5.237-.021" fill="#040403"/>
        <path id="Trazado_842279" data-name="Trazado 842279" d="M65.645,49.5c1.695,0,3.392.05,5.084-.02.911-.038,1.119.343,1.048,1.136-.058.655.221,1.392-.959,1.372q-5.232-.09-10.467,0c-1.175.021-.914-.7-.969-1.363-.064-.784.1-1.183,1.03-1.145,1.742.07,3.488.02,5.233.02" fill="#050403"/>
        <path id="Trazado_842280" data-name="Trazado 842280" d="M65.639,47.049c-1.745,0-3.493-.052-5.235.021-.934.039-1.081-.37-1.023-1.148.051-.675-.189-1.372.979-1.35q5.233.1,10.471,0c1.2-.021.876.735.945,1.376.088.811-.16,1.154-1.052,1.119-1.692-.068-3.39-.02-5.085-.02" fill="#040403"/>
        <path id="Trazado_842281" data-name="Trazado 842281" d="M25.942,7.495a8.642,8.642,0,0,0-1.194.009c-.984.137-1.31-.245-1.277-1.237.028-.881.123-1.439,1.207-1.331a12.662,12.662,0,0,0,2.538,0c1.07-.11,1.329.306,1.324,1.333-.005.976-.266,1.369-1.254,1.236a10.208,10.208,0,0,0-1.344-.01" fill="#161617"/>
        <path id="Trazado_842282" data-name="Trazado 842282" d="M25.9,12.377a7.914,7.914,0,0,0-1.045.007c-1.006.136-1.379-.2-1.378-1.285,0-1.056.4-1.26,1.315-1.187a12.785,12.785,0,0,0,2.388,0c1.026-.11,1.359.2,1.348,1.283-.01,1.025-.352,1.308-1.284,1.195a11.363,11.363,0,0,0-1.344-.009" fill="#050403"/>
        <path id="Trazado_842283" data-name="Trazado 842283" d="M9.922,52.171c0,2.039-.059,4.081.024,6.116.042.987-.333,1.179-1.194,1.113-.7-.054-1.316.119-1.3-1.019.072-4.276.065-8.555.005-12.831-.016-1.174.69-.906,1.348-.964.781-.069,1.163.1,1.135,1.021-.066,2.186-.021,4.376-.021,6.564" fill="#fad56f"/>
        <path id="Trazado_842284" data-name="Trazado 842284" d="M19.817,55.625c0,.8-.042,1.594.011,2.386.06.9,0,1.45-1.2,1.425-1.087-.022-1.324-.36-1.276-1.364.081-1.687.085-3.384,0-5.07-.055-1.086.541-1.047,1.292-1.048.713,0,1.278-.008,1.19.987-.078.888-.016,1.789-.016,2.684" fill="#f4d06d"/>
      </g>
    </g>
  </g>
</svg>
