<svg xmlns="http://www.w3.org/2000/svg" xmlns:xlink="http://www.w3.org/1999/xlink" width="125.072" height="125.072" viewBox="0 0 125.072 125.072">
  <defs>
    <clipPath id="clip-path">
      <rect id="Rectángulo_381150" data-name="Rectángulo 381150" width="84.006" height="82.765" fill="none"/>
    </clipPath>
  </defs>
  <g id="Grupo_1083386" data-name="Grupo 1083386" transform="translate(-1094 -4872.886)">
    <g id="Grupo_1013379" data-name="Grupo 1013379" transform="translate(5 2726.886)">
      <path id="Trazado_608387" data-name="Trazado 608387" d="M62.5,0A62.5,62.5,0,1,1,0,62.5,62.5,62.5,0,0,1,62.5,0Z" transform="translate(1089 2146)" fill="#304c8e"/>
      <g id="Group_43_" data-name="Group (43)" transform="translate(1182 2239)">
        <path id="Trazado_598926" data-name="Trazado 598926" d="M36.549,16.055,16.055,36.549a15.864,15.864,0,0,0,.655,1.582l21.422-21.42a15.863,15.863,0,0,0-1.582-.655Z" transform="translate(-15.17 -15.17)" fill="#4ca220"/>
        <path id="Trazado_598927" data-name="Trazado 598927" d="M18.367.8.8,18.367a16.022,16.022,0,0,0,.26,1.7L20.065,1.058A16.022,16.022,0,0,0,18.367.8Z" transform="translate(-0.754 -0.754)" fill="#4ca220"/>
        <path id="Trazado_598928" data-name="Trazado 598928" d="M299.7,283.668c0-.137-.008-.274-.01-.41l-16.454,16.453c.137,0,.273.01.41.01a16.091,16.091,0,0,0,1.678-.088l14.289-14.289a16.09,16.09,0,0,0,.088-1.678Z" transform="translate(-267.627 -267.648)" fill="#4ca220"/>
        <path id="Trazado_598929" data-name="Trazado 598929" d="M68.634,46.122q-.611-.481-1.267-.9L45.2,67.389q.42.656.9,1.267Z" transform="translate(-42.708 -42.73)" fill="#4ca220"/>
        <path id="Trazado_598930" data-name="Trazado 598930" d="M0,15.009,15.009,0c-.434.026-.863.07-1.287.131L.131,13.722C.07,14.145.026,14.575,0,15.009Z" fill="#4ca220"/>
        <path id="Trazado_598931" data-name="Trazado 598931" d="M106.76,84.058l-22.7,22.7a16.114,16.114,0,0,0,1.365,1.222l22.559-22.559A16.123,16.123,0,0,0,106.76,84.058Z" transform="translate(-79.426 -79.426)" fill="#4ca220"/>
        <path id="Trazado_598932" data-name="Trazado 598932" d="M159.927,138.548a16.093,16.093,0,0,0-.877-1.6l-22.108,22.108a15.959,15.959,0,0,0,1.6.877Z" transform="translate(-129.396 -129.396)" fill="#4ca220"/>
        <path id="Trazado_598933" data-name="Trazado 598933" d="M28.816,19.794a16.1,16.1,0,0,0-9.022,9.022Z" transform="translate(-18.704 -18.704)" fill="#4ca220"/>
        <path id="Trazado_598934" data-name="Trazado 598934" d="M382.436,392.617a16.085,16.085,0,0,0,10.18-10.18Z" transform="translate(-361.361 -361.361)" fill="#4ca220"/>
        <path id="Trazado_598935" data-name="Trazado 598935" d="M220.714,200.477l-20.237,20.237a15.962,15.962,0,0,0,2.154.537l18.619-18.619A16.154,16.154,0,0,0,220.714,200.477Z" transform="translate(-189.429 -189.429)" fill="#4ca220"/>
      </g>
    </g>
    <g id="Grupo_1083202" data-name="Grupo 1083202" transform="translate(1114.497 4894.041)">
      <g id="Grupo_1083201" data-name="Grupo 1083201" transform="translate(0 0)" clip-path="url(#clip-path)">
        <path id="Trazado_842890" data-name="Trazado 842890" d="M44.07,82.764q-12.328,0-24.657,0c-2.562,0-3.065-.479-3.077-3.043-.01-1.848-.157-3.75,1.009-5.374,1.481-2.063,3.651-2.729,6.044-2.817,1.743-.064,3.492-.067,5.234,0,1.264.045,1.8-.352,1.821-1.72.063-4.574.109-4.574-4.483-4.574-4.728,0-9.457.017-14.186-.006a7.4,7.4,0,0,1-7.7-7.631c-.044-2.7-.018-5.4-.008-8.106a4.253,4.253,0,0,0-.722-3.034c-.442-.524-.251-1.15-.041-1.765.794-2.335.14-3.875-2.123-5.034C.6,39.355.05,39,.03,38.316c-.045-1.572-.037-3.149.01-4.723.018-.614.5-.966,1.01-1.26,2.543-1.469,3-2.553,2.179-5.222-.136-.444-.316-.95-.026-1.3,1.3-1.58.755-3.436.847-5.191.052-1.01,0-2.026.013-3.04A7.592,7.592,0,0,1,11.92,9.657c5.066-.061,10.134-.01,15.2-.021,2.112,0,2.461-.416,1.87-2.375a1.909,1.909,0,0,1,.485-2.15c1.366-1.286,2.352-3.244,4.912-2.085.8.363,1.874-.361,2.448-1.387,1.245-2.229,5.228-2.161,6.556.052a2.411,2.411,0,0,0,3.126,1.175c2.064-.666,5.131,2.217,4.656,4.32-.487,2.152-.259,2.449,1.987,2.451q11.315.011,22.631,0c2.933,0,5.414.937,7.082,3.5a6.854,6.854,0,0,1,1.134,3.827c-.008,13.68.013,27.359-.015,41.039A7.186,7.186,0,0,1,76.8,65.212q-8.7.066-17.4-.005c-1.285-.011-1.9.325-1.77,1.711a19.393,19.393,0,0,1,.006,3.038c-.078,1.2.479,1.554,1.6,1.568a44.468,44.468,0,0,1,7.246.212A5.911,5.911,0,0,1,71.794,77.9c.059,4.863.059,4.863-4.756,4.863H44.07M54.654,52.189c6.474,0,12.95-.034,19.423.027,1.43.013,1.981-.361,1.972-1.891q-.086-15.285,0-30.57c.008-1.467-.444-1.969-1.929-1.956-7.038.059-14.075.018-21.113.032-1.938,0-2.379.621-1.9,2.527.525,2.085-2.41,5.151-4.441,4.557a2.628,2.628,0,0,0-3.46,1.474c-1.013,1.853-5.219,1.86-6.249.009a2.743,2.743,0,0,0-3.634-1.445c-1.963.564-4.863-2.585-4.3-4.545.557-1.934.094-2.568-1.965-2.576-4.166-.018-8.332-.009-12.5-.006-2.58,0-2.673.1-2.506,2.659.024.365-.153.9.363.992.46.083.672-.379.771-.758.463-1.778,1.7-2.2,3.351-2.036a17.06,17.06,0,0,0,2.362.011A2.021,2.021,0,0,1,21,20.046c.969,2.093,2.682,2.769,4.949,1.984a1.751,1.751,0,0,1,1.91.121c1.109,1.034,2.184,2.11,3.209,3.228a1.812,1.812,0,0,1,.1,1.924c-.78,2.311-.117,3.853,2.13,4.966a2.6,2.6,0,0,1,1.026.842c1.135,1.612,2.6,1.731,3.928.3a4.25,4.25,0,0,1,2.57-1.489,4.1,4.1,0,0,1,4.465,2.572,4.171,4.171,0,0,1-1.722,5.01,4.123,4.123,0,0,1-5.221-.836c-1.6-1.7-2.722-1.641-4.056.166a2.866,2.866,0,0,1-.893.739c-2.47,1.4-2.971,2.592-2.15,5.272a1.528,1.528,0,0,1-.024,1.459c-.7.875-.1,1.285.5,1.758.828.655,1.933,1.191,1.869,2.434-.08,1.538.715,1.723,1.974,1.714,6.362-.04,12.724-.018,19.085-.018M43.944,62.273H65.731c3.378,0,6.757.045,10.134-.021,3.312-.065,5.161-1.8,5.17-4.956q.062-19.759,0-39.52c-.01-3.251-1.833-4.941-5.094-4.947q-10.049-.019-20.1,0c-.337,0-.675.005-1.013.022-.6.03-.941.323-.918.956a.793.793,0,0,0,.865.828c.45.022.9.026,1.351.026q9.542,0,19.085,0c3.29,0,3.986.677,3.988,3.921q.008,16.805,0,33.61c0,2.8-.4,3.184-3.256,3.185-12.442,0-24.883.027-37.325-.031-1.532-.006-2.314.32-2.633,1.965a4.017,4.017,0,0,1-7.887-.414c-.129-1.316-.708-1.543-1.836-1.534-4.391.039-8.783.016-13.174.015-3.961,0-3.961,0-4-3.875,0-.225-.005-.451,0-.675.01-1.227-.679-.909-1.324-.574-.539.28-.512.835-.513,1.34,0,2.195-.039,4.392.028,6.586A4.136,4.136,0,0,0,10.2,61.926a9.5,9.5,0,0,0,3,.351q15.369-.011,30.738,0M31.429,36c-.027-.9-.1-1.023-.819-1.449a7.453,7.453,0,0,1-2.919-7.041,1.558,1.558,0,0,0-1.979-1.99c-2.245.576-5.884-.975-7.127-3.036a1.484,1.484,0,0,0-2.668-.088A7.294,7.294,0,0,1,8.7,25.5c-1.228-.3-2.273.572-1.938,1.362.934,2.2-.412,3.772-.956,5.583A2.719,2.719,0,0,1,4,34.5a1.349,1.349,0,0,0-1.1,1.473,1.529,1.529,0,0,0,.968,1.417c1.918,1.036,3.49,4.888,2.925,7.03a1.562,1.562,0,0,0,1.955,2.01c2.287-.545,5.907.939,7.054,2.891.545.927,2.207,1.284,2.494.443.791-2.313,3-2.315,4.633-3.244a2.562,2.562,0,0,1,2.574-.158,1.37,1.37,0,0,0,1.808-.294,1.509,1.509,0,0,0,.336-1.808c-.631-1.823,1.047-5.916,2.8-6.808.708-.361,1.045-.8.977-1.448M43.886,79.579c7.592,0,15.184-.039,22.775.032,1.608.015,2.087-.567,1.958-2.071-.152-1.784-1.384-2.853-3.667-2.855q-20.834-.028-41.67-.013a5.025,5.025,0,0,0-2.429.589c-1.457.782-1.584,2.147-1.32,3.511.256,1.315,1.462.778,2.253.782,7.366.041,14.733.025,22.1.024M34.4,6.469c-1.766-.559-1.943-.017-1.882,1.505a5.809,5.809,0,0,1-2.118,4.88c-.886.7-1.107,1.121-.126,1.915A6.02,6.02,0,0,1,32.484,20.1c-.1,1.377.238,1.462,1.468,1.343A5.784,5.784,0,0,1,39.1,23.616c.857,1.05,1.16.922,1.983-.022A5.8,5.8,0,0,1,46.4,21.487c1.244.179,1.456-.1,1.295-1.316a5.743,5.743,0,0,1,2.121-5.306c.99-.827,1.017-1.138,0-1.98a5.792,5.792,0,0,1-2.165-5.15c.128-1.247.006-1.57-1.355-1.451A6,6,0,0,1,41.073,4.19c-.82-.96-1.243-1.066-2.013.013C37.887,5.846,35.931,5.947,34.4,6.469m9.636,58.759H37.788c-4.253,0-4.2,0-4.213,4.34,0,1.458.446,1.985,1.934,1.964,4.895-.07,9.791.021,14.686-.038,5.345-.064,4.376.922,4.514-4.71.028-1.165-.38-1.6-1.561-1.575-3.037.057-6.077.018-9.115.017m-25.894-52.4v.011c-2.25,0-4.5-.045-6.748.014a4.056,4.056,0,0,0-4.041,3.4A40.594,40.594,0,0,0,7.266,20.8c-.005.813.573,1.087,1.223,1.094.8.008.573-.689.591-1.142.037-.9.01-1.8.013-2.7.013-2.709.673-3.38,3.389-3.387,3.992-.012,7.984.016,11.976-.022.693-.005,1.8.4,1.824-.849.025-1.388-1.166-.925-1.9-.946-2.079-.058-4.161-.021-6.241-.021m7.484,39.365c1.013,0,2.025.029,3.036-.011.58-.024,1.368.263,1.636-.492.287-.808-.483-1.173-.982-1.591-.426-.358-.873-.75-1.488-.279a1.748,1.748,0,0,1-2.064,0c-1.5-.874-2.7.1-3.949.626a1.22,1.22,0,0,0-.642,1.29c.121.747.808.421,1.249.442,1.066.05,2.135.016,3.2.016" transform="translate(0 0.001)" fill="#fff"/>
        <path id="Trazado_842891" data-name="Trazado 842891" d="M58.437,21.493q-3.792,0-7.583,0c-1.01,0-2.028-.115-2.128-1.38-.106-1.355.916-1.737,1.995-1.745q7.75-.058,15.5,0c1.068.008,2.113.343,2.047,1.7-.062,1.267-1.058,1.429-2.081,1.429H58.437" transform="translate(3.932 1.48)" fill="#fff"/>
        <path id="Trazado_842892" data-name="Trazado 842892" d="M58.321,27.07c-2.472,0-4.944.012-7.416-.005-1.082-.009-2.138-.25-2.179-1.572-.043-1.371,1.027-1.585,2.108-1.588q7.669-.016,15.337,0c1.085,0,2.148.229,2.094,1.6-.053,1.321-1.113,1.552-2.193,1.558-2.584.016-5.169.005-7.753.005" transform="translate(3.932 1.929)" fill="#fff"/>
        <path id="Trazado_842893" data-name="Trazado 842893" d="M58.588,40.451H66.17c1.017,0,2.023.139,2.1,1.408.081,1.358-.958,1.7-2.03,1.71q-7.75.05-15.5,0c-1.075-.006-2.106-.363-2.013-1.723.086-1.269,1.1-1.393,2.112-1.393q3.876,0,7.751,0" transform="translate(3.932 3.265)" fill="#fff"/>
        <path id="Trazado_842894" data-name="Trazado 842894" d="M58.594,34.873c2.472,0,4.942-.01,7.414,0,1.141.006,2.272.223,2.257,1.657-.014,1.364-1.129,1.508-2.192,1.51q-7.582.016-15.163,0c-1.071,0-2.16-.166-2.166-1.536-.005-1.459,1.141-1.624,2.268-1.631,2.528-.016,5.054-.005,7.582-.005" transform="translate(3.934 2.815)" fill="#fff"/>
        <path id="Trazado_842895" data-name="Trazado 842895" d="M58.612,29.487q3.8,0,7.592,0c1.025,0,2.037.134,2.064,1.424.029,1.406-1.041,1.53-2.127,1.529q-7.677,0-15.352,0c-1.027,0-2.036-.134-2.064-1.423-.03-1.409,1.043-1.53,2.127-1.529q3.881,0,7.761,0" transform="translate(3.932 2.38)" fill="#fff"/>
        <path id="Trazado_842896" data-name="Trazado 842896" d="M25.267,34.006a8.484,8.484,0,0,1-8.7,8.591,8.653,8.653,0,0,1-8.732-8.659,8.919,8.919,0,0,1,8.889-8.775,8.654,8.654,0,0,1,8.546,8.843m-8.705-5.657a5.437,5.437,0,0,0-5.543,5.542,5.7,5.7,0,0,0,5.642,5.729,5.833,5.833,0,0,0,5.628-5.628,5.7,5.7,0,0,0-5.728-5.642" transform="translate(0.632 2.031)" fill="#fff"/>
        <path id="Trazado_842897" data-name="Trazado 842897" d="M44.328,13.283a6.743,6.743,0,0,1-6.693,6.794,6.633,6.633,0,0,1-6.765-6.684,6.729,6.729,0,0,1,13.458-.11m-6.754,3.623a3.325,3.325,0,0,0,3.581-3.562,3.634,3.634,0,0,0-3.572-3.7,3.873,3.873,0,0,0-3.688,3.671,3.627,3.627,0,0,0,3.679,3.592" transform="translate(2.491 0.537)" fill="#fff"/>
      </g>
    </g>
  </g>
</svg>
