<svg xmlns="http://www.w3.org/2000/svg" xmlns:xlink="http://www.w3.org/1999/xlink" width="125.072" height="125.072" viewBox="0 0 125.072 125.072">
  <defs>
    <clipPath id="clip-path">
      <rect id="Rectángulo_381149" data-name="Rectángulo 381149" width="63.333" height="82.765" transform="translate(0 0)" fill="none"/>
    </clipPath>
  </defs>
  <g id="Grupo_1083385" data-name="Grupo 1083385" transform="translate(-743 -4872.886)">
    <g id="Grupo_1013380" data-name="Grupo 1013380" transform="translate(5 2726.886)">
      <path id="Trazado_608386" data-name="Trazado 608386" d="M62.5,0A62.5,62.5,0,1,1,0,62.5,62.5,62.5,0,0,1,62.5,0Z" transform="translate(738 2146)" fill="#304c8e"/>
      <g id="Group_43_" data-name="Group (43)" transform="translate(831 2239)">
        <path id="Trazado_598926" data-name="Trazado 598926" d="M36.549,16.055,16.055,36.549a15.864,15.864,0,0,0,.655,1.582l21.422-21.42a15.863,15.863,0,0,0-1.582-.655Z" transform="translate(-15.17 -15.17)" fill="#4ca220"/>
        <path id="Trazado_598927" data-name="Trazado 598927" d="M18.367.8.8,18.367a16.022,16.022,0,0,0,.26,1.7L20.065,1.058A16.022,16.022,0,0,0,18.367.8Z" transform="translate(-0.754 -0.754)" fill="#4ca220"/>
        <path id="Trazado_598928" data-name="Trazado 598928" d="M299.7,283.668c0-.137-.008-.274-.01-.41l-16.454,16.453c.137,0,.273.01.41.01a16.091,16.091,0,0,0,1.678-.088l14.289-14.289a16.09,16.09,0,0,0,.088-1.678Z" transform="translate(-267.627 -267.648)" fill="#4ca220"/>
        <path id="Trazado_598929" data-name="Trazado 598929" d="M68.634,46.122q-.611-.481-1.267-.9L45.2,67.389q.42.656.9,1.267Z" transform="translate(-42.708 -42.73)" fill="#4ca220"/>
        <path id="Trazado_598930" data-name="Trazado 598930" d="M0,15.009,15.009,0c-.434.026-.863.07-1.287.131L.131,13.722C.07,14.145.026,14.575,0,15.009Z" fill="#4ca220"/>
        <path id="Trazado_598931" data-name="Trazado 598931" d="M106.76,84.058l-22.7,22.7a16.114,16.114,0,0,0,1.365,1.222l22.559-22.559A16.123,16.123,0,0,0,106.76,84.058Z" transform="translate(-79.426 -79.426)" fill="#4ca220"/>
        <path id="Trazado_598932" data-name="Trazado 598932" d="M159.927,138.548a16.093,16.093,0,0,0-.877-1.6l-22.108,22.108a15.959,15.959,0,0,0,1.6.877Z" transform="translate(-129.396 -129.396)" fill="#4ca220"/>
        <path id="Trazado_598933" data-name="Trazado 598933" d="M28.816,19.794a16.1,16.1,0,0,0-9.022,9.022Z" transform="translate(-18.704 -18.704)" fill="#4ca220"/>
        <path id="Trazado_598934" data-name="Trazado 598934" d="M382.436,392.617a16.085,16.085,0,0,0,10.18-10.18Z" transform="translate(-361.361 -361.361)" fill="#4ca220"/>
        <path id="Trazado_598935" data-name="Trazado 598935" d="M220.714,200.477l-20.237,20.237a15.962,15.962,0,0,0,2.154.537l18.619-18.619A16.154,16.154,0,0,0,220.714,200.477Z" transform="translate(-189.429 -189.429)" fill="#4ca220"/>
      </g>
    </g>
    <g id="Grupo_1083200" data-name="Grupo 1083200" transform="translate(773.833 4894.04)">
      <g id="Grupo_1083199" data-name="Grupo 1083199" clip-path="url(#clip-path)">
        <path id="Trazado_842885" data-name="Trazado 842885" d="M.049,41.423c0-10.948.105-21.9-.048-32.845C-.068,3.637,3.279-.113,8.584,0,19.2.234,29.835.089,40.462.05a4.429,4.429,0,0,1,3.422,1.4q8.951,9.037,17.986,17.99a4.691,4.691,0,0,1,1.463,3.582q-.038,25.842-.022,51.684c0,4.99-3.069,8.052-8.017,8.054q-23.587.009-47.175,0c-4.973,0-8.056-3.045-8.064-8.008Q.026,58.087.049,41.423m5.293-.005q0,16.587,0,33.173c0,2.246.771,3.09,2.938,3.092q23.43.027,46.86,0c2.035,0,2.869-.845,2.87-2.831.014-16.264,0-32.528.032-48.792,0-1.318-.517-1.637-1.724-1.614-3.22.06-6.441.027-9.662.018-4.844-.015-7.923-3.087-7.956-7.96-.021-3.166-.075-6.336.025-9.5.048-1.515-.493-1.9-1.947-1.894-9.339.057-18.679.025-28.019.032-2.741,0-3.419.686-3.42,3.427q-.008,16.425,0,32.85M44.026,9.269c0,2.775-.035,5.391.016,8.006a1.885,1.885,0,0,0,1.8,1.964c2.735.116,5.478.039,8.2.039L44.026,9.269" fill="#fff"/>
        <path id="Trazado_842886" data-name="Trazado 842886" d="M31.688,39.275q-7.162,0-14.324,0a2.533,2.533,0,0,1-2.606-1.746,2.369,2.369,0,0,1,.683-2.636,2.5,2.5,0,0,1,1.914-.681c9.549,0,19.1-.008,28.647.012a2.529,2.529,0,1,1,.01,5.036c-4.775.03-9.549.011-14.324.011" fill="#fff"/>
        <path id="Trazado_842887" data-name="Trazado 842887" d="M31.518,48.938q-7.081,0-14.163,0a2.526,2.526,0,0,1-2.6-1.753,2.369,2.369,0,0,1,.693-2.634,2.5,2.5,0,0,1,1.915-.676c9.55.005,19.1-.007,28.648.013A2.53,2.53,0,1,1,46,48.928c-4.828.029-9.657.01-14.485.01" fill="#fff"/>
        <path id="Trazado_842888" data-name="Trazado 842888" d="M31.849,53.544q7.081,0,14.163,0a2.523,2.523,0,0,1,2.6,1.754,2.373,2.373,0,0,1-.694,2.634A2.506,2.506,0,0,1,46,58.6c-9.549-.005-19.1.007-28.648-.014a2.529,2.529,0,1,1,.011-5.036c4.828-.028,9.657-.01,14.485-.01" fill="#fff"/>
        <path id="Trazado_842889" data-name="Trazado 842889" d="M26.769,68.266c-3.057,0-6.114.016-9.171-.006-1.854-.013-3.062-1.09-3-2.608.056-1.469,1.206-2.438,3.006-2.443q9.252-.022,18.5,0c1.8.005,2.95.977,3,2.447.056,1.517-1.152,2.592-3.007,2.6-3.11.021-6.221.006-9.332.006" fill="#fff"/>
      </g>
    </g>
  </g>
</svg>
