<svg xmlns="http://www.w3.org/2000/svg" xmlns:xlink="http://www.w3.org/1999/xlink" width="125.072" height="125.072" viewBox="0 0 125.072 125.072">
  <defs>
    <clipPath id="clip-path">
      <rect id="Rectángulo_381151" data-name="Rectángulo 381151" width="75.756" height="82.844" fill="none" stroke="#fff" stroke-width="1"/>
    </clipPath>
  </defs>
  <g id="Grupo_1083387" data-name="Grupo 1083387" transform="translate(4291 6827.114)">
    <g id="Grupo_1083023" data-name="Grupo 1083023" transform="translate(-4677 -8973.114)">
      <path id="Trazado_608385" data-name="Trazado 608385" d="M62.5,0A62.5,62.5,0,1,1,0,62.5,62.5,62.5,0,0,1,62.5,0Z" transform="translate(386 2146)" fill="#304c8e"/>
      <g id="Group_43_" data-name="Group (43)" transform="translate(479 2239)">
        <path id="Trazado_598926" data-name="Trazado 598926" d="M36.549,16.055,16.055,36.549a15.864,15.864,0,0,0,.655,1.582l21.422-21.42a15.863,15.863,0,0,0-1.582-.655Z" transform="translate(-15.17 -15.17)" fill="#4ca220"/>
        <path id="Trazado_598927" data-name="Trazado 598927" d="M18.367.8.8,18.367a16.022,16.022,0,0,0,.26,1.7L20.065,1.058A16.022,16.022,0,0,0,18.367.8Z" transform="translate(-0.754 -0.754)" fill="#4ca220"/>
        <path id="Trazado_598928" data-name="Trazado 598928" d="M299.7,283.668c0-.137-.008-.274-.01-.41l-16.454,16.453c.137,0,.273.01.41.01a16.091,16.091,0,0,0,1.678-.088l14.289-14.289a16.09,16.09,0,0,0,.088-1.678Z" transform="translate(-267.627 -267.648)" fill="#4ca220"/>
        <path id="Trazado_598929" data-name="Trazado 598929" d="M68.634,46.122q-.611-.481-1.267-.9L45.2,67.389q.42.656.9,1.267Z" transform="translate(-42.708 -42.73)" fill="#4ca220"/>
        <path id="Trazado_598930" data-name="Trazado 598930" d="M0,15.009,15.009,0c-.434.026-.863.07-1.287.131L.131,13.722C.07,14.145.026,14.575,0,15.009Z" fill="#4ca220"/>
        <path id="Trazado_598931" data-name="Trazado 598931" d="M106.76,84.058l-22.7,22.7a16.114,16.114,0,0,0,1.365,1.222l22.559-22.559A16.123,16.123,0,0,0,106.76,84.058Z" transform="translate(-79.426 -79.426)" fill="#4ca220"/>
        <path id="Trazado_598932" data-name="Trazado 598932" d="M159.927,138.548a16.093,16.093,0,0,0-.877-1.6l-22.108,22.108a15.959,15.959,0,0,0,1.6.877Z" transform="translate(-129.396 -129.396)" fill="#4ca220"/>
        <path id="Trazado_598933" data-name="Trazado 598933" d="M28.816,19.794a16.1,16.1,0,0,0-9.022,9.022Z" transform="translate(-18.704 -18.704)" fill="#4ca220"/>
        <path id="Trazado_598934" data-name="Trazado 598934" d="M382.436,392.617a16.085,16.085,0,0,0,10.18-10.18Z" transform="translate(-361.361 -361.361)" fill="#4ca220"/>
        <path id="Trazado_598935" data-name="Trazado 598935" d="M220.714,200.477l-20.237,20.237a15.962,15.962,0,0,0,2.154.537l18.619-18.619A16.154,16.154,0,0,0,220.714,200.477Z" transform="translate(-189.429 -189.429)" fill="#4ca220"/>
      </g>
    </g>
    <g id="Grupo_1083204" data-name="Grupo 1083204" transform="translate(-4266.342 -6806)">
      <g id="Grupo_1083203" data-name="Grupo 1083203" clip-path="url(#clip-path)">
        <path id="Trazado_842898" data-name="Trazado 842898" d="M18.994,48.215c-.043-.611-.555-.9-.875-1.3a16.319,16.319,0,0,1-3.737-12.775c.136-1.057-.176-1.349-1.156-1.338-2.419.029-4.838.024-7.258,0C2.249,32.774.021,30.574.013,26.894q-.026-10.565,0-21.129A5.36,5.36,0,0,1,5.753.014q11.693-.028,23.387,0A5.507,5.507,0,0,1,35.025,5.7c.072,3.063.023,6.129.013,9.193,0,1.027-.165,2.073-1.482,2.049-1.27-.024-1.263-1.07-1.282-2.016-.065-3.051-.069-3.051-3.14-3.051-8.119,0-16.237.034-24.356-.031-1.518-.012-2.074.389-2.038,1.98.1,4.245.022,8.494.04,12.742.011,2.455.989,3.444,3.4,3.463,2.581.02,5.162-.033,7.742.024A2.083,2.083,0,0,0,16.08,28.8c4.717-8.732,14.9-11.525,23.32-6.4,1.152.7,1.409.533,1.4-.766q-.058-7.1,0-14.194c.037-3.981,1.724-6.427,4.912-7.214A8.856,8.856,0,0,1,47.785.033q10.564-.02,21.129,0c4.3.007,6.823,2.509,6.832,6.789q.019,9.678,0,19.355c-.011,4.063-2.573,6.6-6.665,6.635-2.581.021-5.162.048-7.742-.013a2.382,2.382,0,0,0-2.368,1.281c-1.1,1.849-2.288,3.64-3.434,5.46-.754,1.2-1.749,1.94-3.224,1.521a2.693,2.693,0,0,1-1.993-3.091c.054-1.234-.054-2.476.023-3.708.114-1.828-1.183-1.345-2.182-1.455-1.2-.131-1.278.49-1.185,1.453a16.334,16.334,0,0,1-3.044,11.736,1.109,1.109,0,0,0,.235,1.79c.749.512,1.01,1.893,2.442,1.244,2.738-1.242,4.27-.928,6.384,1.159,1.569,1.548,3.14,3.1,4.671,4.68,2.2,2.274,2.173,4.854-.025,7.127-.486.5-.975,1-1.486,1.478a4.571,4.571,0,0,1-6.535.157c-1.98-1.815-3.886-3.722-5.7-5.7a4.239,4.239,0,0,1-.66-5.359c1.04-1.727-.666-2.076-1.289-2.948-.654-.915-1.263-.241-1.91.149a15.993,15.993,0,0,1-3.265,1.725c-1.474.469-1.783,1.328-1.771,2.75.063,7.312.034,14.624.027,21.935,0,4.595-2.088,6.659-6.71,6.66q-11.129,0-22.258,0C2.126,82.834.012,80.718.009,76.761Q0,60.874.01,44.986c0-3.58,2.345-5.892,5.966-5.918q2.1-.015,4.193.01c.9.012,1.632.33,1.626,1.37s-.75,1.356-1.639,1.376c-1.451.033-2.9-.009-4.355.033a2.777,2.777,0,0,0-3.009,3.032c-.041,4.2-.338,3.451,3.337,3.491,3.763.041,7.527.017,11.29,0a2.681,2.681,0,0,0,1.574-.165M53.1,37.5l.306.149c1.291-2.024,2.631-4.019,3.854-6.084a2.92,2.92,0,0,1,2.906-1.558c2.847.075,5.7.032,8.546.019,2.964-.013,4.255-1.268,4.262-4.193Q73,16.4,72.973,6.97c-.008-2.857-1.3-4.156-4.125-4.162q-10.482-.019-20.964,0c-2.87.005-4.141,1.263-4.149,4.112-.017,5.322.063,10.645-.04,15.965a8.972,8.972,0,0,0,1.582,5.9,4.077,4.077,0,0,0,4.308,1.2c1.287-.412.563-1.543.73-2.349.087-.416.015-.862.08-1.284a1.189,1.189,0,0,1,1.05-1.068,1.3,1.3,0,0,1,1.429.811,3.738,3.738,0,0,1,.222,1.742q.007,4.834,0,9.667M2.774,64.829c0,3.817-.006,7.635,0,11.453.006,2.908.86,3.785,3.716,3.788q10.968.011,21.937,0c2.883,0,3.838-.966,3.842-3.882q.012-9.759,0-19.518c0-3.529.012-3.643-3.43-4.021-2.216-.243-4.175-1.467-6.406-1.477-5.968-.025-11.937.02-17.9-.032-1.316-.011-1.806.4-1.783,1.752.068,3.977.024,7.957.024,11.936M30.683,22.743A13.5,13.5,0,0,0,17.011,36.279a13.623,13.623,0,1,0,27.245.044,13.38,13.38,0,0,0-13.572-13.58M17.542,9.1H29.305c3.1,0,3.107,0,2.96-3.075A4.354,4.354,0,0,0,32.1,4.918a2.675,2.675,0,0,0-2.689-2.126c-7.95-.006-15.9-.023-23.849.016A2.667,2.667,0,0,0,2.794,5.556c-.037.535.033,1.08-.029,1.61C2.6,8.609,3.129,9.161,4.65,9.13c4.3-.087,8.594-.031,12.891-.03M52.756,62.008c1.492-.027,2.189-1.224,3.059-2.137A1.871,1.871,0,0,0,55.8,57c-1.727-1.771-3.464-3.532-5.247-5.246a1.923,1.923,0,0,0-2.881.047c-.479.432-.919.905-1.377,1.36a1.991,1.991,0,0,0-.007,3.215c1.644,1.626,3.272,3.267,4.907,4.9a2.036,2.036,0,0,0,1.565.725" transform="translate(0 0)" fill="#fff" stroke="#fff" stroke-width="1"/>
        <path id="Trazado_842899" data-name="Trazado 842899" d="M86.249,21.124c0-.7.005-1.4,0-2.1a1.844,1.844,0,0,1,1.766-2.07c2.316-.4,3.507-1.869,3.373-3.97a3.749,3.749,0,0,0-7.473-.148c-.2.995-.444,1.9-1.67,1.644-1.15-.238-1.225-1.206-1.076-2.182a6.559,6.559,0,0,1,12.822-.8A6.36,6.36,0,0,1,90.715,19,2.512,2.512,0,0,0,89,21.964a9.745,9.745,0,0,1-.032,1.932,1.255,1.255,0,0,1-1.251,1.24,1.238,1.238,0,0,1-1.362-1.12c-.135-.952-.111-1.927-.155-2.891l.045,0" transform="translate(-29.411 -2.415)" fill="#fff" stroke="#fff" stroke-width="1"/>
        <path id="Trazado_842900" data-name="Trazado 842900" d="M20.728,90.626q4.511,0,9.021,0c.945,0,1.972.008,2,1.289.026,1.215-.915,1.465-1.9,1.467q-9.182.015-18.365,0c-.991,0-1.9-.288-1.837-1.516.062-1.166.991-1.237,1.9-1.237h9.182" transform="translate(-3.498 -32.861)" fill="#fff" stroke="#fff" stroke-width="1"/>
        <path id="Trazado_842901" data-name="Trazado 842901" d="M20.68,104.008q-4.187,0-8.373,0a7.436,7.436,0,0,1-1.442-.086,1.335,1.335,0,0,1-1.231-1.444c.047-.862.63-1.2,1.418-1.216,1.288-.024,2.576-.02,3.865-.02q7.407,0,14.814,0c.938,0,1.989-.012,2.011,1.27C31.764,103.831,30.719,104,29.7,104c-3.005.015-6.011.006-9.017.008" transform="translate(-3.492 -36.71)" fill="#fff" stroke="#fff" stroke-width="1"/>
        <path id="Trazado_842902" data-name="Trazado 842902" d="M22.745,114.534c-1.663,0-3.327.027-4.989-.012-.911-.022-1.8-.3-1.834-1.393-.031-1.109.856-1.437,1.767-1.447q5.149-.054,10.3,0c.916.01,1.794.353,1.753,1.459-.039,1.09-.934,1.363-1.845,1.383-1.716.038-3.434.011-5.15.01" transform="translate(-5.773 -40.487)" fill="#fff" stroke="#fff" stroke-width="1"/>
        <path id="Trazado_842903" data-name="Trazado 842903" d="M53.054,50.4a10.211,10.211,0,0,1-.831,4.246c-.345.876-.9,1.585-1.938,1.208S49.273,54.6,49.617,53.7A8.814,8.814,0,0,0,39.7,41.736,9.024,9.024,0,0,0,32.751,49.5a8.853,8.853,0,0,0,5.065,8.791,9.287,9.287,0,0,0,6.92.194,7.774,7.774,0,0,0,1.024-.474c.886-.444,1.818-.718,2.352.393s-.3,1.695-1.152,2.129a11.352,11.352,0,0,1-8.435.985,11.6,11.6,0,1,1,14.38-13.206,19.9,19.9,0,0,1,.149,2.087" transform="translate(-10.84 -14.034)" fill="#fff" stroke="#fff" stroke-width="1"/>
      </g>
    </g>
  </g>
</svg>
