<svg xmlns="http://www.w3.org/2000/svg" xmlns:xlink="http://www.w3.org/1999/xlink" width="116.999" height="115" viewBox="0 0 116.999 115">
  <defs>
    <clipPath id="clip-path">
      <rect id="Rect치ngulo_381082" data-name="Rect치ngulo 381082" width="70.521" height="71.257" transform="translate(0 0)" fill="none"/>
    </clipPath>
  </defs>
  <g id="Grupo_1083383" data-name="Grupo 1083383" transform="translate(-1162 -1036.392)">
    <g id="Grupo_1083009" data-name="Grupo 1083009" transform="translate(736.563 -6462.078)">
      <g id="Grupo_1015374" data-name="Grupo 1015374" transform="translate(425.927 7498.205)">
        <g id="Grupo_1015448" data-name="Grupo 1015448" transform="translate(0 0)">
          <g id="Grupo_1014855" data-name="Grupo 1014855" transform="translate(0 0)">
            <path id="Uni칩n_12" data-name="Uni칩n 12" d="M58.5,0C90.809,0,117,25.744,117,57.5S90.809,115,58.5,115,0,89.256,0,57.5,26.192,0,58.5,0Z" transform="translate(-0.49 0.265)" fill="#7e10b8"/>
            <path id="Trazado_608395" data-name="Trazado 608395" d="M49,0C76.062,0,98,22.162,98,49.5S76.062,99,49,99,0,76.838,0,49.5,21.938,0,49,0Z" transform="translate(9.51 7.265)" fill="#f2e6f8"/>
          </g>
        </g>
      </g>
    </g>
    <g id="Grupo_1083045" data-name="Grupo 1083045" transform="translate(1188.239 1055.527)">
      <g id="Grupo_1083044" data-name="Grupo 1083044" clip-path="url(#clip-path)">
        <path id="Trazado_842285" data-name="Trazado 842285" d="M55.6,63.629a1.127,1.127,0,0,1,.9.931,5.4,5.4,0,0,1-5.359,6.686q-22.872.024-45.744,0A5.147,5.147,0,0,1,.051,66.319c-.041-.46-.024-.926-.025-1.389C.025,48.986.048,33.042,0,17.1A7.288,7.288,0,0,1,2.37,11.43c3.248-3.106,6.393-6.321,9.549-9.523A6.071,6.071,0,0,1,16.5,0C27.952.031,39.4.012,50.847.018c3.565,0,5.642,2.031,5.662,5.564.024,4.31,0,8.62.01,12.931,0,.735-.039,1.413-.93,1.62-1.079-.094-1.15-.835-1.146-1.694q.025-6.456,0-12.912c-.008-2-1.075-3.291-2.92-3.364-1.982-.079-3.971.022-5.957.044a.509.509,0,0,0-.133-.037q-14.6-.027-29.2-.062c-.847,0-.969.385-.96,1.106q.048,4.1.007,8.2A3.592,3.592,0,0,1,11.375,15.3c-2.549.023-5.1.072-7.647-.023-1.229-.046-1.606.248-1.6,1.554.05,16.084.032,32.168.032,48.252,0,3.1.963,4.07,4.05,4.071q18.981,0,37.96,0c.461,0,.922-.045,1.383-.07,1.6.033,3.207.089,4.81.095,3.051.011,4.043-.948,4.089-4,.013-.851.206-1.445,1.151-1.542M13.225,4.245,4.314,13.153c2.23,0,4.724-.006,7.218,0A1.457,1.457,0,0,0,13.2,11.69c.064-2.564.022-5.13.022-7.445" fill="#0a0a0a"/>
        <path id="Trazado_842286" data-name="Trazado 842286" d="M55.587,22.825a5.04,5.04,0,0,1,3.232,1.71,2.206,2.206,0,0,0,2.379.689,4.034,4.034,0,0,1,5.078,3.421,3.041,3.041,0,0,0,1.9,2.6,4.011,4.011,0,0,1,1.8,5.657,2.9,2.9,0,0,0-.014,3.1,4.022,4.022,0,0,1-1.879,5.735,2.73,2.73,0,0,0-1.77,2.389A3.823,3.823,0,0,1,63.541,51.6c-.711.221-.774.6-.769,1.2.02,2.594,0,5.188.014,7.782a2.626,2.626,0,0,1-1.14,2.645,2.567,2.567,0,0,1-2.849-.352c-.931-.6-1.9-1.131-2.854-1.692-.433-.585-.821-.139-1.186.078-.956.565-1.885,1.175-2.842,1.739-1.963,1.157-3.635.234-3.667-2.056-.036-2.5-.1-5.011.026-7.509.062-1.259-.317-1.9-1.539-2.05a4.506,4.506,0,0,1-2.127-3.546,2.286,2.286,0,0,0-1.5-1.975c-2.569-1.244-3.3-3.55-1.958-6.12a2.554,2.554,0,0,0-.039-2.612,4.071,4.071,0,0,1,1.959-6.009A2.316,2.316,0,0,0,44.6,29.161a4.6,4.6,0,0,1,2.08-3.58,4.8,4.8,0,0,1,3.339-.321,1.881,1.881,0,0,0,2.1-.692,4.925,4.925,0,0,1,3.467-1.743m-2.255,3.613a5.139,5.139,0,0,1-4.079.837,1.956,1.956,0,0,0-2.534,1.863,4.462,4.462,0,0,1-2.849,3.919,1.928,1.928,0,0,0-.977,2.98,4.455,4.455,0,0,1,.017,4.844,1.962,1.962,0,0,0,.919,3.014,4.448,4.448,0,0,1,2.9,4.02,1.954,1.954,0,0,0,2.469,1.8,4.756,4.756,0,0,1,4.4,1.038c1.209,1.525,2.35,1.628,3.651.253a4.276,4.276,0,0,1,4.263-1.348c1.606.333,2.506-.339,2.739-2.036A4.417,4.417,0,0,1,66.886,44c1.6-.763,1.9-1.747,1.031-3.362a4.229,4.229,0,0,1-.051-4.23c.935-1.792.666-2.656-1.136-3.532a4.281,4.281,0,0,1-2.452-3.307c-.38-2.137-.9-2.533-3.1-2.229A4.2,4.2,0,0,1,57.486,26.2c-1.78-1.7-2.574-1.656-4.154.236m7.3,30.089c0-1.25.012-2.5-.008-3.749-.006-.346.185-.816-.206-1.011a1.187,1.187,0,0,0-1.27.329c-.25.2-.45.462-.681.688a4.14,4.14,0,0,1-5.967,0,4.884,4.884,0,0,0-1.035-.9c-.684-.354-1.2-.368-1.18.708.052,2.637.038,5.276.006,7.913-.011.931.3.9.948.481.889-.583,1.827-1.09,2.707-1.685a2.526,2.526,0,0,1,3.092.008c.768.513,1.562.99,2.363,1.451.339.2.662.675,1.081.416.323-.2.139-.681.144-1.035.017-1.2.006-2.407.006-3.61" fill="#080706"/>
        <path id="Trazado_842287" data-name="Trazado 842287" d="M55.587,22.825a4.921,4.921,0,0,0-3.466,1.743,1.88,1.88,0,0,1-2.1.692,4.8,4.8,0,0,0-3.34.321q-.013-5.31-.027-10.621c1.515-1.27.937-3.018,1.057-4.61a2.976,2.976,0,0,0-1.437-3.023c.379-.216.37-.584.415-.957a6.036,6.036,0,0,0-1.122-4.162c1.986-.023,3.975-.124,5.957-.045,1.844.074,2.911,1.368,2.919,3.364q.027,6.456,0,12.912c0,.859.066,1.6,1.146,1.694q0,1.346,0,2.692" fill="#e2f4fc"/>
        <path id="Trazado_842288" data-name="Trazado 842288" d="M46.735,51.385c1.222.154,1.6.791,1.54,2.05-.123,2.5-.063,5.006-.027,7.509.033,2.29,1.7,3.213,3.667,2.056.957-.564,1.886-1.174,2.842-1.739.366-.217.753-.662,1.187-.078-.7.733-.25,1.628-.344,2.447-.944.1-1.138.69-1.151,1.541-.046,3.054-1.038,4.012-4.088,4-1.6,0-3.207-.061-4.81-.095a5.791,5.791,0,0,0,1.164-3.73c-.034-4.654.008-9.308.02-13.962" fill="#cfdee6"/>
        <path id="Trazado_842289" data-name="Trazado 842289" d="M46.736,51.384c-.014,4.654-.055,9.309-.021,13.962a5.808,5.808,0,0,1-1.164,3.731c-.461.024-.922.07-1.383.07q-18.981.006-37.96,0c-3.087,0-4.049-.971-4.049-4.071,0-16.084.017-32.168-.033-48.252,0-1.305.373-1.6,1.6-1.554,2.545.095,5.1.046,7.646.023a3.594,3.594,0,0,0,3.913-3.877c.023-2.735.025-5.47-.008-8.2-.009-.722.112-1.11.96-1.107q14.6.054,29.194.062a.5.5,0,0,1,.133.038,6.039,6.039,0,0,1,1.122,4.162c-.043.373-.036.741-.415.957-2.174-.032-4.349-.087-6.523-.093q-7.781-.021-15.56,0c-1.486,0-2.457.723-2.544,1.995a30.035,30.035,0,0,0,0,4.025,2,2,0,0,0,1.98,1.971c1.115.034,2.593.752,3.208-1l2.663,0c.264.943.955,1.083,1.823,1.078q6.72-.037,13.442,0a5.588,5.588,0,0,0,1.889-.351q.013,5.312.028,10.622a4.592,4.592,0,0,0-2.08,3.58,2.317,2.317,0,0,1-1.536,1.962,4.071,4.071,0,0,0-1.96,6.008,2.554,2.554,0,0,1,.04,2.612c-1.345,2.571-.611,4.877,1.958,6.121a2.286,2.286,0,0,1,1.5,1.975,4.5,4.5,0,0,0,2.128,3.545M22.192,42.032h9.037c1.39,0,2.78-.005,4.17,0,.685,0,1.219-.236,1.276-.975.064-.847-.525-1.108-1.248-1.15-.37-.022-.742-.009-1.112-.009H10.682c-.465,0-.927-.009-1.391.005-.706.02-1.334.2-1.336,1.059,0,.843.567,1.083,1.309,1.069.278-.005.555,0,.833,0H22.192M22.2,34.72H33.879c.557,0,1.115.025,1.668-.016.675-.051,1.176-.36,1.131-1.125-.039-.667-.49-.957-1.119-.993-.323-.018-.649-.006-.973-.006H15.679q-3.2,0-6.4,0c-.733,0-1.318.214-1.328,1.057s.6,1.058,1.317,1.081c.278.009.556,0,.834,0H22.2m.136-7.383q6.385,0,12.771,0c.783,0,1.59-.025,1.55-1.085-.036-.964-.807-.96-1.532-.959q-12.771.006-25.541,0c-.757,0-1.61-.068-1.617,1.009s.834,1.034,1.6,1.033q6.384,0,12.77,0m-.143,21.99q6.454,0,12.91,0c.776,0,1.593-.01,1.554-1.076-.035-.959-.8-.97-1.528-.969q-12.77.006-25.541,0c-.758,0-1.607-.064-1.62,1.008s.829,1.036,1.593,1.036q6.316,0,12.632,0m-6.387,8.645q-3.12,0-6.239,0c-.768,0-1.59.025-1.605,1.06s.778,1.083,1.567,1.082q6.1-.01,12.2,0c.777,0,1.589-.011,1.608-1.045s-.8-1.094-1.57-1.1c-1.987,0-3.975,0-5.961,0" fill="#f2f9fd"/>
        <path id="Trazado_842290" data-name="Trazado 842290" d="M13.225,4.245c0,2.315.042,4.881-.022,7.445a1.457,1.457,0,0,1-1.671,1.465c-2.494-.008-4.988,0-7.218,0l8.911-8.908" fill="#dc7d82"/>
        <path id="Trazado_842291" data-name="Trazado 842291" d="M53.332,26.438c1.581-1.892,2.374-1.939,4.154-.237a4.2,4.2,0,0,0,3.693,1.136c2.2-.305,2.72.091,3.1,2.229a4.283,4.283,0,0,0,2.452,3.307c1.8.876,2.071,1.74,1.136,3.532a4.227,4.227,0,0,0,.051,4.229c.872,1.615.573,2.6-1.03,3.362a4.42,4.42,0,0,0-2.64,3.63c-.233,1.7-1.133,2.368-2.739,2.035a4.279,4.279,0,0,0-4.263,1.349c-1.3,1.374-2.442,1.272-3.651-.254a22.06,22.06,0,0,0,3.94-3.7,10.229,10.229,0,0,0,4.524-2.821A8.791,8.791,0,0,0,57.5,29.919a7.907,7.907,0,0,0-4.172-3.481" fill="#f9cb62"/>
        <path id="Trazado_842292" data-name="Trazado 842292" d="M57.534,47.058a22.029,22.029,0,0,1-3.94,3.7A4.754,4.754,0,0,0,49.2,49.719a1.954,1.954,0,0,1-2.47-1.8,4.447,4.447,0,0,0-2.9-4.02,1.962,1.962,0,0,1-.92-3.014,4.453,4.453,0,0,0-.017-4.844,1.928,1.928,0,0,1,.977-2.98,4.463,4.463,0,0,0,2.85-3.919,1.955,1.955,0,0,1,2.534-1.863,5.136,5.136,0,0,0,4.078-.837A7.916,7.916,0,0,1,57.5,29.919c-.644-.054-1.286-.15-1.93-.155a8.715,8.715,0,0,0-8.8,7.763,8.841,8.841,0,0,0,6.5,9.422,11.092,11.092,0,0,0,4.257.109" fill="#f9db7a"/>
        <path id="Trazado_842293" data-name="Trazado 842293" d="M60.635,56.527c0,1.2.011,2.407-.006,3.61-.006.354.179.836-.144,1.035-.419.259-.742-.22-1.081-.416-.8-.461-1.6-.938-2.363-1.451a2.526,2.526,0,0,0-3.092-.008c-.88.595-1.818,1.1-2.707,1.685-.644.421-.959.45-.948-.481.032-2.637.046-5.276-.006-7.913-.021-1.076.5-1.062,1.18-.708a4.884,4.884,0,0,1,1.035.9,4.14,4.14,0,0,0,5.967,0c.231-.226.431-.487.681-.688a1.187,1.187,0,0,1,1.27-.329c.391.2.2.665.206,1.011.02,1.25.008,2.5.008,3.749" fill="#e5ac4c"/>
        <path id="Trazado_842294" data-name="Trazado 842294" d="M26.836,14.231c-.614,1.747-2.092,1.029-3.206.995a2,2,0,0,1-1.982-1.972,30.2,30.2,0,0,1,0-4.025c.087-1.272,1.057-1.991,2.544-1.994q7.781-.02,15.56,0c2.174.006,4.349.061,6.524.093a2.98,2.98,0,0,1,1.437,3.024c-.12,1.591.458,3.339-1.058,4.609a5.578,5.578,0,0,1-1.889.35q-6.72-.029-13.442,0c-.868.005-1.559-.135-1.823-1.079.272-.945.977-1.082,1.841-1.076,3.888.023,7.776.01,11.665.01,2.6,0,2.545,0,2.608-2.6.025-1.064-.3-1.311-1.323-1.3-6.018.047-12.036.023-18.053.023-2.622,0-2.578,0-2.609,2.655-.012.961.251,1.354,1.236,1.238.872-.1,1.693,0,1.971,1.054" fill="#070708"/>
        <path id="Trazado_842295" data-name="Trazado 842295" d="M26.836,14.231c-.278-1.058-1.1-1.157-1.971-1.054-.985.116-1.248-.277-1.236-1.238.031-2.655-.013-2.655,2.609-2.655,6.017,0,12.035.024,18.053-.023,1.024-.008,1.348.239,1.323,1.3-.063,2.6,0,2.6-2.608,2.6-3.889,0-7.777.013-11.665-.01-.864-.006-1.569.131-1.841,1.076l-2.664,0" fill="#c4daf6"/>
        <path id="Trazado_842296" data-name="Trazado 842296" d="M22.192,42.032H10.1c-.278,0-.556-.005-.834,0-.742.014-1.311-.226-1.309-1.069,0-.861.631-1.039,1.336-1.059.464-.014.927-.005,1.391-.005H34.315c.37,0,.742-.013,1.112.009.723.043,1.312.3,1.248,1.15-.057.739-.591.978-1.276.975-1.39-.006-2.78,0-4.17,0H22.192" fill="#0f0f10"/>
        <path id="Trazado_842297" data-name="Trazado 842297" d="M22.2,34.721h-12.1c-.278,0-.557.006-.835,0-.714-.023-1.325-.227-1.316-1.081s.6-1.058,1.328-1.057q3.2.006,6.4,0H34.586c.324,0,.65-.012.973.006.629.035,1.08.326,1.119.993.045.765-.456,1.073-1.131,1.124-.553.042-1.111.017-1.667.017H22.2" fill="#0f0f10"/>
        <path id="Trazado_842298" data-name="Trazado 842298" d="M22.337,27.338q-6.385,0-12.771,0c-.764,0-1.605.038-1.6-1.033S8.828,25.3,9.584,25.3q12.771,0,25.542,0c.725,0,1.5,0,1.532.959.04,1.06-.767,1.086-1.55,1.085q-6.386-.006-12.771,0" fill="#010101"/>
        <path id="Trazado_842299" data-name="Trazado 842299" d="M22.194,49.327q-6.317,0-12.632,0c-.764,0-1.606.038-1.593-1.036s.862-1.008,1.62-1.008q12.771,0,25.542,0c.73,0,1.492.01,1.528.969.039,1.066-.778,1.077-1.555,1.076q-6.454,0-12.91,0" fill="#010101"/>
        <path id="Trazado_842300" data-name="Trazado 842300" d="M15.807,57.973c1.986,0,3.974,0,5.961,0,.775,0,1.59.056,1.57,1.1s-.831,1.046-1.608,1.045q-6.1-.008-12.2,0c-.789,0-1.582-.046-1.567-1.083s.837-1.058,1.605-1.059q3.12,0,6.239,0" fill="#0f0f10"/>
        <path id="Trazado_842301" data-name="Trazado 842301" d="M57.534,47.058a11.092,11.092,0,0,1-4.257-.109,8.842,8.842,0,0,1-6.5-9.422,8.717,8.717,0,0,1,8.8-7.764c.644.006,1.287.1,1.93.156a8.791,8.791,0,0,1,4.554,14.318,10.223,10.223,0,0,1-4.524,2.821m2.534-3.9-.011.015a6.4,6.4,0,0,0-.3-9.706,6.506,6.506,0,0,0-9.122.486,6.651,6.651,0,0,0,.117,9.183,6.515,6.515,0,0,0,9.021.321l.3-.3" fill="#080703"/>
        <path id="Trazado_842302" data-name="Trazado 842302" d="M59.771,43.457a6.515,6.515,0,0,1-9.021-.32,6.653,6.653,0,0,1-.118-9.184,6.507,6.507,0,0,1,9.123-.486,18.592,18.592,0,0,1,.852,5.93c-.1,1.275-.671,2.475-.551,3.777l.012-.016-.3.3" fill="#e5ac4c"/>
        <path id="Trazado_842303" data-name="Trazado 842303" d="M60.056,43.174c-.12-1.3.453-2.5.55-3.777a18.581,18.581,0,0,0-.851-5.929,6.4,6.4,0,0,1,.3,9.706" fill="#dd9d2d"/>
        <path id="Trazado_842304" data-name="Trazado 842304" d="M59.771,43.457l.3-.3-.3.3" fill="#dd9d2d"/>
      </g>
    </g>
  </g>
</svg>
