<svg xmlns="http://www.w3.org/2000/svg" xmlns:xlink="http://www.w3.org/1999/xlink" width="116.999" height="115" viewBox="0 0 116.999 115">
  <defs>
    <clipPath id="clip-path">
      <rect id="Rect치ngulo_381080" data-name="Rect치ngulo 381080" width="76.903" height="76.864" fill="none"/>
    </clipPath>
  </defs>
  <g id="Grupo_1083381" data-name="Grupo 1083381" transform="translate(-322 -1036.392)">
    <g id="Grupo_1071489" data-name="Grupo 1071489" transform="translate(-103.438 -6462.078)">
      <g id="Grupo_1015374" data-name="Grupo 1015374" transform="translate(425.927 7498.205)">
        <g id="Grupo_1015448" data-name="Grupo 1015448" transform="translate(0 0)">
          <g id="Grupo_1014855" data-name="Grupo 1014855" transform="translate(0 0)">
            <path id="Uni칩n_12" data-name="Uni칩n 12" d="M58.5,0C90.809,0,117,25.744,117,57.5S90.809,115,58.5,115,0,89.256,0,57.5,26.192,0,58.5,0Z" transform="translate(-0.49 0.265)" fill="#7e10b8"/>
            <path id="Trazado_608395" data-name="Trazado 608395" d="M49,0C76.062,0,98,22.162,98,49.5S76.062,99,49,99,0,76.838,0,49.5,21.938,0,49,0Z" transform="translate(9.51 7.265)" fill="#f2e6f8"/>
          </g>
        </g>
      </g>
    </g>
    <g id="Grupo_1083041" data-name="Grupo 1083041" transform="translate(344.548 1048.956)">
      <g id="Grupo_1083040" data-name="Grupo 1083040" clip-path="url(#clip-path)">
        <path id="Trazado_842228" data-name="Trazado 842228" d="M5.4,57.479c-1.084-.76-2.065-1.368-2.954-2.088C.7,53.977.888,51.9,2.886,50.912a8.338,8.338,0,0,0,4.648-6.885A22.885,22.885,0,0,0,7.7,41.033c.017-6.506-.068-13.013.031-19.517a21.737,21.737,0,0,1,41.977-7.707c.405,1.029.655,1.183,1.716.687A17.918,17.918,0,1,1,64.391,47.827c-.55.178-1.551-.027-1.561.839-.012,1.051-.518,2.255.326,3.155a3.475,3.475,0,0,1,.895,2.6c-.012,5.655.013,11.31-.013,16.965-.017,3.723-2.388,5.753-6.115,5.379-.827-.083-1.676.094-2.515.094q-25.9.01-51.8,0c-2.874,0-3.621-.744-3.6-3.656a56.435,56.435,0,0,1,.146-6A15,15,0,0,1,5.4,57.479m24.1-7.606a5.872,5.872,0,0,0,3.875-1.367c1.685-1.335,3.369-2.671,5.032-4.033a14.354,14.354,0,0,0,3.839-5.111,2.447,2.447,0,0,0,.026-2.122,16.962,16.962,0,0,1,.013-13,1.782,1.782,0,0,0-.522-2.329c-2.959-2.674-6.614-3.83-10.354-4.8-.807-.209-1.307.273-1.665.958a11.761,11.761,0,0,1-2.457,3.195c-3.424,3.176-7.6,4.691-12.111,5.456A1.929,1.929,0,0,1,12.74,25.1a3.1,3.1,0,0,0-.615-1.349c-.332-.385-.686-.778-1.266-.6-.6.187-.62.706-.618,1.224a17.049,17.049,0,0,0,.279,4.179c.341,1.342.854,2.738,2.283,3.123,1.944.524,2.562,1.758,2.76,3.578A13.884,13.884,0,0,0,20.7,44.6c1.606,1.351,3.262,2.643,4.913,3.941A5.8,5.8,0,0,0,29.5,49.873M30.588,2.63c-7.527-.026-12.752,2.72-16.7,7.963a18.455,18.455,0,0,0-3.311,7.944c-.106.583-.618,1.656.552,1.842a5,5,0,0,1,3.815,3.03c.256.517.565.693,1.041.573,4.632-1.171,9-2.767,11.554-7.256.962-1.692,2.605-2.652,4.188-2.252a30.948,30.948,0,0,1,9.42,3.726c1.033.669,2.1,2.034,3.016,1.927.954-.111,1.672-1.707,2.629-2.487a2.092,2.092,0,0,0,.61-2.752C44.8,8,37.5,2.356,30.588,2.63M58.826,45.944c8.23.476,15.406-6.92,15.415-14.982A15.321,15.321,0,1,0,43.6,30.78c-.048,8.478,6.966,15.463,15.224,15.164M12.476,74.169c2.9,0,5.8-.014,8.693.008.888.007,1.2-.252.827-1.153-.537-1.287-1.014-2.6-1.508-3.9-1.371-3.627-1.369-3.628-5.068-3.679-2.659-.037-3.8-1.737-2.8-4.194.506-1.247,1.019-2.491,1.563-3.721.342-.773.224-1.209-.7-1.015a13.219,13.219,0,0,0-9.264,6.436c-1.83,3.147-1.457,6.538-1.539,9.912-.027,1.1.409,1.345,1.407,1.327,2.8-.051,5.6-.018,8.393-.019m33.011,0c2.1,0,4.2.008,6.3,0,.744,0,1.686.207,2.18-.16.543-.4-.307-1.23-.213-1.924a6.7,6.7,0,0,0,0-.9c0-2.851-.029-5.7.017-8.554a2.878,2.878,0,0,0-.864-2.117,13.553,13.553,0,0,0-7.394-3.974c-.859-.2-1.159.033-.788.891.576,1.328,1.179,2.644,1.719,3.986.884,2.2-.218,3.9-2.592,4.018a27.153,27.153,0,0,1-3-.006,1.237,1.237,0,0,0-1.422.974c-.788,2.208-1.623,4.4-2.475,6.584-.358.919-.145,1.226.871,1.2,2.55-.057,5.1-.019,7.653-.019M3.966,53.339c.5.361.875.6,1.219.882,1.525,1.231,3.068,1.657,4.917.545a7.974,7.974,0,0,1,2.865-.781c1.984-.312,4.031-.176,5.888-1.369,1.885-1.211,2.393-4.272.591-5.676a16.84,16.84,0,0,1-6.382-10.814,2.808,2.808,0,0,0-1.79-2.354c-.991-.494-1.066-.228-1.059.654.023,2.6,0,5.2.009,7.8.021,4.818-1.8,8.614-6.259,11.114M29.5,71.007c.079-.071.177-.116.2-.186q2.993-8.934,5.966-17.874A6.457,6.457,0,0,0,35.731,50c-4.245,3.371-8.353,3.355-12.527-.007a7.35,7.35,0,0,0,.257,3.544c1.82,5.383,3.6,10.781,5.413,16.165.15.445.142,1,.623,1.307m26.95-7.7c0,2.8-.041,5.6.014,8.394a2.51,2.51,0,0,0,3.851,2.158,2.921,2.921,0,0,0,1.241-2.725q-.01-6.82,0-13.641c0-3.882,0-3.845-3.884-3.767-1.028.02-1.254.4-1.238,1.337.047,2.747.017,5.5.019,8.244M44.285,41.217A18.888,18.888,0,0,1,39.057,47.3c-.765.572-1,4.023-.269,4.435,1.455.818,2.835,1.948,4.6,1.989a13.968,13.968,0,0,1,4.255.643c.87.3,1.03,0,1.021-.791-.027-2.443-.013-4.886-.008-7.33a1.268,1.268,0,0,0-.5-1.169,23.3,23.3,0,0,1-3.876-3.862M14.97,62.291c0,.606.438.457.738.462,1,.018,2,.027,3,0a2.768,2.768,0,0,1,2.961,2.024c.361,1.035.771,2.053,1.155,3.081.716,1.915,1.421,3.833,2.144,5.745.472,1.249,1.579.745,2.317.6s.081-.849-.038-1.213q-2.862-8.74-5.828-17.447c-.136-.4-.021-1.329-.885-.936-1.505.685-3.2,1.161-3.67,3.149a16.9,16.9,0,0,1-1.079,2.625c-.273.642-.549,1.282-.815,1.9m29.2.469a43.936,43.936,0,0,1-1.827-4.424,5.549,5.549,0,0,0-3.6-3.643c-.707-.3-.923-.169-1.133.493-.648,2.046-1.336,4.079-2.014,6.116-1.311,3.93-2.637,7.855-3.919,11.794-.109.336-.622.8.03,1.153a1.832,1.832,0,0,0,2.4-.975c1.057-2.8,2.119-5.6,3.143-8.415a2.87,2.87,0,0,1,3.067-2.107c1.233.039,2.468.008,3.86.008m9.629-5.3c0-.728-.015-1.326,0-1.922.032-1.035-.331-2.252.444-3.032,1.05-1.058.806-2.259.843-3.47.013-.427-.056-.792-.538-.941-1.035-.319-2.068-.648-3.264-1.024a60.984,60.984,0,0,1-.048,6.352c-.221,2.069.609,3.246,2.561,4.037m6.5-7.634c.26-1.254-.567-1.146-1.42-1.216-1.19-.1-1.22.54-1.245,1.44-.028.978.3,1.279,1.275,1.285,1.123.006,1.577-.4,1.391-1.509" transform="translate(0 0)"/>
        <path id="Trazado_842229" data-name="Trazado 842229" d="M53.337,89.609a5.8,5.8,0,0,1-3.888-1.327c-1.651-1.3-3.307-2.59-4.913-3.941A13.883,13.883,0,0,1,39.4,74.993c-.2-1.82-.816-3.054-2.76-3.578-1.428-.385-1.942-1.781-2.283-3.123a17.064,17.064,0,0,1-.279-4.179c0-.518.018-1.037.618-1.224.579-.18.934.213,1.266.6a3.1,3.1,0,0,1,.616,1.349,1.928,1.928,0,0,0,2.438,1.626c4.508-.765,8.687-2.281,12.111-5.456a11.767,11.767,0,0,0,2.457-3.195c.358-.686.858-1.167,1.665-.958,3.74.968,7.395,2.125,10.354,4.8a1.781,1.781,0,0,1,.522,2.329,16.961,16.961,0,0,0-.013,13,2.449,2.449,0,0,1-.026,2.122,14.351,14.351,0,0,1-3.839,5.111c-1.663,1.362-3.347,2.7-5.032,4.033a5.865,5.865,0,0,1-3.874,1.366" transform="translate(-23.835 -39.737)" fill="#ecc5a3"/>
        <path id="Trazado_842230" data-name="Trazado 842230" d="M54.741,8.733c6.915-.274,14.215,5.37,16.813,12.259a2.091,2.091,0,0,1-.61,2.752c-.957.781-1.675,2.376-2.629,2.487-.917.107-1.984-1.258-3.016-1.927a30.945,30.945,0,0,0-9.42-3.726c-1.582-.4-3.225.56-4.188,2.252-2.554,4.489-6.922,6.085-11.554,7.256-.476.12-.785-.056-1.041-.573a5,5,0,0,0-3.815-3.03c-1.17-.186-.657-1.259-.552-1.842A18.462,18.462,0,0,1,38.042,16.7c3.947-5.243,9.173-7.989,16.7-7.963" transform="translate(-24.154 -6.102)" fill="#7f6755"/>
        <path id="Trazado_842231" data-name="Trazado 842231" d="M160.34,81.767c-8.258.3-15.272-6.687-15.224-15.164a15.321,15.321,0,1,1,30.639.182c-.009,8.062-7.185,15.458-15.415,14.982m-5.1-25.541c-1.189-1.158-2.095-.3-2.963.458a12.853,12.853,0,0,0,10.291,22.522c7.551-1.327,11.828-7.969,10.406-15.5-1.035-5.482-6.678-10.063-12.135-9.9-.934.029-1.541.325-1.713,1.287a12.8,12.8,0,0,0-3.885,1.133" transform="translate(-101.514 -35.822)" fill="#5a5a5a"/>
        <path id="Trazado_842232" data-name="Trazado 842232" d="M18.7,205.636c-2.8,0-5.6-.033-8.393.018-1,.018-1.434-.226-1.408-1.327.082-3.374-.29-6.765,1.54-9.912a13.218,13.218,0,0,1,9.264-6.436c.926-.194,1.045.242.7,1.015-.545,1.23-1.057,2.475-1.564,3.721-1,2.457.144,4.157,2.8,4.194,3.7.051,3.7.052,5.068,3.679.493,1.3.97,2.617,1.508,3.9.376.9.062,1.16-.827,1.153-2.9-.023-5.8-.008-8.693-.008" transform="translate(-6.225 -131.467)" fill="#5a5a5a"/>
        <path id="Trazado_842233" data-name="Trazado 842233" d="M131.166,205.644c-2.551,0-5.1-.038-7.653.019-1.016.023-1.229-.285-.871-1.2.852-2.184,1.686-4.376,2.475-6.584a1.237,1.237,0,0,1,1.422-.974,27.155,27.155,0,0,0,3,.006c2.374-.114,3.476-1.821,2.592-4.018-.54-1.342-1.144-2.659-1.719-3.987-.372-.859-.072-1.092.788-.891a13.555,13.555,0,0,1,7.394,3.974,2.879,2.879,0,0,1,.864,2.118c-.046,2.85-.017,5.7-.017,8.554a6.707,6.707,0,0,1,0,.9c-.094.694.756,1.52.213,1.924-.494.368-1.435.156-2.18.16-2.1.012-4.2,0-6.3,0" transform="translate(-85.68 -131.474)" fill="#5a5a5a"/>
        <path id="Trazado_842234" data-name="Trazado 842234" d="M13.2,131.4c4.462-2.5,6.28-6.3,6.259-11.114-.011-2.6.014-5.2-.009-7.8-.008-.882.067-1.148,1.058-.654a2.807,2.807,0,0,1,1.79,2.354A16.841,16.841,0,0,0,28.681,125c1.8,1.4,1.294,4.465-.591,5.676-1.857,1.193-3.9,1.057-5.888,1.369a7.98,7.98,0,0,0-2.865.781c-1.849,1.112-3.393.686-4.917-.545-.345-.278-.718-.521-1.219-.882" transform="translate(-9.234 -78.059)" fill="#7f6755"/>
        <path id="Trazado_842235" data-name="Trazado 842235" d="M83.284,187.4c-.481-.308-.473-.862-.623-1.307-1.816-5.384-3.593-10.782-5.413-16.165a7.353,7.353,0,0,1-.257-3.544c4.174,3.362,8.282,3.378,12.527.007a6.453,6.453,0,0,1-.067,2.948q-2.962,8.944-5.966,17.874c-.023.07-.122.116-.2.186" transform="translate(-53.788 -116.391)" fill="#dfb591"/>
        <path id="Trazado_842236" data-name="Trazado 842236" d="M187.821,188.356c0-2.748.029-5.5-.018-8.244-.016-.932.21-1.316,1.238-1.337,3.885-.077,3.884-.114,3.884,3.767q0,6.82,0,13.641a2.921,2.921,0,0,1-1.241,2.724,2.51,2.51,0,0,1-3.851-2.158c-.055-2.8-.014-5.6-.015-8.394" transform="translate(-131.375 -125.047)" fill="#8a624b"/>
        <path id="Trazado_842237" data-name="Trazado 842237" d="M133.558,137.179a23.3,23.3,0,0,0,3.876,3.862,1.268,1.268,0,0,1,.5,1.169c-.005,2.443-.02,4.887.008,7.33.009.788-.151,1.089-1.021.791a13.968,13.968,0,0,0-4.255-.643c-1.767-.041-3.147-1.171-4.6-1.989-.734-.413-.5-3.863.269-4.435a18.892,18.892,0,0,0,5.228-6.086" transform="translate(-89.274 -95.962)" fill="#7f6755"/>
        <path id="Trazado_842238" data-name="Trazado 842238" d="M49.822,189.224c.266-.62.542-1.26.814-1.9a16.893,16.893,0,0,0,1.08-2.625c.466-1.988,2.165-2.464,3.67-3.149.864-.393.749.534.885.936q2.955,8.71,5.828,17.447c.119.363.763,1.075.038,1.212s-1.846.644-2.318-.6c-.722-1.912-1.428-3.831-2.144-5.745-.384-1.027-.795-2.045-1.155-3.081a2.768,2.768,0,0,0-2.961-2.024c-1,.025-2,.015-3,0-.3-.005-.74.144-.738-.462" transform="translate(-34.852 -126.933)" fill="#ecedef"/>
        <path id="Trazado_842239" data-name="Trazado 842239" d="M117.208,189.745c-1.392,0-2.627.031-3.86-.008a2.871,2.871,0,0,0-3.067,2.107c-1.023,2.814-2.085,5.614-3.143,8.415a1.832,1.832,0,0,1-2.4.975c-.652-.351-.139-.817-.03-1.153,1.281-3.939,2.608-7.864,3.919-11.794.679-2.036,1.366-4.069,2.014-6.115.21-.663.426-.79,1.133-.493a5.548,5.548,0,0,1,3.6,3.643,43.861,43.861,0,0,0,1.827,4.424" transform="translate(-73.043 -126.985)" fill="#eceef0"/>
        <path id="Trazado_842240" data-name="Trazado 842240" d="M173,167.065c-1.952-.791-2.781-1.968-2.561-4.037a60.986,60.986,0,0,0,.048-6.352c1.2.376,2.229.7,3.265,1.024.482.148.551.514.538.941-.037,1.211.207,2.413-.842,3.47-.775.781-.412,2-.444,3.032-.018.6,0,1.193,0,1.922" transform="translate(-119.202 -109.601)" fill="#f4f6f7"/>
        <path id="Trazado_842241" data-name="Trazado 842241" d="M194.468,162.991c.187,1.111-.268,1.516-1.391,1.509-.976-.005-1.3-.307-1.275-1.285.026-.9.055-1.538,1.245-1.44.852.07,1.679-.038,1.42,1.216" transform="translate(-134.173 -113.161)" fill="#777c87"/>
        <path id="Trazado_842242" data-name="Trazado 842242" d="M167.082,65.271a12.814,12.814,0,0,1,3.886-1.133,1.511,1.511,0,0,0,1.65,1.208,10.8,10.8,0,0,1,1.778.237,10.249,10.249,0,0,1,8.031,11.607,10.23,10.23,0,0,1-19.86,1.587,10.07,10.07,0,0,1,3.6-11.342,2.01,2.01,0,0,0,.917-2.164m2.7,15.389a1.557,1.557,0,0,0,1.163-.59q3.544-3.546,7.091-7.088c.644-.641.946-1.353.236-2.084-.737-.759-1.448-.378-2.073.243q-1.963,1.952-3.917,3.914c-1.128,1.129-2.259,2.255-3.376,3.4a1.272,1.272,0,0,0-.322,1.5,1.153,1.153,0,0,0,1.2.707m1.205-10.268a1.253,1.253,0,0,0-1.22-1.169c-.816-.069-2.657,1.726-2.6,2.546A1.269,1.269,0,0,0,168.4,73.03c.823.08,2.6-1.7,2.592-2.639" transform="translate(-113.353 -44.867)" fill="#50bde5"/>
        <path id="Trazado_842243" data-name="Trazado 842243" d="M161.308,62.265a2.011,2.011,0,0,1-.917,2.165,10.069,10.069,0,0,0-3.6,11.342,10.243,10.243,0,1,0,11.829-13.195,10.832,10.832,0,0,0-1.778-.237,1.511,1.511,0,0,1-1.65-1.208c.172-.961.779-1.257,1.713-1.286,5.457-.168,11.1,4.414,12.135,9.9,1.423,7.536-2.854,14.177-10.406,15.5a12.853,12.853,0,0,1-10.291-22.522c.869-.754,1.775-1.616,2.963-.458" transform="translate(-107.579 -41.861)" fill="#38393a"/>
        <path id="Trazado_842244" data-name="Trazado 842244" d="M184.748,95.417a1.157,1.157,0,0,1-1.2-.709,1.272,1.272,0,0,1,.322-1.5c1.116-1.141,2.248-2.266,3.376-3.4q1.956-1.959,3.917-3.913c.625-.621,1.336-1,2.073-.243.71.731.408,1.443-.236,2.084q-3.552,3.538-7.091,7.088a1.566,1.566,0,0,1-1.162.593" transform="translate(-128.315 -59.623)" fill="#383c3d"/>
        <path id="Trazado_842245" data-name="Trazado 842245" d="M182.94,82.225c.007.936-1.769,2.718-2.592,2.639a1.269,1.269,0,0,1-1.226-1.262c-.059-.82,1.781-2.616,2.6-2.546a1.253,1.253,0,0,1,1.22,1.169" transform="translate(-125.302 -56.7)" fill="#383c3d"/>
      </g>
    </g>
  </g>
</svg>
