<svg xmlns="http://www.w3.org/2000/svg" width="56.89" height="56.89" viewBox="0 0 56.89 56.89">
  <path id="Vector_3_" data-name="Vector (3)" d="M19.011,1.427,10.4,6.267l3.468,6.168a21.248,21.248,0,0,0-4.24,5.528L2.667,16.012,0,25.521l7.111,1.994a21.231,21.231,0,0,0,.9,6.663l-6.587,3.7,4.84,8.61,6.707-3.766A21.329,21.329,0,0,0,18.123,46.7l-2.107,7.518,9.509,2.667,2.111-7.533a21.239,21.239,0,0,0,6.408-.724l3.839,6.831,8.61-4.84-3.774-6.714a21.168,21.168,0,0,0,4.156-5.091l7.347,2.06,2.667-9.509-7.125-2a21.183,21.183,0,0,0-.655-6.787l6.358-3.574-4.84-8.61-6.179,3.472A21.343,21.343,0,0,0,38.982,9.44l1.9-6.772L31.373,0,29.495,6.7a21.167,21.167,0,0,0-7.045.841l-3.435-6.11ZM37.956,21.842A11.328,11.328,0,1,1,23.563,17.8a11.33,11.33,0,0,1,14.393,4.039Z" transform="translate(0 56.89) rotate(-90)" fill="#304c8e"/>
</svg>
