<svg xmlns="http://www.w3.org/2000/svg" xmlns:xlink="http://www.w3.org/1999/xlink" width="125.072" height="125.072" viewBox="0 0 125.072 125.072">
  <defs>
    <clipPath id="clip-path">
      <rect id="Rectángulo_381148" data-name="Rectángulo 381148" width="94.311" height="79.644" fill="none"/>
    </clipPath>
  </defs>
  <g id="Grupo_1083384" data-name="Grupo 1083384" transform="translate(-391 -4872.886)">
    <g id="Grupo_1013381" data-name="Grupo 1013381" transform="translate(5 2726.886)">
      <path id="Trazado_608385" data-name="Trazado 608385" d="M62.5,0A62.5,62.5,0,1,1,0,62.5,62.5,62.5,0,0,1,62.5,0Z" transform="translate(386 2146)" fill="#304c8e"/>
      <g id="Group_43_" data-name="Group (43)" transform="translate(479 2239)">
        <path id="Trazado_598926" data-name="Trazado 598926" d="M36.549,16.055,16.055,36.549a15.864,15.864,0,0,0,.655,1.582l21.422-21.42a15.863,15.863,0,0,0-1.582-.655Z" transform="translate(-15.17 -15.17)" fill="#4ca220"/>
        <path id="Trazado_598927" data-name="Trazado 598927" d="M18.367.8.8,18.367a16.022,16.022,0,0,0,.26,1.7L20.065,1.058A16.022,16.022,0,0,0,18.367.8Z" transform="translate(-0.754 -0.754)" fill="#4ca220"/>
        <path id="Trazado_598928" data-name="Trazado 598928" d="M299.7,283.668c0-.137-.008-.274-.01-.41l-16.454,16.453c.137,0,.273.01.41.01a16.091,16.091,0,0,0,1.678-.088l14.289-14.289a16.09,16.09,0,0,0,.088-1.678Z" transform="translate(-267.627 -267.648)" fill="#4ca220"/>
        <path id="Trazado_598929" data-name="Trazado 598929" d="M68.634,46.122q-.611-.481-1.267-.9L45.2,67.389q.42.656.9,1.267Z" transform="translate(-42.708 -42.73)" fill="#4ca220"/>
        <path id="Trazado_598930" data-name="Trazado 598930" d="M0,15.009,15.009,0c-.434.026-.863.07-1.287.131L.131,13.722C.07,14.145.026,14.575,0,15.009Z" fill="#4ca220"/>
        <path id="Trazado_598931" data-name="Trazado 598931" d="M106.76,84.058l-22.7,22.7a16.114,16.114,0,0,0,1.365,1.222l22.559-22.559A16.123,16.123,0,0,0,106.76,84.058Z" transform="translate(-79.426 -79.426)" fill="#4ca220"/>
        <path id="Trazado_598932" data-name="Trazado 598932" d="M159.927,138.548a16.093,16.093,0,0,0-.877-1.6l-22.108,22.108a15.959,15.959,0,0,0,1.6.877Z" transform="translate(-129.396 -129.396)" fill="#4ca220"/>
        <path id="Trazado_598933" data-name="Trazado 598933" d="M28.816,19.794a16.1,16.1,0,0,0-9.022,9.022Z" transform="translate(-18.704 -18.704)" fill="#4ca220"/>
        <path id="Trazado_598934" data-name="Trazado 598934" d="M382.436,392.617a16.085,16.085,0,0,0,10.18-10.18Z" transform="translate(-361.361 -361.361)" fill="#4ca220"/>
        <path id="Trazado_598935" data-name="Trazado 598935" d="M220.714,200.477l-20.237,20.237a15.962,15.962,0,0,0,2.154.537l18.619-18.619A16.154,16.154,0,0,0,220.714,200.477Z" transform="translate(-189.429 -189.429)" fill="#4ca220"/>
      </g>
    </g>
    <g id="Grupo_1083198" data-name="Grupo 1083198" transform="translate(406.38 4895.6)">
      <g id="Grupo_1083197" data-name="Grupo 1083197" transform="translate(0 0)" clip-path="url(#clip-path)">
        <path id="Trazado_842880" data-name="Trazado 842880" d="M51.651,63.7c0,4.349.005,8.7-.006,13.047a7.942,7.942,0,0,1-.159,1.818,1.351,1.351,0,0,1-1.329,1.075,1.384,1.384,0,0,1-1.509-1.082,6.41,6.41,0,0,1-.156-1.634c-.029-3.411.317-3.1-3.226-3.1q-20.856-.009-41.713,0c-.613,0-1.225,0-1.837-.017-.885-.025-1.585-.353-1.7-1.321a1.4,1.4,0,0,1,1.3-1.7c1.631-.1,1.581-1.118,1.575-2.287q-.038-6.982,0-13.965a13.223,13.223,0,0,1,9.862-12.862c2.076-.574,2.709-2.454,1.267-4.112A18.639,18.639,0,0,1,10.9,32.612a3.72,3.72,0,0,0-.937-1.334C6.363,28.19,5.311,24.2,5.9,19.682a3.467,3.467,0,0,0-.844-2.828A10.38,10.38,0,0,1,20.585,3.114a3.767,3.767,0,0,0,2.826,1.37c8.457.092,14.6,5.511,16.107,13.969.732,4.122.275,7.922-2.425,11.275a1.645,1.645,0,0,0-.363.633,14.5,14.5,0,0,1-6.538,9.386c-.967.639-.794,1.462.375,1.865a8.87,8.87,0,0,1,6.221,7.077c.208,1.066.729,1.348,1.75,1.385,6.42.236,7.23,1.1,7.23,7.5,0,3.614-.022,7.228.014,10.841.009.94-.46,2.214,1.3,2.244,1.723.03,1.393-1.186,1.4-2.171.016-6.125.044-12.25,0-18.375a7.8,7.8,0,0,1,4.821-7.741c2.436-1.149,4.82-2.41,7.236-3.6.7-.346,1.229-.734,1.191-1.645-.036-.848-.616-1.1-1.224-1.422A13.331,13.331,0,0,1,52.9,23.06c.009-1.592-.018-3.185.006-4.778.029-1.888.161-3.663-1.772-5.009C49.8,12.348,49.8,10.6,50.051,9.024a8.858,8.858,0,0,1,8.7-7.5c4.165-.043,8.331-.052,12.5,0A11.7,11.7,0,0,1,82.522,12.683c.079,3.673.01,7.35.023,11.025a6.876,6.876,0,0,1-3.056,5.958,2.854,2.854,0,0,0-1.375,2.729c.13,5.856-.869,4.8,4.409,7.043,5.564,2.37,8.309,5.975,7.391,12.086-.1.658.027,1.348-.021,2.018-.126,1.778.1,3.2,1.873,4.344a5.994,5.994,0,0,1,2.541,5.256q.005,7.166,0,14.333c0,1.041-.113,2.1-1.432,2.143-1.373.042-1.7-1.006-1.7-2.139-.021-4.471,0-8.943-.023-13.414-.016-3.272-1.693-4.939-5.006-4.949q-9.556-.029-19.111,0c-3.375.014-5.059,1.724-5.079,5.124-.025,4.349-.007,8.7-.01,13.047,0,1.079-.024,2.269-1.449,2.322-1.5.056-1.707-1.119-1.707-2.3-.006-6.371-.109-12.743.039-19.11.068-2.965-.794-5.3-3.231-6.957-1.223-.834-2.262-2.925-3.574-2.33-1.045.474-.325,2.7-.352,4.135-.066,3.552-.021,7.1-.022,10.657M27.993,70.659c4.041,0,8.081.013,12.121-.005,2.074-.01,2.464-.4,2.477-2.485.024-3.857.011-7.713.008-11.57,0-3.167-.2-3.373-3.293-3.374q-11.3,0-22.59,0c-2.809,0-2.813,0-3.365,2.755-.189.946-.667,1.63-1.7,1.575-.954-.051-1.3-.734-1.4-1.63-.407-3.5,1.583-5.833,5.122-5.856,5.142-.034,10.285.012,15.427-.03.931-.008,2.291.515,2.7-.435.461-1.067-.413-2.193-1.117-3.128A5.265,5.265,0,0,0,30.5,45.032a1.553,1.553,0,0,0-2.314.516c-3.341,4.414-9,4.389-12.261-.047a1.764,1.764,0,0,0-2.139-.78c-3.936.861-7.472,4.54-7.648,8.632C5.913,58.67,6.049,64,6.052,69.328c0,1.852,1.45,1.222,2.428,1.32,1.015.1,1.811-.068,1.771-1.425-.063-2.141-.008-4.285-.016-6.427,0-1.112.135-2.272,1.5-2.294,1.477-.023,1.644,1.2,1.65,2.369.01,1.836.055,3.675-.005,5.509-.053,1.65.665,2.314,2.3,2.294,4.1-.051,8.2-.016,12.305-.015M65.01,4.675c-2.021,0-4.043-.033-6.064.008a5.5,5.5,0,0,0-5.5,4.043c-.709,2.147-.13,3,2.1,3.081,4.138.153,6.378,2.469,6.406,6.627.005.735,0,1.471,0,2.206,0,5.065,1.729,6.946,6.789,7.354,1.015.082,1.891.369,1.933,1.517s-.8,1.524-1.821,1.633A9.136,9.136,0,0,1,58.8,22.449c-.059-1.468-.031-2.94-.023-4.41a2.934,2.934,0,0,0-.912-2.316c-.361-.33-.775-.7-1.294-.565-.641.162-.5.771-.5,1.232-.01,2.634-.162,5.282.049,7.9a9.6,9.6,0,0,0,6.311,8.729c1.849.72,2.731,1.675,2.466,3.646-.156,1.157.349,1.7,1.564,1.637,1.283-.062,2.573.029,3.858-.021,1.517-.059,3.486.657,4.428-.3.925-.943.141-2.893.2-4.4a3.347,3.347,0,0,0-.5-2.611c-1.4-1.642-1.058-2.515,1.021-2.989,2.674-.61,3.885-2.045,3.91-4.752q.046-4.869,0-9.739a8.56,8.56,0,0,0-8.851-8.807c-1.838-.025-3.676,0-5.513,0M61.935,57.257a11.291,11.291,0,0,1,6.222-1.328c5.511.039,11.025-.04,16.534.046,1.637.025,2.173-.53,2.079-2.122-.112-1.892-.057-3.8-.024-5.694A4.412,4.412,0,0,0,84.239,44c-2.958-1.68-5.953-3.043-9.535-2.586a25.675,25.675,0,0,1-5.687.012,20.179,20.179,0,0,0-12.929,3.042c-2.1,1.292-2.214,1.167-.351,2.686,3.162,2.577,6.457,5.05,6.2,10.1M33.762,26.592c0-3.733.008-3.772-3.029-4.179a36.226,36.226,0,0,1-11.914-3.5,1.209,1.209,0,0,0-1.73.3,14.2,14.2,0,0,0-3.465,6.175A10.238,10.238,0,0,0,26.07,37.914c4.882-1.266,7.687-5.4,7.692-11.322m-23.554.053c.422-4.581,2.745-7.747,5.511-10.709,1.108-1.187,2.113-1.408,3.516-.5A26.9,26.9,0,0,0,30.29,19.126c2.385.338,4.8.425,6.4,3.124-.515-7.515-3.706-12.285-9.107-14.029a14.434,14.434,0,0,0-15.5,4.867c-3.157,3.831-4.06,9.545-1.878,13.558M6.025,10.592a5.841,5.841,0,0,0,.457,2.52c.164.383.255.9.734.977.518.081.675-.435.884-.79a17.886,17.886,0,0,1,8.5-7.508c.376-.163.948-.219,1.01-.693.077-.589-.524-.759-.929-.993A7.157,7.157,0,0,0,6.025,10.592m15.534,35.02a4.513,4.513,0,0,0,4.632-3.132c.288-.954.044-1.211-.918-1.107a15.107,15.107,0,0,1-5.1-.317c-.719-.168-1.646-1.017-2.16-.232-.6.911-.065,2.018.545,2.9a4.091,4.091,0,0,0,3,1.892" transform="translate(0 0)" fill="#fff"/>
        <path id="Trazado_842881" data-name="Trazado 842881" d="M43.37,88.655a4.51,4.51,0,1,1-4.449-4.646,4.62,4.62,0,0,1,4.449,4.646" transform="translate(-10.866 -26.573)" fill="#fff"/>
        <path id="Trazado_842882" data-name="Trazado 842882" d="M34.452,49.1a10.059,10.059,0,0,1-3.374-.788,1.518,1.518,0,0,1-.924-1.944,1.422,1.422,0,0,1,1.892-.967,9.394,9.394,0,0,0,4.862-.005,1.5,1.5,0,0,1,1.986,1.119c.258.926-.317,1.5-1.088,1.862a11.315,11.315,0,0,1-3.354.724" transform="translate(-9.509 -14.335)" fill="#fff"/>
        <path id="Trazado_842883" data-name="Trazado 842883" d="M32.8,36.523c0,1.116-.576,2.022-1.287,2.022s-1.287-.905-1.287-2.022S30.8,34.5,31.512,34.5s1.287.905,1.287,2.022" transform="translate(-9.56 -10.913)" fill="#fff"/>
        <path id="Trazado_842884" data-name="Trazado 842884" d="M40.863,36.523c0,1.116-.576,2.022-1.287,2.022s-1.287-.905-1.287-2.022.576-2.022,1.287-2.022,1.287.905,1.287,2.022" transform="translate(-12.111 -10.913)" fill="#fff"/>
      </g>
    </g>
  </g>
</svg>
