<svg xmlns="http://www.w3.org/2000/svg" xmlns:xlink="http://www.w3.org/1999/xlink" width="820" height="674" viewBox="0 0 820 674">
  <defs>
    <clipPath id="clip-path">
      <rect id="Rect치ngulo_381349" data-name="Rect치ngulo 381349" width="596.144" height="580.017" fill="none"/>
    </clipPath>
  </defs>
  <g id="Grupo_1083385" data-name="Grupo 1083385" transform="translate(-390 -1336.956)">
    <rect id="Rect치ngulo_381348" data-name="Rect치ngulo 381348" width="820" height="674" transform="translate(390 1336.956)" fill="#e1f5d6"/>
    <g id="Grupo_1083381" data-name="Grupo 1083381">
      <g id="Grupo_1083380" data-name="Grupo 1083380" transform="translate(479.928 1383.947)">
        <g id="Grupo_1083379" data-name="Grupo 1083379" clip-path="url(#clip-path)">
          <path id="Trazado_843202" data-name="Trazado 843202" d="M92.358,279.849a20.4,20.4,0,0,1,5.064,27.237,110.9,110.9,0,0,0,45.338,12.1,20.371,20.371,0,0,1,40.35-5.5,110.925,110.925,0,0,0,40.972-24.156,20.387,20.387,0,0,1,24.327-32.721,110.877,110.877,0,0,0,11.339-46.186,20.373,20.373,0,0,1-6.355-40.229,111.054,111.054,0,0,0-24.649-39.937A20.382,20.382,0,0,1,195.8,106.748,110.9,110.9,0,0,0,150.9,96.156a20.367,20.367,0,0,1-39.777,6.269A110.937,110.937,0,0,0,72.07,126.113,20.373,20.373,0,0,1,48.136,158.3,110.91,110.91,0,0,0,36.7,202.527a20.368,20.368,0,0,1,5.452,39.9,110.909,110.909,0,0,0,23.066,39.939,20.4,20.4,0,0,1,27.14-2.515m2.281-111.965a66.747,66.747,0,1,1,13.733,93.39,66.749,66.749,0,0,1-13.733-93.39" transform="translate(34.839 91.279)" fill="#123d7e"/>
          <path id="Trazado_843203" data-name="Trazado 843203" d="M177.578,393.993l20.592,15.318,11.511-12.694a118.473,118.473,0,0,0,17.329,8.392l-2.9,17.2,24.949,6.047,5.637-16.179a119.019,119.019,0,0,0,17.1.979l3.762,17.048,25.4-3.737-.834-17.128a119.242,119.242,0,0,0,16.787-5.708l9.937,14.343,22.087-13.091-7.263-15.51a118.176,118.176,0,0,0,13.988-12.318l14.715,9.4,15.317-20.6L373,354.239a119.323,119.323,0,0,0,7.39-14.813l17.121,3.281,6.606-24.807-16.045-6a118.173,118.173,0,0,0,1.353-19.779l17.052-3.76-3.735-25.4-17.124.834a121.155,121.155,0,0,0-5.053-15.271l14.452-9.729-12.774-22.259-15.579,7.027a119.376,119.376,0,0,0-15.431-17.323l8.83-14.678-20.6-15.314-11.45,13.2a118.3,118.3,0,0,0-17.448-7.961l2.394-16.943-24.945-6.047-5.376,16.61a119.5,119.5,0,0,0-17.047-.552l-4.132-16.641-25.4,3.733,1.242,17.429a119.345,119.345,0,0,0-16.59,6.086L210.6,171.363l-22.085,13.089,7.745,15.631a117.89,117.89,0,0,0-13.635,12.608l-14.678-8.834-15.31,20.6,13.2,11.446a118.194,118.194,0,0,0-6.988,14.916l-16.908-2.784-6.62,24.809,16.495,5.748a119.381,119.381,0,0,0-.869,19.729L134.3,302.455l3.735,25.393,17.425-1.238a120.636,120.636,0,0,0,5.429,15.062l-13.971,9.939L159.7,373.871l15.75-7.528a118.6,118.6,0,0,0,11.516,12.932ZM209.262,248.5a75.872,75.872,0,1,1,15.618,106.154A75.876,75.876,0,0,1,209.262,248.5" transform="translate(127.493 149.918)" fill="#ffd800"/>
          <path id="Trazado_843204" data-name="Trazado 843204" d="M160.259,195.458l15.282,11.366,8.542-9.419a87.881,87.881,0,0,0,12.861,6.226l-2.15,12.764,18.516,4.487,4.183-12.008a88.107,88.107,0,0,0,12.688.727l2.791,12.653,18.85-2.774-.62-12.711a88.889,88.889,0,0,0,12.458-4.236l7.376,10.643,16.392-9.715-5.39-11.511a87.6,87.6,0,0,0,10.38-9.142l10.922,6.975L314.707,174.5l-9.415-8.542a88.745,88.745,0,0,0,5.483-10.994l12.707,2.435,4.9-18.409-11.908-4.45a87.71,87.71,0,0,0,1-14.678l12.655-2.791L327.364,98.22l-12.709.62a89.493,89.493,0,0,0-3.749-11.333l10.725-7.22-9.479-16.518L300.59,68.982a88.5,88.5,0,0,0-11.452-12.857l6.554-10.893L280.406,33.868l-8.5,9.8a87.877,87.877,0,0,0-12.949-5.908l1.778-12.575-18.512-4.487-3.99,12.327a88.533,88.533,0,0,0-12.651-.407l-3.068-12.351-18.846,2.77.92,12.933a88.5,88.5,0,0,0-12.312,4.516l-7.507-10.249L168.38,39.95l5.746,11.6a87.562,87.562,0,0,0-10.119,9.357l-10.895-6.555-11.36,15.286,9.793,8.493A87.649,87.649,0,0,0,146.361,89.2l-12.55-2.066L128.9,105.547l12.242,4.267a88.718,88.718,0,0,0-.645,14.641l-12.351,3.068,2.772,18.846,12.932-.92a89.66,89.66,0,0,0,4.027,11.179L137.507,164l9.487,16.52,11.688-5.589a87.814,87.814,0,0,0,8.548,9.6ZM183.774,87.483a56.307,56.307,0,1,1,11.59,78.782,56.31,56.31,0,0,1-11.59-78.782" transform="translate(121.646 19.236)" fill="#6ba820"/>
          <path id="Trazado_843205" data-name="Trazado 843205" d="M152.127,9.651,179.7,18.423l-1.164-8.906c-20.419,10.146-39.576,23.557-54.348,41.073a136.737,136.737,0,0,0-29.163,60.157,183.989,183.989,0,0,0-3.559,43.333c.189,6.257,9.937,6.285,9.746,0-.692-22.961,2.3-46.512,11.723-67.533,8.665-19.321,21.994-35.623,38.553-48.759A180.217,180.217,0,0,1,183.45,17.932c3.953-1.965,2.579-7.715-1.164-8.906L154.718.254c-5.99-1.906-8.555,7.5-2.591,9.4" transform="translate(86.731 0)" fill="#4a2a7c"/>
          <path id="Trazado_843206" data-name="Trazado 843206" d="M141.354,36.464,146.539,13.9q.371-1.605.739-3.214c.571-2.479-.762-5.392-3.4-5.994-2.483-.565-5.384.747-5.994,3.4L132.7,30.66q-.371,1.605-.739,3.214c-.571,2.479.762,5.392,3.4,5.994,2.483.565,5.384-.747,5.994-3.4" transform="translate(125.14 4.332)" fill="#4a2a7c"/>
          <path id="Trazado_843207" data-name="Trazado 843207" d="M362.475,248.6,345.9,272.308l8.908,1.164c-3.618-22.542-10.77-44.789-23.117-64.124a136.864,136.864,0,0,0-48.87-45.664,183.982,183.982,0,0,0-40.233-16.2c-6.051-1.686-8.633,7.713-2.591,9.4,22.2,6.189,43.676,16.1,61.007,31.415a128.8,128.8,0,0,1,34.767,50.8,186.429,186.429,0,0,1,9.637,36.964c.729,4.54,6.774,4.216,8.908,1.164l16.575-23.709c1.509-2.16.394-5.415-1.749-6.669a4.973,4.973,0,0,0-6.667,1.749" transform="translate(224.558 139.816)" fill="#4a2a7c"/>
          <path id="Trazado_843208" data-name="Trazado 843208" d="M282.979,212.415q9.991,5.827,19.984,11.657l2.862,1.669a4.873,4.873,0,1,0,4.918-8.415q-9.991-5.83-19.986-11.657-1.43-.836-2.86-1.669a4.873,4.873,0,1,0-4.918,8.415" transform="translate(266.38 193.05)" fill="#4a2a7c"/>
          <path id="Trazado_843209" data-name="Trazado 843209" d="M1.38,205.426l19.992,20.912c2.955,3.092,8.292.7,8.318-3.446.136-21.495,3.423-43.475,12.08-63.126a127.886,127.886,0,0,1,39-49.539,175.85,175.85,0,0,1,35.4-20.836c2.4-1.084,2.979-4.563,1.749-6.667-1.442-2.466-4.259-2.836-6.667-1.749-22.078,9.982-42.771,23.865-58.379,42.588a138.926,138.926,0,0,0-28.752,59.543,192.56,192.56,0,0,0-4.181,39.785l8.32-3.444q-9.994-10.456-19.99-20.914c-4.343-4.542-11.23,2.357-6.893,6.893" transform="translate(0 76.32)" fill="#4a2a7c"/>
          <path id="Trazado_843210" data-name="Trazado 843210" d="M32.209,143.858q-8.985,7.281-17.972,14.557c-.86.7-1.721,1.392-2.581,2.09-1.99,1.612-1.8,5.238,0,6.893,2.113,1.938,4.768,1.717,6.891,0q8.988-7.278,17.972-14.557,1.292-1.044,2.583-2.088c1.988-1.612,1.8-5.242,0-6.895-2.113-1.94-4.77-1.717-6.893,0" transform="translate(9.714 135.26)" fill="#4a2a7c"/>
        </g>
      </g>
      <path id="Trazado_843223" data-name="Trazado 843223" d="M16.682,16.965H14.455V23H10.342V5.938h6.715A7.5,7.5,0,0,1,21.8,7.284a4.561,4.561,0,0,1,1.711,3.8,5.54,5.54,0,0,1-.721,2.95,5.115,5.115,0,0,1-2.256,1.9L24.1,22.824V23H19.693ZM14.455,13.8h2.6a2.335,2.335,0,0,0,1.764-.617,2.384,2.384,0,0,0,.592-1.721,2.412,2.412,0,0,0-.6-1.733A2.313,2.313,0,0,0,17.057,9.1h-2.6ZM29.982,23H26.021V10.32h3.961Zm-4.2-15.949A1.763,1.763,0,0,1,26.4,5.668a2.591,2.591,0,0,1,3.164,0,1.763,1.763,0,0,1,.609,1.383,1.763,1.763,0,0,1-.609,1.383,2.591,2.591,0,0,1-3.164,0A1.763,1.763,0,0,1,25.787,7.051ZM38.549,23.234a6.518,6.518,0,0,1-4.723-1.74,6.009,6.009,0,0,1-1.8-4.529v-.328a7.787,7.787,0,0,1,.721-3.434,5.274,5.274,0,0,1,2.1-2.3,6.35,6.35,0,0,1,3.281-.814,5.489,5.489,0,0,1,4.219,1.658,6.516,6.516,0,0,1,1.547,4.623V17.9H36.041a2.846,2.846,0,0,0,.926,1.676,2.755,2.755,0,0,0,1.852.609,3.549,3.549,0,0,0,2.93-1.312l1.8,2.133a5.045,5.045,0,0,1-2.092,1.623A7.069,7.069,0,0,1,38.549,23.234Zm-.445-10.1q-1.734,0-2.062,2.3h3.984v-.3a1.956,1.956,0,0,0-.48-1.471A1.912,1.912,0,0,0,38.1,13.133Zm14.016,6.3a.912.912,0,0,0-.527-.809,8.021,8.021,0,0,0-2-.633,9.138,9.138,0,0,1-2.437-.861,4.083,4.083,0,0,1-1.465-1.295,3.092,3.092,0,0,1-.5-1.746,3.5,3.5,0,0,1,1.441-2.877A5.938,5.938,0,0,1,50.4,10.086a6.579,6.579,0,0,1,4.031,1.137,3.555,3.555,0,0,1,1.523,2.988H51.99q0-1.523-1.605-1.523a1.591,1.591,0,0,0-1.043.346,1.07,1.07,0,0,0-.422.861.982.982,0,0,0,.516.855,4.872,4.872,0,0,0,1.646.539,14.228,14.228,0,0,1,1.986.5q2.859.984,2.859,3.527a3.321,3.321,0,0,1-1.541,2.824,6.758,6.758,0,0,1-3.99,1.09,6.9,6.9,0,0,1-2.906-.586A4.86,4.86,0,0,1,45.5,21.055a3.609,3.609,0,0,1-.715-2.121h3.691a1.526,1.526,0,0,0,.586,1.283,2.41,2.41,0,0,0,1.441.4,1.9,1.9,0,0,0,1.213-.328A1.05,1.05,0,0,0,52.119,19.438Zm5.191-2.871a8.561,8.561,0,0,1,.633-3.4,5.094,5.094,0,0,1,1.816-2.279,4.788,4.788,0,0,1,2.754-.8,3.807,3.807,0,0,1,3.094,1.336l.141-1.1h3.586v12.2a5.346,5.346,0,0,1-.779,2.912,5,5,0,0,1-2.256,1.9,8.292,8.292,0,0,1-3.422.662,7.153,7.153,0,0,1-2.7-.527,4.876,4.876,0,0,1-2-1.371l1.652-2.32a3.621,3.621,0,0,0,2.906,1.3q2.625,0,2.625-2.7v-.4a3.708,3.708,0,0,1-2.871,1.254,4.583,4.583,0,0,1-3.75-1.775,7.356,7.356,0,0,1-1.43-4.752Zm3.961.246a4.511,4.511,0,0,0,.586,2.467,1.849,1.849,0,0,0,1.641.908,2.1,2.1,0,0,0,1.863-.855V14a2.045,2.045,0,0,0-1.84-.867,1.861,1.861,0,0,0-1.652.943A5.144,5.144,0,0,0,61.271,16.813Zm9.809-.27a7.484,7.484,0,0,1,.738-3.381,5.28,5.28,0,0,1,2.121-2.279,6.388,6.388,0,0,1,3.246-.8,5.83,5.83,0,0,1,4.488,1.764,6.768,6.768,0,0,1,1.641,4.8v.141a6.566,6.566,0,0,1-1.646,4.705,5.846,5.846,0,0,1-4.459,1.74,5.912,5.912,0,0,1-4.348-1.623,6.348,6.348,0,0,1-1.77-4.4Zm3.949.246a4.718,4.718,0,0,0,.551,2.578,1.835,1.835,0,0,0,1.629.82q2.109,0,2.156-3.246v-.4q0-3.41-2.18-3.41-1.98,0-2.145,2.941Z" transform="translate(785 1504.994)" fill="#12263f"/>
      <path id="Trazado_843224" data-name="Trazado 843224" d="M24.645,17.223a6.231,6.231,0,0,1-.961,3.146,5.8,5.8,0,0,1-2.467,2.115,8.4,8.4,0,0,1-3.627.75,6.7,6.7,0,0,1-5.3-2.191,9.048,9.048,0,0,1-1.934-6.187v-.844a10.328,10.328,0,0,1,.873-4.389,6.615,6.615,0,0,1,2.514-2.906,7.013,7.013,0,0,1,3.8-1.025,7.354,7.354,0,0,1,4.992,1.635,6.459,6.459,0,0,1,2.145,4.506h-4.1a3.056,3.056,0,0,0-.785-2.238,3.229,3.229,0,0,0-2.25-.68,2.457,2.457,0,0,0-2.25,1.148,7.381,7.381,0,0,0-.75,3.668v1.207a8.167,8.167,0,0,0,.686,3.9,2.509,2.509,0,0,0,2.361,1.172,3.159,3.159,0,0,0,2.168-.668,2.835,2.835,0,0,0,.8-2.121Zm9.316,4.406a4.072,4.072,0,0,1-3.387,1.605,3.993,3.993,0,0,1-3.158-1.213,5.1,5.1,0,0,1-1.072-3.486V10.32h3.949v8.238a1.419,1.419,0,0,0,1.582,1.629,2.064,2.064,0,0,0,1.934-.973V10.32h3.973V23h-3.7ZM43.676,10.32l.129,1.488a4.36,4.36,0,0,1,3.621-1.723A3.21,3.21,0,0,1,50.672,12a4.22,4.22,0,0,1,3.727-1.91q3.855,0,3.961,4.664V23H54.4V15a2.417,2.417,0,0,0-.328-1.418,1.4,1.4,0,0,0-1.2-.445,1.871,1.871,0,0,0-1.746,1.043l.012.164V23H47.18V15.02a2.541,2.541,0,0,0-.316-1.441,1.393,1.393,0,0,0-1.207-.445,1.894,1.894,0,0,0-1.734,1.043V23H39.973V10.32Zm28.711,6.434a7.646,7.646,0,0,1-1.33,4.717,4.264,4.264,0,0,1-3.592,1.764,3.655,3.655,0,0,1-2.871-1.277v5.918H60.645V10.32h3.691l.117,1.172a3.656,3.656,0,0,1,2.988-1.406,4.3,4.3,0,0,1,3.645,1.729,7.741,7.741,0,0,1,1.3,4.752Zm-3.949-.246q0-3.375-1.969-3.375a1.859,1.859,0,0,0-1.875,1.008v4.992a1.919,1.919,0,0,0,1.9,1.055q1.887,0,1.945-3.258ZM78.293,23H74.332V5h3.961Zm6.6,0H80.93V10.32h3.961ZM80.7,7.051A1.763,1.763,0,0,1,81.3,5.668a2.591,2.591,0,0,1,3.164,0,1.763,1.763,0,0,1,.609,1.383,1.763,1.763,0,0,1-.609,1.383,2.591,2.591,0,0,1-3.164,0A1.763,1.763,0,0,1,80.7,7.051Zm10.359,3.27.129,1.488A4.36,4.36,0,0,1,94.8,10.086,3.21,3.21,0,0,1,98.051,12a4.22,4.22,0,0,1,3.727-1.91q3.855,0,3.961,4.664V23h-3.961V15a2.417,2.417,0,0,0-.328-1.418,1.4,1.4,0,0,0-1.2-.445,1.871,1.871,0,0,0-1.746,1.043l.012.164V23H94.559V15.02a2.541,2.541,0,0,0-.316-1.441,1.393,1.393,0,0,0-1.207-.445A1.894,1.894,0,0,0,91.3,14.176V23H87.352V10.32ZM112.16,23H108.2V10.32h3.961Zm-4.2-15.949a1.763,1.763,0,0,1,.609-1.383,2.591,2.591,0,0,1,3.164,0,1.763,1.763,0,0,1,.609,1.383,1.763,1.763,0,0,1-.609,1.383,2.591,2.591,0,0,1-3.164,0A1.763,1.763,0,0,1,107.965,7.051Zm12.762,16.184A6.518,6.518,0,0,1,116,21.494a6.009,6.009,0,0,1-1.8-4.529v-.328a7.787,7.787,0,0,1,.721-3.434,5.274,5.274,0,0,1,2.1-2.3,6.35,6.35,0,0,1,3.281-.814,5.489,5.489,0,0,1,4.219,1.658,6.516,6.516,0,0,1,1.547,4.623V17.9h-7.852a2.846,2.846,0,0,0,.926,1.676,2.755,2.755,0,0,0,1.852.609,3.549,3.549,0,0,0,2.93-1.312l1.8,2.133a5.045,5.045,0,0,1-2.092,1.623A7.069,7.069,0,0,1,120.727,23.234Zm-.445-10.1q-1.734,0-2.062,2.3H122.2v-.3a1.956,1.956,0,0,0-.48-1.471A1.912,1.912,0,0,0,120.281,13.133Zm11-2.812.129,1.488a4.3,4.3,0,0,1,3.621-1.723,3.618,3.618,0,0,1,2.959,1.184,5.635,5.635,0,0,1,1.014,3.563V23h-3.961V15a2.14,2.14,0,0,0-.387-1.412,1.789,1.789,0,0,0-1.406-.451,1.883,1.883,0,0,0-1.723.914V23h-3.949V10.32Zm14.508-3.152V10.32h2.086v2.742h-2.086v5.8a1.481,1.481,0,0,0,.258,1,1.383,1.383,0,0,0,1.02.281,5.793,5.793,0,0,0,.984-.07v2.824a7.288,7.288,0,0,1-2.227.34,4.137,4.137,0,0,1-3.012-.961,3.939,3.939,0,0,1-.973-2.918V13.063h-1.617V10.32h1.617V7.168Zm2.789,9.375a7.484,7.484,0,0,1,.738-3.381,5.28,5.28,0,0,1,2.121-2.279,6.388,6.388,0,0,1,3.246-.8,5.83,5.83,0,0,1,4.488,1.764,6.768,6.768,0,0,1,1.641,4.8v.141a6.566,6.566,0,0,1-1.646,4.705,5.846,5.846,0,0,1-4.459,1.74,5.912,5.912,0,0,1-4.348-1.623,6.348,6.348,0,0,1-1.77-4.4Zm3.949.246a4.718,4.718,0,0,0,.551,2.578,1.835,1.835,0,0,0,1.629.82q2.109,0,2.156-3.246v-.4q0-3.41-2.18-3.41-1.98,0-2.145,2.941Z" transform="translate(792.5 1815.994)" fill="#12263f"/>
      <path id="Trazado_843225" data-name="Trazado 843225" d="M35.365,20.891a6.614,6.614,0,0,1-2.777,1.7,11.979,11.979,0,0,1-4.008.645,7.146,7.146,0,0,1-5.355-2.051,8.3,8.3,0,0,1-2.145-5.707L21.068,14a10.182,10.182,0,0,1,.891-4.4,6.614,6.614,0,0,1,2.549-2.895,7.21,7.21,0,0,1,3.838-1.014A7.559,7.559,0,0,1,33.3,7.15,6.182,6.182,0,0,1,35.354,11.5H31.393a3.235,3.235,0,0,0-.914-2.039,2.949,2.949,0,0,0-1.992-.609A2.684,2.684,0,0,0,26.1,10.168a7.008,7.008,0,0,0-.855,3.75v1.031a6.86,6.86,0,0,0,.873,3.838,3.088,3.088,0,0,0,2.748,1.283,3.456,3.456,0,0,0,2.391-.715V16.707H28.393V13.883h6.973Zm1.711-4.348a7.484,7.484,0,0,1,.738-3.381,5.28,5.28,0,0,1,2.121-2.279,6.388,6.388,0,0,1,3.246-.8A5.83,5.83,0,0,1,47.67,11.85a6.768,6.768,0,0,1,1.641,4.8v.141a6.566,6.566,0,0,1-1.646,4.705,5.846,5.846,0,0,1-4.459,1.74,5.912,5.912,0,0,1-4.348-1.623,6.348,6.348,0,0,1-1.77-4.4Zm3.949.246a4.718,4.718,0,0,0,.551,2.578,1.835,1.835,0,0,0,1.629.82q2.109,0,2.156-3.246v-.4q0-3.41-2.18-3.41-1.98,0-2.145,2.941Zm21.8-.023a7.728,7.728,0,0,1-1.289,4.793A4.318,4.318,0,0,1,57.9,23.234,3.747,3.747,0,0,1,54.783,21.7L54.619,23H51.08V5h3.949v6.34a3.615,3.615,0,0,1,2.848-1.254,4.319,4.319,0,0,1,3.656,1.7,7.768,7.768,0,0,1,1.289,4.781Zm-3.961-.252a5.155,5.155,0,0,0-.486-2.6,1.639,1.639,0,0,0-1.494-.778,1.891,1.891,0,0,0-1.852,1.018v5.031A1.9,1.9,0,0,0,56.9,20.188a1.677,1.677,0,0,0,1.77-1.357A9.745,9.745,0,0,0,58.861,16.514ZM68.729,23H64.768V10.32h3.961Zm-4.2-15.949a1.763,1.763,0,0,1,.609-1.383,2.591,2.591,0,0,1,3.164,0,1.763,1.763,0,0,1,.609,1.383,1.763,1.763,0,0,1-.609,1.383,2.591,2.591,0,0,1-3.164,0A1.763,1.763,0,0,1,64.533,7.051ZM77.295,23.234a6.518,6.518,0,0,1-4.723-1.74,6.009,6.009,0,0,1-1.8-4.529v-.328a7.787,7.787,0,0,1,.721-3.434,5.274,5.274,0,0,1,2.1-2.3,6.35,6.35,0,0,1,3.281-.814,5.489,5.489,0,0,1,4.219,1.658,6.516,6.516,0,0,1,1.547,4.623V17.9H74.787a2.846,2.846,0,0,0,.926,1.676,2.755,2.755,0,0,0,1.852.609,3.549,3.549,0,0,0,2.93-1.312l1.8,2.133a5.045,5.045,0,0,1-2.092,1.623A7.069,7.069,0,0,1,77.295,23.234Zm-.445-10.1q-1.734,0-2.062,2.3h3.984v-.3a1.956,1.956,0,0,0-.48-1.471A1.912,1.912,0,0,0,76.85,13.133Zm15.047.762L90.6,13.8a2.336,2.336,0,0,0-2.391,1.172V23H84.256V10.32h3.7l.129,1.629a3.058,3.058,0,0,1,2.777-1.863,3.851,3.851,0,0,1,1.1.141Zm5.051-3.574.129,1.488a4.3,4.3,0,0,1,3.621-1.723,3.618,3.618,0,0,1,2.959,1.184,5.635,5.635,0,0,1,1.014,3.563V23h-3.961V15a2.14,2.14,0,0,0-.387-1.412,1.789,1.789,0,0,0-1.406-.451,1.883,1.883,0,0,0-1.723.914V23H93.244V10.32Zm9.41,6.223a7.484,7.484,0,0,1,.738-3.381,5.28,5.28,0,0,1,2.121-2.279,6.388,6.388,0,0,1,3.246-.8,5.83,5.83,0,0,1,4.488,1.764,6.768,6.768,0,0,1,1.641,4.8v.141a6.566,6.566,0,0,1-1.646,4.705,5.846,5.846,0,0,1-4.459,1.74,5.912,5.912,0,0,1-4.348-1.623,6.348,6.348,0,0,1-1.77-4.4Zm3.949.246a4.718,4.718,0,0,0,.551,2.578,1.835,1.835,0,0,0,1.629.82q2.109,0,2.156-3.246v-.4q0-3.41-2.18-3.41-1.98,0-2.145,2.941Z" transform="translate(591.834 1665.994)" fill="#12263f"/>
    </g>
  </g>
</svg>
