<svg xmlns="http://www.w3.org/2000/svg" xmlns:xlink="http://www.w3.org/1999/xlink" width="505" height="898.434" viewBox="0 0 505 898.434">
  <defs>
    <clipPath id="clip-path">
      <rect id="Rectángulo_381352" data-name="Rectángulo 381352" width="443.237" height="791.129" fill="none"/>
    </clipPath>
  </defs>
  <g id="Grupo_1083384" data-name="Grupo 1083384" transform="translate(7354 10332.535)">
    <path id="Trazado_837270" data-name="Trazado 837270" d="M0,0H505V898.434H0Z" transform="translate(-7354 -10332.535)" fill="#e0e4ee"/>
    <path id="Trazado_843220" data-name="Trazado 843220" d="M16.682,16.965H14.455V23H10.342V5.938h6.715A7.5,7.5,0,0,1,21.8,7.284a4.561,4.561,0,0,1,1.711,3.8,5.54,5.54,0,0,1-.721,2.95,5.115,5.115,0,0,1-2.256,1.9L24.1,22.824V23H19.693ZM14.455,13.8h2.6a2.335,2.335,0,0,0,1.764-.617,2.384,2.384,0,0,0,.592-1.721,2.412,2.412,0,0,0-.6-1.733A2.313,2.313,0,0,0,17.057,9.1h-2.6ZM29.982,23H26.021V10.32h3.961Zm-4.2-15.949A1.763,1.763,0,0,1,26.4,5.668a2.591,2.591,0,0,1,3.164,0,1.763,1.763,0,0,1,.609,1.383,1.763,1.763,0,0,1-.609,1.383,2.591,2.591,0,0,1-3.164,0A1.763,1.763,0,0,1,25.787,7.051ZM38.549,23.234a6.518,6.518,0,0,1-4.723-1.74,6.009,6.009,0,0,1-1.8-4.529v-.328a7.787,7.787,0,0,1,.721-3.434,5.274,5.274,0,0,1,2.1-2.3,6.35,6.35,0,0,1,3.281-.814,5.489,5.489,0,0,1,4.219,1.658,6.516,6.516,0,0,1,1.547,4.623V17.9H36.041a2.846,2.846,0,0,0,.926,1.676,2.755,2.755,0,0,0,1.852.609,3.549,3.549,0,0,0,2.93-1.312l1.8,2.133a5.045,5.045,0,0,1-2.092,1.623A7.069,7.069,0,0,1,38.549,23.234Zm-.445-10.1q-1.734,0-2.062,2.3h3.984v-.3a1.956,1.956,0,0,0-.48-1.471A1.912,1.912,0,0,0,38.1,13.133Zm14.016,6.3a.912.912,0,0,0-.527-.809,8.021,8.021,0,0,0-2-.633,9.138,9.138,0,0,1-2.437-.861,4.083,4.083,0,0,1-1.465-1.295,3.092,3.092,0,0,1-.5-1.746,3.5,3.5,0,0,1,1.441-2.877A5.938,5.938,0,0,1,50.4,10.086a6.579,6.579,0,0,1,4.031,1.137,3.555,3.555,0,0,1,1.523,2.988H51.99q0-1.523-1.605-1.523a1.591,1.591,0,0,0-1.043.346,1.07,1.07,0,0,0-.422.861.982.982,0,0,0,.516.855,4.872,4.872,0,0,0,1.646.539,14.228,14.228,0,0,1,1.986.5q2.859.984,2.859,3.527a3.321,3.321,0,0,1-1.541,2.824,6.758,6.758,0,0,1-3.99,1.09,6.9,6.9,0,0,1-2.906-.586A4.86,4.86,0,0,1,45.5,21.055a3.609,3.609,0,0,1-.715-2.121h3.691a1.526,1.526,0,0,0,.586,1.283,2.41,2.41,0,0,0,1.441.4,1.9,1.9,0,0,0,1.213-.328A1.05,1.05,0,0,0,52.119,19.438Zm5.191-2.871a8.561,8.561,0,0,1,.633-3.4,5.094,5.094,0,0,1,1.816-2.279,4.788,4.788,0,0,1,2.754-.8,3.807,3.807,0,0,1,3.094,1.336l.141-1.1h3.586v12.2a5.346,5.346,0,0,1-.779,2.912,5,5,0,0,1-2.256,1.9,8.292,8.292,0,0,1-3.422.662,7.153,7.153,0,0,1-2.7-.527,4.876,4.876,0,0,1-2-1.371l1.652-2.32a3.621,3.621,0,0,0,2.906,1.3q2.625,0,2.625-2.7v-.4a3.708,3.708,0,0,1-2.871,1.254,4.583,4.583,0,0,1-3.75-1.775,7.356,7.356,0,0,1-1.43-4.752Zm3.961.246a4.511,4.511,0,0,0,.586,2.467,1.849,1.849,0,0,0,1.641.908,2.1,2.1,0,0,0,1.863-.855V14a2.045,2.045,0,0,0-1.84-.867,1.861,1.861,0,0,0-1.652.943A5.144,5.144,0,0,0,61.271,16.813Zm9.809-.27a7.484,7.484,0,0,1,.738-3.381,5.28,5.28,0,0,1,2.121-2.279,6.388,6.388,0,0,1,3.246-.8,5.83,5.83,0,0,1,4.488,1.764,6.768,6.768,0,0,1,1.641,4.8v.141a6.566,6.566,0,0,1-1.646,4.705,5.846,5.846,0,0,1-4.459,1.74,5.912,5.912,0,0,1-4.348-1.623,6.348,6.348,0,0,1-1.77-4.4Zm3.949.246a4.718,4.718,0,0,0,.551,2.578,1.835,1.835,0,0,0,1.629.82q2.109,0,2.156-3.246v-.4q0-3.41-2.18-3.41-1.98,0-2.145,2.941Z" transform="translate(-7054 -10158.006)" fill="#12263f"/>
    <path id="Trazado_843221" data-name="Trazado 843221" d="M24.645,17.223a6.231,6.231,0,0,1-.961,3.146,5.8,5.8,0,0,1-2.467,2.115,8.4,8.4,0,0,1-3.627.75,6.7,6.7,0,0,1-5.3-2.191,9.048,9.048,0,0,1-1.934-6.187v-.844a10.328,10.328,0,0,1,.873-4.389,6.615,6.615,0,0,1,2.514-2.906,7.013,7.013,0,0,1,3.8-1.025,7.354,7.354,0,0,1,4.992,1.635,6.459,6.459,0,0,1,2.145,4.506h-4.1a3.056,3.056,0,0,0-.785-2.238,3.229,3.229,0,0,0-2.25-.68,2.457,2.457,0,0,0-2.25,1.148,7.381,7.381,0,0,0-.75,3.668v1.207a8.167,8.167,0,0,0,.686,3.9,2.509,2.509,0,0,0,2.361,1.172,3.159,3.159,0,0,0,2.168-.668,2.835,2.835,0,0,0,.8-2.121Zm9.316,4.406a4.072,4.072,0,0,1-3.387,1.605,3.993,3.993,0,0,1-3.158-1.213,5.1,5.1,0,0,1-1.072-3.486V10.32h3.949v8.238a1.419,1.419,0,0,0,1.582,1.629,2.064,2.064,0,0,0,1.934-.973V10.32h3.973V23h-3.7ZM43.676,10.32l.129,1.488a4.36,4.36,0,0,1,3.621-1.723A3.21,3.21,0,0,1,50.672,12a4.22,4.22,0,0,1,3.727-1.91q3.855,0,3.961,4.664V23H54.4V15a2.417,2.417,0,0,0-.328-1.418,1.4,1.4,0,0,0-1.2-.445,1.871,1.871,0,0,0-1.746,1.043l.012.164V23H47.18V15.02a2.541,2.541,0,0,0-.316-1.441,1.393,1.393,0,0,0-1.207-.445,1.894,1.894,0,0,0-1.734,1.043V23H39.973V10.32Zm28.711,6.434a7.646,7.646,0,0,1-1.33,4.717,4.264,4.264,0,0,1-3.592,1.764,3.655,3.655,0,0,1-2.871-1.277v5.918H60.645V10.32h3.691l.117,1.172a3.656,3.656,0,0,1,2.988-1.406,4.3,4.3,0,0,1,3.645,1.729,7.741,7.741,0,0,1,1.3,4.752Zm-3.949-.246q0-3.375-1.969-3.375a1.859,1.859,0,0,0-1.875,1.008v4.992a1.919,1.919,0,0,0,1.9,1.055q1.887,0,1.945-3.258ZM78.293,23H74.332V5h3.961Zm6.6,0H80.93V10.32h3.961ZM80.7,7.051A1.763,1.763,0,0,1,81.3,5.668a2.591,2.591,0,0,1,3.164,0,1.763,1.763,0,0,1,.609,1.383,1.763,1.763,0,0,1-.609,1.383,2.591,2.591,0,0,1-3.164,0A1.763,1.763,0,0,1,80.7,7.051Zm10.359,3.27.129,1.488A4.36,4.36,0,0,1,94.8,10.086,3.21,3.21,0,0,1,98.051,12a4.22,4.22,0,0,1,3.727-1.91q3.855,0,3.961,4.664V23h-3.961V15a2.417,2.417,0,0,0-.328-1.418,1.4,1.4,0,0,0-1.2-.445,1.871,1.871,0,0,0-1.746,1.043l.012.164V23H94.559V15.02a2.541,2.541,0,0,0-.316-1.441,1.393,1.393,0,0,0-1.207-.445A1.894,1.894,0,0,0,91.3,14.176V23H87.352V10.32ZM112.16,23H108.2V10.32h3.961Zm-4.2-15.949a1.763,1.763,0,0,1,.609-1.383,2.591,2.591,0,0,1,3.164,0,1.763,1.763,0,0,1,.609,1.383,1.763,1.763,0,0,1-.609,1.383,2.591,2.591,0,0,1-3.164,0A1.763,1.763,0,0,1,107.965,7.051Zm12.762,16.184A6.518,6.518,0,0,1,116,21.494a6.009,6.009,0,0,1-1.8-4.529v-.328a7.787,7.787,0,0,1,.721-3.434,5.274,5.274,0,0,1,2.1-2.3,6.35,6.35,0,0,1,3.281-.814,5.489,5.489,0,0,1,4.219,1.658,6.516,6.516,0,0,1,1.547,4.623V17.9h-7.852a2.846,2.846,0,0,0,.926,1.676,2.755,2.755,0,0,0,1.852.609,3.549,3.549,0,0,0,2.93-1.312l1.8,2.133a5.045,5.045,0,0,1-2.092,1.623A7.069,7.069,0,0,1,120.727,23.234Zm-.445-10.1q-1.734,0-2.062,2.3H122.2v-.3a1.956,1.956,0,0,0-.48-1.471A1.912,1.912,0,0,0,120.281,13.133Zm11-2.812.129,1.488a4.3,4.3,0,0,1,3.621-1.723,3.618,3.618,0,0,1,2.959,1.184,5.635,5.635,0,0,1,1.014,3.563V23h-3.961V15a2.14,2.14,0,0,0-.387-1.412,1.789,1.789,0,0,0-1.406-.451,1.883,1.883,0,0,0-1.723.914V23h-3.949V10.32Zm14.508-3.152V10.32h2.086v2.742h-2.086v5.8a1.481,1.481,0,0,0,.258,1,1.383,1.383,0,0,0,1.02.281,5.793,5.793,0,0,0,.984-.07v2.824a7.288,7.288,0,0,1-2.227.34,4.137,4.137,0,0,1-3.012-.961,3.939,3.939,0,0,1-.973-2.918V13.063h-1.617V10.32h1.617V7.168Zm2.789,9.375a7.484,7.484,0,0,1,.738-3.381,5.28,5.28,0,0,1,2.121-2.279,6.388,6.388,0,0,1,3.246-.8,5.83,5.83,0,0,1,4.488,1.764,6.768,6.768,0,0,1,1.641,4.8v.141a6.566,6.566,0,0,1-1.646,4.705,5.846,5.846,0,0,1-4.459,1.74,5.912,5.912,0,0,1-4.348-1.623,6.348,6.348,0,0,1-1.77-4.4Zm3.949.246a4.718,4.718,0,0,0,.551,2.578,1.835,1.835,0,0,0,1.629.82q2.109,0,2.156-3.246v-.4q0-3.41-2.18-3.41-1.98,0-2.145,2.941Z" transform="translate(-7124 -9660.006)" fill="#12263f"/>
    <path id="Trazado_843222" data-name="Trazado 843222" d="M35.365,20.891a6.614,6.614,0,0,1-2.777,1.7,11.979,11.979,0,0,1-4.008.645,7.146,7.146,0,0,1-5.355-2.051,8.3,8.3,0,0,1-2.145-5.707L21.068,14a10.182,10.182,0,0,1,.891-4.4,6.614,6.614,0,0,1,2.549-2.895,7.21,7.21,0,0,1,3.838-1.014A7.559,7.559,0,0,1,33.3,7.15,6.182,6.182,0,0,1,35.354,11.5H31.393a3.235,3.235,0,0,0-.914-2.039,2.949,2.949,0,0,0-1.992-.609A2.684,2.684,0,0,0,26.1,10.168a7.008,7.008,0,0,0-.855,3.75v1.031a6.86,6.86,0,0,0,.873,3.838,3.088,3.088,0,0,0,2.748,1.283,3.456,3.456,0,0,0,2.391-.715V16.707H28.393V13.883h6.973Zm1.711-4.348a7.484,7.484,0,0,1,.738-3.381,5.28,5.28,0,0,1,2.121-2.279,6.388,6.388,0,0,1,3.246-.8A5.83,5.83,0,0,1,47.67,11.85a6.768,6.768,0,0,1,1.641,4.8v.141a6.566,6.566,0,0,1-1.646,4.705,5.846,5.846,0,0,1-4.459,1.74,5.912,5.912,0,0,1-4.348-1.623,6.348,6.348,0,0,1-1.77-4.4Zm3.949.246a4.718,4.718,0,0,0,.551,2.578,1.835,1.835,0,0,0,1.629.82q2.109,0,2.156-3.246v-.4q0-3.41-2.18-3.41-1.98,0-2.145,2.941Zm21.8-.023a7.728,7.728,0,0,1-1.289,4.793A4.318,4.318,0,0,1,57.9,23.234,3.747,3.747,0,0,1,54.783,21.7L54.619,23H51.08V5h3.949v6.34a3.615,3.615,0,0,1,2.848-1.254,4.319,4.319,0,0,1,3.656,1.7,7.768,7.768,0,0,1,1.289,4.781Zm-3.961-.252a5.155,5.155,0,0,0-.486-2.6,1.639,1.639,0,0,0-1.494-.778,1.891,1.891,0,0,0-1.852,1.018v5.031A1.9,1.9,0,0,0,56.9,20.188a1.677,1.677,0,0,0,1.77-1.357A9.745,9.745,0,0,0,58.861,16.514ZM68.729,23H64.768V10.32h3.961Zm-4.2-15.949a1.763,1.763,0,0,1,.609-1.383,2.591,2.591,0,0,1,3.164,0,1.763,1.763,0,0,1,.609,1.383,1.763,1.763,0,0,1-.609,1.383,2.591,2.591,0,0,1-3.164,0A1.763,1.763,0,0,1,64.533,7.051ZM77.295,23.234a6.518,6.518,0,0,1-4.723-1.74,6.009,6.009,0,0,1-1.8-4.529v-.328a7.787,7.787,0,0,1,.721-3.434,5.274,5.274,0,0,1,2.1-2.3,6.35,6.35,0,0,1,3.281-.814,5.489,5.489,0,0,1,4.219,1.658,6.516,6.516,0,0,1,1.547,4.623V17.9H74.787a2.846,2.846,0,0,0,.926,1.676,2.755,2.755,0,0,0,1.852.609,3.549,3.549,0,0,0,2.93-1.312l1.8,2.133a5.045,5.045,0,0,1-2.092,1.623A7.069,7.069,0,0,1,77.295,23.234Zm-.445-10.1q-1.734,0-2.062,2.3h3.984v-.3a1.956,1.956,0,0,0-.48-1.471A1.912,1.912,0,0,0,76.85,13.133Zm15.047.762L90.6,13.8a2.336,2.336,0,0,0-2.391,1.172V23H84.256V10.32h3.7l.129,1.629a3.058,3.058,0,0,1,2.777-1.863,3.851,3.851,0,0,1,1.1.141Zm5.051-3.574.129,1.488a4.3,4.3,0,0,1,3.621-1.723,3.618,3.618,0,0,1,2.959,1.184,5.635,5.635,0,0,1,1.014,3.563V23h-3.961V15a2.14,2.14,0,0,0-.387-1.412,1.789,1.789,0,0,0-1.406-.451,1.883,1.883,0,0,0-1.723.914V23H93.244V10.32Zm9.41,6.223a7.484,7.484,0,0,1,.738-3.381,5.28,5.28,0,0,1,2.121-2.279,6.388,6.388,0,0,1,3.246-.8,5.83,5.83,0,0,1,4.488,1.764,6.768,6.768,0,0,1,1.641,4.8v.141a6.566,6.566,0,0,1-1.646,4.705,5.846,5.846,0,0,1-4.459,1.74,5.912,5.912,0,0,1-4.348-1.623,6.348,6.348,0,0,1-1.77-4.4Zm3.949.246a4.718,4.718,0,0,0,.551,2.578,1.835,1.835,0,0,0,1.629.82q2.109,0,2.156-3.246v-.4q0-3.41-2.18-3.41-1.98,0-2.145,2.941Z" transform="translate(-7257.166 -9942.006)" fill="#12263f"/>
    <g id="Grupo_1083383" data-name="Grupo 1083383" transform="translate(-7323.118 -10277)">
      <g id="Grupo_1083382" data-name="Grupo 1083382" clip-path="url(#clip-path)">
        <path id="Trazado_843211" data-name="Trazado 843211" d="M69.739,431.691a23.752,23.752,0,0,1,5.9,31.72,129.175,129.175,0,0,0,52.8,14.1,23.724,23.724,0,0,1,46.991-6.4,129.163,129.163,0,0,0,47.719-28.133,23.742,23.742,0,0,1,28.331-38.106,129.136,129.136,0,0,0,13.206-53.792,23.726,23.726,0,0,1-7.4-46.85,129.351,129.351,0,0,0-28.708-46.514,23.737,23.737,0,0,1-38.37-27.617,129.187,129.187,0,0,0-52.285-12.335,23.721,23.721,0,0,1-46.326,7.3A129.2,129.2,0,0,0,46.11,252.644a23.728,23.728,0,0,1-27.874,37.489A129.166,129.166,0,0,0,4.919,341.638a23.722,23.722,0,0,1,6.349,46.467A129.143,129.143,0,0,0,38.132,434.62a23.761,23.761,0,0,1,31.607-2.929m2.656-130.4A77.736,77.736,0,1,1,88.389,410.058,77.739,77.739,0,0,1,72.395,301.292" fill="#123d7e"/>
        <path id="Trazado_843212" data-name="Trazado 843212" d="M176.652,749.079l23.982,17.838,13.406-14.782a137.961,137.961,0,0,0,20.181,9.771l-3.372,20.028,29.056,7.044,6.564-18.843a138.634,138.634,0,0,0,19.911,1.139l4.381,19.855,29.579-4.352-.971-19.948a138.717,138.717,0,0,0,19.549-6.648l11.575,16.7,25.724-15.246-8.46-18.063a137.483,137.483,0,0,0,16.291-14.346l17.139,10.945,17.838-23.989L404.249,702.78a138.887,138.887,0,0,0,8.606-17.253l19.94,3.821,7.693-28.889L421.8,653.476a137.738,137.738,0,0,0,1.574-23.035l19.86-4.38-4.35-29.577-19.944.972a140.674,140.674,0,0,0-5.884-17.784l16.832-11.33-14.876-25.924L396.871,550.6A139.11,139.11,0,0,0,378.9,530.425l10.284-17.094L365.2,495.5l-13.335,15.376A137.734,137.734,0,0,0,331.54,501.6l2.789-19.733-29.051-7.043-6.261,19.346a139.277,139.277,0,0,0-19.853-.642l-4.813-19.381L244.774,478.5l1.445,20.3a139.083,139.083,0,0,0-19.321,7.089L215.117,489.8,189.4,505.041l9.018,18.2a137.236,137.236,0,0,0-15.88,14.684l-17.1-10.29L147.61,551.63l15.368,13.33a137.893,137.893,0,0,0-8.139,17.372l-19.691-3.241-7.709,28.892,19.211,6.7a138.832,138.832,0,0,0-1.013,22.976l-19.384,4.815,4.35,29.574L150.9,670.6a140.711,140.711,0,0,0,6.32,17.542l-16.27,11.576,14.887,25.924,18.343-8.769a138.1,138.1,0,0,0,13.411,15.061Zm36.9-169.444A88.363,88.363,0,1,1,231.74,703.267a88.367,88.367,0,0,1-18.188-123.632" fill="#ffd800"/>
        <path id="Trazado_843213" data-name="Trazado 843213" d="M233.217,221.379l17.8,13.238,9.949-10.97a102.334,102.334,0,0,0,14.977,7.252l-2.5,14.864L295,250.99l4.872-13.984a102.884,102.884,0,0,0,14.777.845l3.251,14.736,21.952-3.23-.721-14.8a103.01,103.01,0,0,0,14.509-4.933l8.59,12.4L381.323,230.7l-6.279-13.406a102.147,102.147,0,0,0,12.09-10.646l12.72,8.123,13.238-17.8-10.966-9.949a103.215,103.215,0,0,0,6.387-12.8l14.8,2.836,5.71-21.44-13.867-5.182a102.3,102.3,0,0,0,1.168-17.1l14.739-3.25-3.228-21.951-14.8.722a104.323,104.323,0,0,0-4.367-13.2l12.492-8.408-11.04-19.239L396.65,74.081a103.125,103.125,0,0,0-13.337-14.973l7.633-12.687-17.8-13.235-9.9,11.411a102.142,102.142,0,0,0-15.081-6.881l2.07-14.645-21.56-5.227L324.029,32.2a103.229,103.229,0,0,0-14.734-.477l-3.572-14.383-21.95,3.226,1.073,15.063a103.325,103.325,0,0,0-14.339,5.261l-8.744-11.937L242.675,40.269l6.693,13.51a101.832,101.832,0,0,0-11.786,10.9L224.9,57.04l-13.232,17.8,11.406,9.893a102.111,102.111,0,0,0-6.04,12.893l-14.614-2.406-5.721,21.442,14.257,4.97a103,103,0,0,0-.752,17.051l-14.385,3.574,3.228,21.947,15.062-1.07a104.387,104.387,0,0,0,4.69,13.019l-12.075,8.591,11.049,19.239,13.613-6.508a102.416,102.416,0,0,0,9.953,11.178ZM260.6,95.628a65.577,65.577,0,1,1,13.5,91.752,65.58,65.58,0,0,1-13.5-91.752" fill="#6ba820"/>
        <path id="Trazado_843214" data-name="Trazado 843214" d="M208.346,4.952l21.463,6.829,3.017.96-.6-4.569c-18.006,8.933-34.864,20.739-47.885,36.18a119.621,119.621,0,0,0-25.479,52.843,161,161,0,0,0-3.047,37.77c.1,3.209,5.1,3.223,5,0-.641-20.726,2.136-41.881,10.655-60.885a117.09,117.09,0,0,1,34.693-43.809,161.942,161.942,0,0,1,28.587-17.782c2.029-1.007,1.322-3.959-.6-4.569L212.692,1.091l-3.017-.96c-3.073-.978-4.389,3.847-1.329,4.821" fill="#4a2a7c"/>
        <path id="Trazado_843215" data-name="Trazado 843215" d="M230.64,33.884l4.6-20.035q.329-1.427.656-2.854c.72-3.132-4.1-4.469-4.821-1.33l-4.6,20.035q-.329,1.428-.656,2.855c-.72,3.132,4.1,4.469,4.821,1.329" fill="#4a2a7c"/>
        <path id="Trazado_843216" data-name="Trazado 843216" d="M414.32,468.2q-1.055,10.373-2.11,20.746l-.3,2.942,4.268-1.767c-11.564-14.676-25.524-27.719-42.063-36.606a111.168,111.168,0,0,0-52.81-12.987,149.554,149.554,0,0,0-34.917,4.463c-3.126.757-1.8,5.579,1.329,4.822,18.688-4.523,38.327-5.965,57.227-1.825a107.559,107.559,0,0,1,45.789,22.824,153.034,153.034,0,0,1,21.91,22.844,2.468,2.468,0,0,0,2.731.517,2.58,2.58,0,0,0,1.536-2.285q1.056-10.373,2.111-20.746.148-1.47.3-2.942a2.517,2.517,0,0,0-2.5-2.5,2.555,2.555,0,0,0-2.5,2.5" fill="#4a2a7c"/>
        <path id="Trazado_843217" data-name="Trazado 843217" d="M392.646,493.969l19.025.366,2.738.053c3.219.062,3.219-4.938,0-5l-19.025-.366-2.738-.053c-3.22-.062-3.22,4.938,0,5" fill="#4a2a7c"/>
        <path id="Trazado_843218" data-name="Trazado 843218" d="M.042,226.147q1.531,10.226,3.064,20.45l.441,2.943a2.464,2.464,0,0,0,2.079,1.791,2.573,2.573,0,0,0,2.491-1.194c10.356-14.508,23.041-27.576,38.37-36.834a105.1,105.1,0,0,1,49.6-14.794,142.8,142.8,0,0,1,33.5,2.641,2.565,2.565,0,0,0,3.075-1.746,2.523,2.523,0,0,0-1.746-3.075c-19.548-3.761-39.859-4.287-59.214.862A112.065,112.065,0,0,0,25.082,223.2,154.792,154.792,0,0,0,3.8,247.613l4.569.6Q6.836,237.985,5.3,227.761l-.441-2.943a2.516,2.516,0,0,0-3.075-1.746,2.563,2.563,0,0,0-1.746,3.075" fill="#4a2a7c"/>
        <path id="Trazado_843219" data-name="Trazado 843219" d="M27.535,244.936,8.673,246.194l-2.715.182a2.557,2.557,0,0,0-2.5,2.5,2.522,2.522,0,0,0,2.5,2.5l18.862-1.259,2.715-.181a2.56,2.56,0,0,0,2.5-2.5,2.522,2.522,0,0,0-2.5-2.5" fill="#4a2a7c"/>
      </g>
    </g>
  </g>
</svg>
