<svg xmlns="http://www.w3.org/2000/svg" xmlns:xlink="http://www.w3.org/1999/xlink" width="120" height="120" viewBox="0 0 120 120">
  <defs>
    <clipPath id="clip-path">
      <rect id="Rectángulo_380977" data-name="Rectángulo 380977" width="72.968" height="72.947" fill="none"/>
    </clipPath>
  </defs>
  <g id="Grupo_1071460" data-name="Grupo 1071460" transform="translate(-269 -958)">
    <circle id="Elipse_5614" data-name="Elipse 5614" cx="60" cy="60" r="60" transform="translate(269 958)" fill="#304c8e"/>
    <g id="Grupo_1082921" data-name="Grupo 1082921" transform="translate(291.203 981.527)">
      <g id="Grupo_1082920" data-name="Grupo 1082920" transform="translate(0 0)" clip-path="url(#clip-path)">
        <path id="Trazado_838151" data-name="Trazado 838151" d="M25.576,40.229c-3.5,0-7.006.006-10.509,0-2.112,0-2.438-.344-2.444-2.5-.006-2.082-.02-4.166.009-6.248.02-1.466.5-1.939,1.981-1.965,1.657-.03,3.315-.05,4.97,0,1,.033,1.34-.357,1.314-1.331-.048-1.845-.03-3.692,0-5.538.023-1.692.539-2.212,2.209-2.231,1.988-.023,3.978-.068,5.963.014,1.213.05,1.56-.429,1.523-1.572-.065-2.033-.038-4.07-.009-6.105.025-1.729.586-2.273,2.329-2.284q4.189-.024,8.378,0c1.673.013,2.184.535,2.207,2.229.024,1.846.043,3.693-.006,5.538-.025.974.315,1.356,1.313,1.331,2.081-.051,4.165-.03,6.247-.008,1.642.017,2.1.481,2.122,2.125.021,1.609.006,3.219.006,4.828,0,2.092,0,2.108,2.118,2.385a15.086,15.086,0,0,1,10.263,5.738,15.241,15.241,0,0,1,2.185,16.156,1.837,1.837,0,0,0,.473,2.36c2.076,2.006,4.157,4.014,6.11,6.138A4.414,4.414,0,0,1,72.044,66.8a4.559,4.559,0,0,1-4.224-1.52c-1.984-1.965-3.98-3.921-5.916-5.933a1.677,1.677,0,0,0-2.21-.462,15.711,15.711,0,0,1-21.94-11.843,16.717,16.717,0,0,1,0-5.1c.239-1.718.273-1.719-1.525-1.72q-5.325-.007-10.65,0M65.84,44.513a12.423,12.423,0,0,0-12.61-12.564,12.571,12.571,0,1,0,.162,25.142A12.415,12.415,0,0,0,65.84,44.513M33.816,25.441V32.96c0,4.267,0,4.237,4.229,4.233A2.144,2.144,0,0,0,40.08,36.02c1.579-2.485,3.6-4.836,6.4-5.576,3.562-.94,4.084-3.064,3.639-6.078a2.019,2.019,0,0,1,0-.425c.058-.856-.373-1.191-1.193-1.181q-2.127.027-4.256,0c-.84-.01-1.194.373-1.173,1.209.029,1.134.006,2.27,0,3.4,0,1.1-.108,2.165-1.524,2.283-1.055.087-1.638-.745-1.7-2.314-.014-.33-.006-.662-.006-.993,0-3.688-.039-7.377.019-11.066.02-1.249-.448-1.7-1.664-1.63a27.137,27.137,0,0,1-3.261,0c-1.171-.069-1.58.4-1.561,1.57.054,3.4.02,6.809.018,10.214m-9.686,5.01c0,1.845.016,3.69-.007,5.535-.01.829.307,1.213,1.171,1.19q2.057-.054,4.115,0c.867.024,1.169-.358,1.165-1.188-.019-3.69-.027-7.381,0-11.07.008-1-.445-1.338-1.379-1.313-1.229.032-2.461.042-3.689,0-1.057-.038-1.419.446-1.394,1.456.042,1.8.012,3.595.014,5.392M65.353,55a3.919,3.919,0,0,0-1.4,1.209c-.393.473.035.781.325,1.071q2.8,2.815,5.618,5.61c.646.637,1.409,1.141,2.2.3.765-.806.154-1.475-.432-2.066q-2.749-2.765-5.517-5.511a8.325,8.325,0,0,0-.8-.616M18.172,37.17a8.521,8.521,0,0,1,1.135.008c1.271.173,1.638-.388,1.6-1.616-.093-3.077.311-2.851-2.816-2.859h-.426c-1.988.008-2,.008-1.991,1.945.011,2.806-.284,2.5,2.5,2.522" transform="translate(-2.677 -2.219)" fill="#fff"/>
        <path id="Trazado_838152" data-name="Trazado 838152" d="M0,36.406Q0,20.781,0,5.157C0,1.568,1.587,0,5.216,0q25,0,50,0c3.678,0,5.224,1.569,5.227,5.291,0,3.693,0,7.386,0,11.08,0,.79-.082,1.535-.9,1.926-1.118.533-2.13-.259-2.144-1.757-.032-3.409-.013-6.818-.014-10.228,0-3.024-.232-3.261-3.187-3.261q-24.076,0-48.153,0c-2.685,0-2.994.314-2.994,3.026q0,30.4,0,60.794c0,2.7.31,3.016,3,3.016q24.219,0,48.437,0c2.533,0,2.884-.351,2.893-2.844.006-1.516,0-3.031.009-4.545,0-1.033.421-1.832,1.533-1.821s1.508.823,1.51,1.85c0,1.941.023,3.882,0,5.823a4.3,4.3,0,0,1-4.644,4.585q-11.861.025-23.721.007-13.353,0-26.7,0c-3.881,0-5.365-1.5-5.365-5.43Q0,51.959,0,36.406" transform="translate(0 0)" fill="#fff"/>
        <path id="Trazado_838153" data-name="Trazado 838153" d="M31.005,82.035q-9.3,0-18.609,0a6.919,6.919,0,0,1-1.414-.069,1.384,1.384,0,0,1-1.191-1.528,1.362,1.362,0,0,1,1.191-1.385,7.629,7.629,0,0,1,1.416-.067q18.538,0,37.076,0c1.142,0,2.421-.145,2.626,1.451.139,1.085-.763,1.6-2.627,1.6q-9.233,0-18.467,0" transform="translate(-2.078 -16.762)" fill="#fff"/>
        <path id="Trazado_838154" data-name="Trazado 838154" d="M19.027,59.906a1.535,1.535,0,0,1-1.267,1.786,1.459,1.459,0,0,1-1.776-1.236c-.279-.985-.818-1.627-1.927-1.431a1.189,1.189,0,0,0-1.109,1.122,1.128,1.128,0,0,0,.905,1.135c.5.145,1.02.207,1.527.323a4.371,4.371,0,0,1,3.576,3.432A4.091,4.091,0,0,1,16.836,69.6a3.845,3.845,0,0,0-1.173,1.175,1.44,1.44,0,0,1-2.56-.027,4.425,4.425,0,0,0-1.431-1.308A3.929,3.929,0,0,1,9.755,66a1.456,1.456,0,0,1,1.169-1.566,1.412,1.412,0,0,1,1.782,1.019c.309.933.708,1.669,1.857,1.567A1.145,1.145,0,0,0,15.737,66a1.09,1.09,0,0,0-.9-1.26c-.633-.179-1.312-.2-1.939-.4a4.268,4.268,0,0,1-1.013-7.824,4.964,4.964,0,0,0,1.326-1.234,1.3,1.3,0,0,1,2.188-.148,11.163,11.163,0,0,0,2.012,1.739,4.02,4.02,0,0,1,1.618,3.032" transform="translate(-2.065 -11.589)" fill="#fff"/>
        <path id="Trazado_838155" data-name="Trazado 838155" d="M31.165,61.832c-1.368,0-2.737.01-4.106,0-1.039-.008-1.777-.438-1.748-1.574.027-1.058.748-1.457,1.72-1.458q4.176-.011,8.353,0c.981,0,1.673.446,1.682,1.5s-.671,1.509-1.654,1.524c-1.416.022-2.832.006-4.248.008" transform="translate(-5.372 -12.478)" fill="#fff"/>
        <path id="Trazado_838156" data-name="Trazado 838156" d="M31.193,71.936c-1.321,0-2.643,0-3.964,0-1.068,0-1.926-.321-1.916-1.555.01-1.148.814-1.49,1.832-1.489q4.035,0,8.07,0c1.015,0,1.83.333,1.848,1.477.019,1.228-.834,1.569-1.906,1.567-1.321,0-2.643,0-3.964,0" transform="translate(-5.372 -14.622)" fill="#fff"/>
        <path id="Trazado_838157" data-name="Trazado 838157" d="M69.41,63.865a4.4,4.4,0,1,1,4.4-4.312,4.476,4.476,0,0,1-4.4,4.312" transform="translate(-13.79 -11.687)" fill="#fff"/>
        <path id="Trazado_838158" data-name="Trazado 838158" d="M56.82,41.157a4.406,4.406,0,0,1,.015,8.812,4.406,4.406,0,1,1-.015-8.812" transform="translate(-11.113 -8.735)" fill="#fff"/>
        <path id="Trazado_838159" data-name="Trazado 838159" d="M56.5,58.744a7.789,7.789,0,0,1,.383-.858Q60.435,51.6,64,45.318a1.925,1.925,0,0,1,1.617-1.211A1.581,1.581,0,0,1,66.865,46.6c-.818,1.594-1.738,3.136-2.62,4.7-1.579,2.794-3.131,5.6-4.757,8.37-.759,1.291-2.184,1.354-2.835.217a1.429,1.429,0,0,1-.15-1.136" transform="translate(-11.981 -9.361)" fill="#fff"/>
      </g>
    </g>
  </g>
</svg>
