<svg xmlns="http://www.w3.org/2000/svg" xmlns:xlink="http://www.w3.org/1999/xlink" width="143.667" height="143.569" viewBox="0 0 143.667 143.569">
  <defs>
    <clipPath id="clip-path">
      <rect id="Rectángulo_381078" data-name="Rectángulo 381078" width="143.667" height="143.569" fill="none"/>
    </clipPath>
  </defs>
  <g id="Grupo_1083334" data-name="Grupo 1083334" transform="translate(-436.667 -5513)">
    <g id="Grupo_1083037" data-name="Grupo 1083037" transform="translate(436.667 5513)">
      <g id="Grupo_1083036" data-name="Grupo 1083036" clip-path="url(#clip-path)">
        <path id="Trazado_842163" data-name="Trazado 842163" d="M17.534,118.675c-3.4-3.021-5.646-6.935-7.853-10.775A69.4,69.4,0,0,1,.225,67.129,70.525,70.525,0,0,1,20.089,22.646,71.33,71.33,0,0,1,62.6,1.058,37.927,37.927,0,0,1,67.357.952q0,.271,0,.54a11.351,11.351,0,0,0-4.64,3.934,5.037,5.037,0,0,1-3.587,2.218C53.2,8.9,49.545,12.892,48.716,18.892L37.628,19c-12.1-1.56-20.241,7.913-20.085,18.819.362,25.365.117,50.737.11,76.107,0,1.582-.077,3.165-.119,4.747" transform="translate(0 -0.408)" fill="#b1e3f8"/>
        <path id="Trazado_842164" data-name="Trazado 842164" d="M129.858.2a66.425,66.425,0,0,1,35.077,9.64c17.347,10.335,28.763,25.371,33.636,45.078a67.828,67.828,0,0,1-2.487,41.609l-1.177-1.74a.938.938,0,0,0-.991-.576l.006-.012c-.041-1.146-.991-1.457-1.764-1.952-2.983-1.913-6.022-1.329-9.078-.237-.006-18.1-.2-36.2.045-54.294.183-13.353-9.8-19.956-19.093-19.175-3.983.335-8.017.059-12.029.061-1.1-6.394-4.736-10.158-11.018-11.262a4.1,4.1,0,0,1-2.828-1.959C136.2,2.6,133.619.733,130.053.625q-.093-.216-.2-.429" transform="translate(-57.047 -0.085)" fill="#b1e3f7"/>
        <path id="Trazado_842165" data-name="Trazado 842165" d="M56.109,33.076,67.2,32.964c.264,3.052-.251,6.164.71,9.161l-11.453.017c-8.528.01-11.895,3.337-11.9,11.788q-.008,30.031.011,60.062c0,1.2.207,2.4.319,3.6-.213,3.049,1.336,5.359,3.317,7.369q9.183,9.32,18.505,18.505c2.012,1.984,4.333,3.508,7.373,3.317l42.056.173a17.735,17.735,0,0,1,3.8,4.668c-4.187,1.664-8.318,3.5-12.826,4.174l-33.58,0a66.44,66.44,0,0,1-31.465-16.659c.022-1.3.062-2.609.062-3.914q.006-42.516,0-85.032A17.23,17.23,0,0,1,45.6,39.831c2.652-3.68,6.381-5.474,10.505-6.756" transform="translate(-18.481 -14.481)" fill="#b66a54"/>
        <path id="Trazado_842166" data-name="Trazado 842166" d="M210,168.117l1.177,1.739c1.153,3.477.08,6.525-1.642,9.55-6.076,10.676-12.063,21.4-18.123,32.087a5.719,5.719,0,0,1-2.033,2.6c-4.357.529-7.374-1.365-9.841-4.892-2.7-3.859-5.786-7.445-8.7-11.156-1.426-1.819-2.8-3.678-4.26-5.473-3.157-3.891-2.883-7.969-.751-12.173,3.218-1.281,5.9,0,8.473,1.782,2.145,2.325,3.579,5.246,6.082,7.273a2.806,2.806,0,0,0,1.689,2.175c2.4,3.1,2.75,3.2,3.991,1,3.63-6.454,7.3-12.885,10.8-19.41a10.725,10.725,0,0,1,7.781-6.037c1.563-.3,2.88.766,4.367.349l-.006.013a.962.962,0,0,0,.991.576" transform="translate(-72.144 -73.419)" fill="#95d5a4"/>
        <path id="Trazado_842167" data-name="Trazado 842167" d="M51.366,33.031c-4.124,1.282-7.853,3.076-10.505,6.756a17.23,17.23,0,0,0-3.474,10.361q.009,42.516,0,85.032c0,1.3-.04,2.609-.062,3.914a23.878,23.878,0,0,1-6.054-6.391c.041-1.582.118-3.165.119-4.747.007-25.37.252-50.742-.11-76.107-.155-10.906,7.989-20.378,20.085-18.819" transform="translate(-13.738 -14.436)" fill="#a95e48"/>
        <path id="Trazado_842168" data-name="Trazado 842168" d="M162.146,190.8c-2.131,4.2-2.405,8.283.751,12.174,1.457,1.795,2.833,3.653,4.26,5.474,2.91,3.71,6,7.3,8.7,11.155,2.467,3.526,5.485,5.421,9.841,4.892-2.131,3.406-8.7,3.956-12.085.575-1.3-1.3-2.468-2.733-3.7-4.107a17.722,17.722,0,0,0-3.8-4.668c-2.154-3.9-5.274-7.091-7.887-10.654-1.268-1.728-2.549-3.435-2.336-5.757a9.909,9.909,0,0,1,2.374-7.343c1.327-.509,2.326-1.745,3.883-1.742" transform="translate(-68.456 -83.82)" fill="#82c0a4"/>
        <path id="Trazado_842169" data-name="Trazado 842169" d="M87.6,27.71c-.961-3-.446-6.11-.71-9.161.828-6,4.479-10,10.412-11.248a5.04,5.04,0,0,0,3.587-2.218,11.355,11.355,0,0,1,4.641-3.933c.312-.016.565-.107.6-.476L106.09.68a4.664,4.664,0,0,0,2.928-.529l1.964.025c.067.142.132.285.194.43a11.375,11.375,0,0,0-7.008,5.1c-.468.8-.9,1.614-2.039,1.654C94.041,7.643,88.8,16.115,90.7,24.942c1.2,5.587,4.877,8.474,9.777,10.391C94.4,35.815,90.513,32.58,87.6,27.71" transform="translate(-38.17 -0.066)" fill="#ebbd5f"/>
        <path id="Trazado_842170" data-name="Trazado 842170" d="M98.186,252.039l33.58,0a63.742,63.742,0,0,1-33.58,0" transform="translate(-43.134 -110.722)" fill="#b1e3f7"/>
        <path id="Trazado_842171" data-name="Trazado 842171" d="M124.063.085a4.668,4.668,0,0,1-2.928.529c.825-1.011,1.934-.449,2.928-.529" transform="translate(-53.215 0)" fill="#b1e3f7"/>
        <path id="Trazado_842172" data-name="Trazado 842172" d="M120.727,1.033c-.031.369-.284.46-.6.476V.969l.6.064" transform="translate(-52.774 -0.426)" fill="#b1e3f7"/>
        <path id="Trazado_842173" data-name="Trazado 842173" d="M168.759,32.922c4.011,0,8.046.274,12.029-.061,9.289-.78,19.276,5.822,19.093,19.175-.248,18.095-.05,36.2-.044,54.294a18.557,18.557,0,0,0-4.308,5.362c-1.295,2.206-2.082,4.76-4.116,6.5q0-32.453-.012-64.906c-.007-7.6-3.559-11.168-11.093-11.214-4.1-.026-8.206-.021-12.309-.03.933-2.983.58-6.075.76-9.121" transform="translate(-73.803 -14.409)" fill="#b56a54"/>
        <path id="Trazado_842174" data-name="Trazado 842174" d="M135.808,18.937c-.181,3.046.173,6.137-.759,9.121-2.636,4.181-5.9,7.563-11.232,7.652-6.884.114-13.772,0-20.658-.02-4.9-1.917-8.576-4.8-9.777-10.391-1.9-8.827,3.341-17.3,11.43-17.585,1.142-.04,1.571-.851,2.039-1.654a11.376,11.376,0,0,1,7.008-5.1c3.566.108,6.144,1.978,8.1,4.754a4.1,4.1,0,0,0,2.828,1.959c6.282,1.1,9.913,4.867,11.018,11.261M114.86,10.061c-1.952-1.146-4.215-1.355-4.73,1.106-.885,4.233-3.542,4.982-7.1,4.825-2.233-.1-4.014.565-4.8,2.884-.057,1.3-.184,2.6-.157,3.893.058,2.828,1.643,4.533,4.492,4.547,7.44.038,14.881-.049,22.324-.085,3.749.212,5.59-.766,6.207-3.3,1.24-5.084-.995-7.89-6.184-7.763l-2.81-.358a5.122,5.122,0,0,1-2.865-3.7c-.559-2.546-2.032-3.084-4.376-2.047" transform="translate(-40.852 -0.423)" fill="#f3dc5a"/>
        <path id="Trazado_842175" data-name="Trazado 842175" d="M203.743,175.011c2.034-1.742,2.821-4.3,4.116-6.5a18.555,18.555,0,0,1,4.308-5.361c3.056-1.093,6.094-1.677,9.078.237.773.5,1.722.806,1.764,1.952-1.487.418-2.8-.649-4.367-.349a10.725,10.725,0,0,0-7.781,6.037c-3.5,6.525-7.172,12.957-10.8,19.41-1.241,2.206-1.595,2.106-3.991-1,2.513-4.833,5.792-9.259,7.675-14.427" transform="translate(-86.134 -71.226)" fill="#93bba5"/>
        <path id="Trazado_842176" data-name="Trazado 842176" d="M245.1,168.442a.962.962,0,0,1-.991-.576.938.938,0,0,1,.991.576" transform="translate(-107.237 -73.744)" fill="#93bba5"/>
        <path id="Trazado_842177" data-name="Trazado 842177" d="M138.037,125.436c-1.883,5.168-5.162,9.594-7.675,14.427a2.806,2.806,0,0,1-1.689-2.176c2.222-.631,3.661-1.981,3.2-4.4s-2.305-3.117-4.59-2.992c-1.563.085-3.131.085-4.7.123-2.574-1.785-5.255-3.063-8.473-1.782-1.556,0-2.556,1.232-3.883,1.74q-13.435-.034-26.869-.073a3.6,3.6,0,0,0-3.911,2.893c-.606,2.472,1.285,4.427,4.335,4.449,8.024.057,16.047.053,24.071.074-.213,2.322,1.068,4.03,2.335,5.758,2.613,3.563,5.734,6.75,7.887,10.654l-42.056-.174c-3.351-2.54-4.174-5.979-3.985-10.025.2-4.381.759-8.92-2.169-12.812,1.5-2.67,3.071-5.3,4.473-8.021,1.079-2.093.3-3.836-1.6-4.991a3.348,3.348,0,0,0-4.9,1.068c-1.939,3.024-3.973,6.027-5.161,9.473l-2.043-.038c-.436-.7-.83-1.441-1.318-2.108-1.039-1.42-2.349-2.482-4.227-2.049a3.811,3.811,0,0,0-3.231,3.676c-2.477.075-3.433-2.13-5.038-3.363-.111-1.2-.318-2.4-.319-3.6Q46.486,91.132,46.5,61.1c0-8.451,3.369-11.777,11.9-11.788q5.727-.007,11.453-.017c2.915,4.87,6.8,8.1,12.879,7.623,6.886.017,13.774.134,20.658.02,5.328-.089,8.6-3.472,11.232-7.652,4.1.009,8.205,0,12.308.03,7.535.047,11.086,3.612,11.093,11.214q.029,32.453.012,64.906m-32.32-42.292h20.161c.653,0,1.308.022,1.96-.011,2.347-.122,3.948-1.188,4.141-3.665.168-2.151-1.605-3.8-4.234-3.835-6.347-.072-12.694-.027-19.041-.028-8.214,0-16.427-.027-24.64.015-3.285.016-5.236,1.93-4.623,4.492.584,2.442,2.467,3.042,4.715,3.037q10.78-.022,21.56,0M105.7,110.3c7.176,0,14.352.013,21.528-.006,3.035-.008,4.69-1.272,4.754-3.53.066-2.315-1.772-3.814-4.824-3.818q-21.528-.024-43.056,0c-2.966,0-4.65,1.334-4.718,3.6-.073,2.429,1.56,3.738,4.787,3.747,7.176.019,14.352.006,21.528.006M61.792,75c-1.051-1.3-1.884-2.416-2.8-3.452-1.716-1.933-3.941-2.251-5.666-.876s-1.941,3.6-.389,5.719c1.818,2.479,3.737,4.884,5.632,7.305,2.649,3.385,5.463,3.193,7.642-.581,2.562-4.436,5.064-8.906,7.562-13.378,1.505-2.7,1.185-4.863-.831-6.122-2.118-1.324-4.343-.522-5.956,2.24C65.255,68.818,63.6,71.818,61.792,75m-.016,27.319c-1-1.269-1.739-2.224-2.5-3.156-1.716-2.1-4.057-2.6-5.848-1.269-1.856,1.381-2.052,3.694-.4,5.915,1.837,2.465,3.7,4.913,5.647,7.294,2.649,3.243,5.329,3.017,7.473-.658,2.582-4.424,5.066-8.906,7.582-13.368,1.565-2.776,1.211-5.119-.932-6.3s-4.31-.287-5.9,2.5c-1.661,2.906-3.3,5.825-5.125,9.051M95.1,120.435c-3.724,0-7.448-.044-11.171.014-2.908.045-4.571,1.489-4.555,3.786s1.679,3.724,4.606,3.743q11.031.07,22.063,0c2.876-.02,4.616-1.548,4.6-3.792s-1.763-3.7-4.65-3.738c-3.63-.052-7.262-.012-10.892-.012m-.03-19.788c3.73,0,7.462.041,11.191-.014,2.647-.039,4.376-1.581,4.359-3.725-.016-2.191-1.651-3.6-4.4-3.61q-11.192-.052-22.383,0c-2.863.011-4.378,1.267-4.446,3.521-.07,2.341,1.579,3.787,4.492,3.82,3.73.041,7.461.01,11.191.01m-.284-27.364c3.917,0,7.835.041,11.75-.015,2.454-.036,4.1-1.582,4.092-3.652-.011-2.037-1.705-3.641-4.13-3.657q-11.47-.074-22.942,0c-2.665.016-4.343,1.589-4.152,3.833.213,2.5,1.79,3.512,4.19,3.5,3.73-.017,7.461,0,11.191-.007" transform="translate(-20.428 -21.652)" fill="#f7f3f6"/>
        <path id="Trazado_842178" data-name="Trazado 842178" d="M47.081,183.9c1.6,1.233,2.561,3.438,5.038,3.364,2.877,1.043,5.858.191,8.776.48l2.043.038c2.825-.427,4.94,1.21,7.185,2.472,2.927,3.892,2.373,8.432,2.168,12.812-.188,4.045.635,7.484,3.985,10.025-3.04.192-5.361-1.333-7.373-3.316q-9.319-9.186-18.5-18.506c-1.981-2.01-3.53-4.321-3.317-7.369" transform="translate(-20.674 -80.789)" fill="#dcd8e9"/>
        <path id="Trazado_842179" data-name="Trazado 842179" d="M182.208,193.873c1.565-.038,3.133-.038,4.7-.123,2.285-.125,4.135.574,4.59,2.992s-.983,3.772-3.2,4.4c-2.5-2.027-3.937-4.947-6.082-7.273" transform="translate(-80.045 -85.109)" fill="#675f67"/>
        <path id="Trazado_842180" data-name="Trazado 842180" d="M133.594,201.192c-8.024-.021-16.047-.018-24.07-.075-3.051-.021-4.941-1.976-4.336-4.449a3.6,3.6,0,0,1,3.911-2.893q13.434.046,26.868.073a9.911,9.911,0,0,0-2.373,7.343" transform="translate(-46.16 -85.127)" fill="#675f67"/>
        <path id="Trazado_842181" data-name="Trazado 842181" d="M128.862,41.264c-7.442.038-14.882.124-22.322.087-2.849-.015-4.434-1.72-4.493-4.547-.026-1.3.1-2.6.156-3.895l28.608.044c1.009,3.16.8,6.034-1.95,8.311" transform="translate(-44.828 -14.458)" fill="#b56a54"/>
        <path id="Trazado_842182" data-name="Trazado 842182" d="M130.937,25.4l-28.608-.043c.783-2.319,2.565-2.982,4.8-2.884,3.562.158,6.219-.593,7.1-4.825.515-2.46,2.778-2.251,4.731-1.105,2.027,5.787,2.629,6.265,7.241,5.749l2.81.358c.673.9,1.942,1.373,1.924,2.751" transform="translate(-44.954 -6.908)" fill="#b1e3f7"/>
        <path id="Trazado_842183" data-name="Trazado 842183" d="M151.824,30.828c.018-1.378-1.251-1.856-1.924-2.751,5.189-.126,7.424,2.679,6.184,7.763-.618,2.534-2.458,3.512-6.209,3.3,2.752-2.278,2.959-5.152,1.949-8.312" transform="translate(-65.841 -12.332)" fill="#ebbd5f"/>
        <path id="Trazado_842184" data-name="Trazado 842184" d="M139.234,22.548c-4.612.516-5.214.038-7.241-5.749,2.344-1.037,3.817-.5,4.376,2.047a5.119,5.119,0,0,0,2.865,3.7" transform="translate(-57.985 -7.161)" fill="#ebbd5f"/>
        <path id="Trazado_842185" data-name="Trazado 842185" d="M131.439,103.754q-10.78,0-21.56.005c-2.249,0-4.131-.6-4.715-3.037-.613-2.562,1.338-4.476,4.622-4.492,8.214-.041,16.427-.015,24.641-.015,6.347,0,12.694-.044,19.04.028,2.629.03,4.4,1.683,4.234,3.835-.193,2.477-1.794,3.543-4.141,3.665-.652.034-1.306.011-1.96.011h-20.16" transform="translate(-46.149 -42.262)" fill="#6e666e"/>
        <path id="Trazado_842186" data-name="Trazado 842186" d="M131.464,152.335c-7.176,0-14.352.013-21.528-.006-3.227-.009-4.86-1.318-4.788-3.747.068-2.267,1.752-3.6,4.718-3.6q21.528-.024,43.056,0c3.052,0,4.89,1.5,4.824,3.818-.064,2.258-1.72,3.522-4.755,3.53-7.176.02-14.352.007-21.528.007" transform="translate(-46.191 -63.686)" fill="#675f67"/>
        <path id="Trazado_842187" data-name="Trazado 842187" d="M66.013,85.746c1.8-3.188,3.463-6.187,5.191-9.146,1.613-2.762,3.837-3.564,5.956-2.241,2.016,1.26,2.336,3.427.83,6.123-2.5,4.473-5,8.943-7.561,13.378-2.18,3.773-4.993,3.966-7.643.581-1.9-2.422-3.814-4.826-5.632-7.305-1.552-2.117-1.342-4.34.389-5.719s3.95-1.056,5.665.876c.92,1.036,1.752,2.15,2.8,3.452" transform="translate(-24.649 -32.393)" fill="#dd6670"/>
        <path id="Trazado_842188" data-name="Trazado 842188" d="M66.009,134.43c1.825-3.226,3.463-6.145,5.125-9.051,1.591-2.783,3.752-3.685,5.9-2.5s2.5,3.528.932,6.3c-2.516,4.463-5,8.944-7.582,13.368-2.145,3.674-4.825,3.9-7.474.658-1.945-2.381-3.81-4.828-5.647-7.294-1.655-2.221-1.459-4.534.4-5.915,1.791-1.332,4.132-.83,5.848,1.269.762.933,1.5,1.887,2.5,3.156" transform="translate(-24.661 -53.759)" fill="#dd6670"/>
        <path id="Trazado_842189" data-name="Trazado 842189" d="M120.855,176.169c3.631,0,7.262-.04,10.892.012,2.887.042,4.634,1.5,4.65,3.738s-1.724,3.772-4.6,3.792q-11.031.075-22.063,0c-2.927-.019-4.59-1.454-4.606-3.743s1.647-3.741,4.556-3.786c3.722-.058,7.447-.014,11.171-.014" transform="translate(-46.184 -77.385)" fill="#6e666e"/>
        <path id="Trazado_842190" data-name="Trazado 842190" d="M120.834,135.111c-3.73,0-7.461.031-11.191-.01-2.913-.032-4.562-1.479-4.492-3.819.068-2.255,1.583-3.51,4.446-3.522q11.191-.045,22.383,0c2.754.013,4.389,1.419,4.4,3.61.016,2.145-1.712,3.687-4.359,3.726-3.73.055-7.461.014-11.191.014" transform="translate(-46.192 -56.115)" fill="#675f67"/>
        <path id="Trazado_842191" data-name="Trazado 842191" d="M120.554,86.318c-3.73,0-7.461-.012-11.191.006-2.4.011-3.977-1-4.19-3.5-.191-2.244,1.487-3.817,4.152-3.833q11.471-.07,22.942,0c2.425.016,4.119,1.62,4.13,3.657.011,2.071-1.638,3.616-4.092,3.652-3.916.057-7.833.015-11.751.016" transform="translate(-46.196 -34.685)" fill="#675f67"/>
        <path id="Trazado_842192" data-name="Trazado 842192" d="M82.561,184.542c-2.244-1.262-4.359-2.9-7.185-2.471,1.189-3.446,3.223-6.449,5.162-9.473a3.348,3.348,0,0,1,4.9-1.069c1.9,1.156,2.678,2.9,1.6,4.991-1.4,2.72-2.974,5.352-4.473,8.021" transform="translate(-33.113 -75.076)" fill="#dd6670"/>
        <path id="Trazado_842193" data-name="Trazado 842193" d="M64.856,187.423c-2.918-.289-5.9.563-8.776-.48a3.811,3.811,0,0,1,3.23-3.677c1.878-.433,3.189.629,4.227,2.049.488.667.882,1.4,1.319,2.108" transform="translate(-24.636 -80.467)" fill="#dd6670"/>
      </g>
    </g>
  </g>
</svg>
