<svg xmlns="http://www.w3.org/2000/svg" xmlns:xlink="http://www.w3.org/1999/xlink" width="1030" height="495" viewBox="0 0 1030 495">
  <defs>
    <clipPath id="clip-path">
      <path id="Trazado_843140" data-name="Trazado 843140" d="M0,0H847.7V374.309H0Z" fill="none"/>
    </clipPath>
    <clipPath id="clip-path-2">
      <rect id="Rectángulo_381270" data-name="Rectángulo 381270" width="178.841" height="18.602" fill="none"/>
    </clipPath>
    <clipPath id="clip-path-3">
      <rect id="Rectángulo_381271" data-name="Rectángulo 381271" width="93.252" height="18.602" fill="none"/>
    </clipPath>
    <clipPath id="clip-path-4">
      <path id="Trazado_843144" data-name="Trazado 843144" d="M0,0H74.633V38.419H0Z" fill="none"/>
    </clipPath>
    <clipPath id="clip-path-5">
      <rect id="Rectángulo_381273" data-name="Rectángulo 381273" width="103.92" height="18.602" fill="none"/>
    </clipPath>
    <clipPath id="clip-path-6">
      <path id="Trazado_843155" data-name="Trazado 843155" d="M0,0H178.841V18.6H0Z" fill="none"/>
    </clipPath>
    <clipPath id="clip-path-8">
      <rect id="Rectángulo_381276" data-name="Rectángulo 381276" width="242.2" height="18.989" fill="none"/>
    </clipPath>
    <clipPath id="clip-path-9">
      <rect id="Rectángulo_381277" data-name="Rectángulo 381277" width="242.2" height="18.99" fill="none"/>
    </clipPath>
    <clipPath id="clip-path-10">
      <path id="Trazado_843145" data-name="Trazado 843145" d="M0,0H101.834V18.989H0Z" fill="none"/>
    </clipPath>
    <clipPath id="clip-path-11">
      <rect id="Rectángulo_381280" data-name="Rectángulo 381280" width="847.701" height="374.309" fill="none"/>
    </clipPath>
  </defs>
  <g id="Grupo_1083337" data-name="Grupo 1083337" transform="translate(10205 3607)">
    <rect id="Rectángulo_381264" data-name="Rectángulo 381264" width="1030" height="495" transform="translate(-10205 -3607)" fill="#fdfde3"/>
    <g id="Grupo_1083284" data-name="Grupo 1083284" transform="translate(-10123.85 -3546.655)">
      <path id="Trazado_843148" data-name="Trazado 843148" d="M0,0H212.679V39.69H0Z" transform="translate(330.272 133.434)" fill="#60cb28"/>
      <path id="Trazado_843149" data-name="Trazado 843149" d="M0,0H212.679V39.69H0Z" transform="translate(330.272 173.125)" fill="#304c8e"/>
      <path id="Trazado_843150" data-name="Trazado 843150" d="M0,0H212.679V39.69H0Z" transform="translate(330.272 212.814)" fill="#dee9f0"/>
      <path id="Trazado_843151" data-name="Trazado 843151" d="M0,0H212.679V39.69H0Z" transform="translate(330.272 252.504)" fill="#ffe126"/>
      <path id="Trazado_843152" data-name="Trazado 843152" d="M0,0H212.679V39.69H0Z" transform="translate(330.272 291.446)" fill="#7e10b8"/>
      <g id="Grupo_1083277" data-name="Grupo 1083277">
        <g id="Enmascarar_grupo_389" data-name="Enmascarar grupo 389" clip-path="url(#clip-path)">
          <path id="Trazado_843029" data-name="Trazado 843029" d="M153.467,76.075H8.917A8.917,8.917,0,0,1,0,67.158V36.369a8.917,8.917,0,0,1,8.917-8.918h144.55a8.917,8.917,0,0,1,8.917,8.918V67.158a8.917,8.917,0,0,1-8.917,8.917" transform="translate(0 1.907)" fill="#60cb28"/>
          <path id="Trazado_843030" data-name="Trazado 843030" d="M419.665,33.945H300.126a6.744,6.744,0,0,1-6.744-6.744V6.743A6.744,6.744,0,0,1,300.126,0H419.665a6.743,6.743,0,0,1,6.744,6.743V27.2a6.744,6.744,0,0,1-6.744,6.744" transform="translate(20.377 0)" fill="#60cb28"/>
          <path id="Trazado_843031" data-name="Trazado 843031" d="M240.955,146.418H9.5a9.5,9.5,0,0,1-9.5-9.5V107.3a9.5,9.5,0,0,1,9.5-9.5H240.955a9.5,9.5,0,0,1,9.5,9.5v29.62a9.5,9.5,0,0,1-9.5,9.5" transform="translate(0 6.792)" fill="#304c8e"/>
          <path id="Trazado_843032" data-name="Trazado 843032" d="M199.771,218.477H9.4a9.4,9.4,0,0,1-9.4-9.4V179.256a9.4,9.4,0,0,1,9.4-9.4H199.771a9.4,9.4,0,0,1,9.4,9.4v29.819a9.4,9.4,0,0,1-9.4,9.4" transform="translate(0 11.797)" fill="#dee9f0"/>
          <path id="Trazado_843033" data-name="Trazado 843033" d="M199.891,286.246H9.283A9.283,9.283,0,0,1,0,276.963V246.9a9.283,9.283,0,0,1,9.283-9.283H199.891a9.283,9.283,0,0,1,9.283,9.283v30.058a9.283,9.283,0,0,1-9.283,9.283" transform="translate(0 16.504)" fill="#ffe126"/>
          <path id="Trazado_843034" data-name="Trazado 843034" d="M200.669,353.158H8.5a8.5,8.5,0,0,1-8.5-8.5V313.038a8.5,8.5,0,0,1,8.5-8.5H200.669a8.5,8.5,0,0,1,8.5,8.5v31.615a8.5,8.5,0,0,1-8.5,8.5" transform="translate(0 21.152)" fill="#7e10b8"/>
          <path id="Trazado_843035" data-name="Trazado 843035" d="M580.33,104.938,507.69,168.592V128.9L580.33,65.248Z" transform="translate(35.262 4.532)" fill="#60cb28"/>
          <path id="Trazado_843036" data-name="Trazado 843036" d="M580.33,129.66,507.69,206.045V166.354l72.641-68.9Z" transform="translate(35.262 6.769)" fill="#304c8e"/>
          <path id="Trazado_843037" data-name="Trazado 843037" d="M580.33,165.158,507.69,243.79V204.1l72.641-78.631Z" transform="translate(35.262 8.714)" fill="#dee9f0"/>
          <path id="Trazado_843038" data-name="Trazado 843038" d="M580.33,201.57l-72.641,79.38V241.26l72.641-79.379Z" transform="translate(35.262 11.244)" fill="#ffe126"/>
          <path id="Trazado_843039" data-name="Trazado 843039" d="M580.33,238.683,507.69,317.314V277.624l72.641-78.631Z" transform="translate(35.262 13.821)" fill="#7e10b8"/>
          <g id="Grupo_1083251" data-name="Grupo 1083251" transform="translate(18.349 44.368)" style="isolation: isolate">
            <g id="Grupo_1083250" data-name="Grupo 1083250">
              <g id="Grupo_1083249" data-name="Grupo 1083249" clip-path="url(#clip-path-2)">
                <path id="Trazado_843160" data-name="Trazado 843160" d="M4.078-11.375,7-3.125l2.906-8.25h3.078V0H10.633V-3.109l.234-5.367L7.8,0H6.188L3.125-8.469l.234,5.359V0H1.016V-11.375ZM14.531-4.3a5.013,5.013,0,0,1,.484-2.242A3.546,3.546,0,0,1,16.41-8.07a4.069,4.069,0,0,1,2.113-.539,3.849,3.849,0,0,1,2.793,1.047,4.2,4.2,0,0,1,1.207,2.844l.016.578A4.418,4.418,0,0,1,21.453-1.02,3.775,3.775,0,0,1,18.539.156a3.793,3.793,0,0,1-2.918-1.172A4.5,4.5,0,0,1,14.531-4.2Zm2.258.16A3.16,3.16,0,0,0,17.242-2.3a1.5,1.5,0,0,0,1.3.638,1.5,1.5,0,0,0,1.281-.63,3.457,3.457,0,0,0,.461-2.015A3.128,3.128,0,0,0,19.82-6.14a1.5,1.5,0,0,0-1.3-.649,1.474,1.474,0,0,0-1.281.646A3.516,3.516,0,0,0,16.789-4.144Zm9.219-4.309.07.977a2.951,2.951,0,0,1,2.43-1.133,2.453,2.453,0,0,1,2,.789,3.682,3.682,0,0,1,.672,2.359V0H28.922V-5.406a1.465,1.465,0,0,0-.312-1.043,1.4,1.4,0,0,0-1.039-.324,1.553,1.553,0,0,0-1.43.813V0H23.883V-8.453ZM35.273,0H33.008V-8.453h2.266Zm-2.4-10.641a1.112,1.112,0,0,1,.34-.836,1.277,1.277,0,0,1,.926-.328,1.28,1.28,0,0,1,.922.328,1.105,1.105,0,0,1,.344.836,1.108,1.108,0,0,1-.348.844,1.283,1.283,0,0,1-.918.328,1.283,1.283,0,0,1-.918-.328A1.108,1.108,0,0,1,32.875-10.641Zm6.961.109v2.078h1.445V-6.8H39.836v4.219a1.007,1.007,0,0,0,.18.672.9.9,0,0,0,.688.2,3.6,3.6,0,0,0,.664-.055V-.047A4.648,4.648,0,0,1,40,.156a2.156,2.156,0,0,1-2.422-2.4V-6.8H36.344V-8.453h1.234v-2.078ZM41.729-4.3a5.013,5.013,0,0,1,.484-2.242A3.546,3.546,0,0,1,43.608-8.07a4.069,4.069,0,0,1,2.113-.539,3.849,3.849,0,0,1,2.793,1.047,4.2,4.2,0,0,1,1.207,2.844l.016.578A4.418,4.418,0,0,1,48.651-1.02,3.775,3.775,0,0,1,45.737.156a3.793,3.793,0,0,1-2.918-1.172A4.5,4.5,0,0,1,41.729-4.2Zm2.258.16A3.16,3.16,0,0,0,44.44-2.3a1.5,1.5,0,0,0,1.3.638,1.5,1.5,0,0,0,1.281-.63,3.457,3.457,0,0,0,.461-2.015,3.128,3.128,0,0,0-.461-1.831,1.5,1.5,0,0,0-1.3-.649,1.474,1.474,0,0,0-1.281.646A3.516,3.516,0,0,0,43.987-4.144ZM55.878-6.336a6.134,6.134,0,0,0-.812-.062,1.654,1.654,0,0,0-1.68.867V0H51.128V-8.453H53.26l.063,1.008a2.092,2.092,0,0,1,1.883-1.164,2.366,2.366,0,0,1,.7.1ZM60.562.156A4.15,4.15,0,0,1,57.534-.984a4.054,4.054,0,0,1-1.168-3.039v-.219a5.106,5.106,0,0,1,.492-2.277,3.612,3.612,0,0,1,1.395-1.547,3.914,3.914,0,0,1,2.059-.543,3.508,3.508,0,0,1,2.73,1.094,4.444,4.444,0,0,1,1,3.1v.922H58.655a2.1,2.1,0,0,0,.66,1.328,2,2,0,0,0,1.395.5,2.437,2.437,0,0,0,2.039-.945l1.109,1.242A3.389,3.389,0,0,1,62.484-.246,4.511,4.511,0,0,1,60.562.156ZM60.3-6.789a1.411,1.411,0,0,0-1.09.455,2.357,2.357,0,0,0-.535,1.3h3.141v-.181a1.681,1.681,0,0,0-.406-1.165A1.456,1.456,0,0,0,60.3-6.789ZM64.968-4.3a5.013,5.013,0,0,1,.484-2.242A3.546,3.546,0,0,1,66.847-8.07a4.069,4.069,0,0,1,2.113-.539,3.849,3.849,0,0,1,2.793,1.047A4.2,4.2,0,0,1,72.96-4.719l.016.578A4.418,4.418,0,0,1,71.89-1.02,3.775,3.775,0,0,1,68.976.156a3.793,3.793,0,0,1-2.918-1.172A4.5,4.5,0,0,1,64.968-4.2Zm2.258.16A3.16,3.16,0,0,0,67.679-2.3a1.5,1.5,0,0,0,1.3.638,1.5,1.5,0,0,0,1.281-.63,3.457,3.457,0,0,0,.461-2.015,3.128,3.128,0,0,0-.461-1.831,1.5,1.5,0,0,0-1.3-.649,1.474,1.474,0,0,0-1.281.646A3.516,3.516,0,0,0,67.226-4.144Z" transform="translate(0 13.085)" fill="#12263f"/>
              </g>
            </g>
          </g>
          <g id="Grupo_1083254" data-name="Grupo 1083254" transform="translate(333.647 9.506)" style="isolation: isolate">
            <g id="Grupo_1083253" data-name="Grupo 1083253">
              <g id="Grupo_1083252" data-name="Grupo 1083252" clip-path="url(#clip-path-3)">
                <path id="Trazado_843161" data-name="Trazado 843161" d="M10.359-5.43a6.867,6.867,0,0,1-.594,2.945,4.472,4.472,0,0,1-1.7,1.953A4.7,4.7,0,0,1,5.531.156a4.732,4.732,0,0,1-2.523-.68A4.515,4.515,0,0,1,1.289-2.465a6.67,6.67,0,0,1-.617-2.9V-5.93a6.831,6.831,0,0,1,.605-2.957,4.508,4.508,0,0,1,1.711-1.961,4.706,4.706,0,0,1,2.527-.684,4.706,4.706,0,0,1,2.527.684A4.508,4.508,0,0,1,9.754-8.887a6.811,6.811,0,0,1,.605,2.949ZM7.984-5.945a4.787,4.787,0,0,0-.641-2.719,2.088,2.088,0,0,0-1.828-.93,2.088,2.088,0,0,0-1.82.918,4.732,4.732,0,0,0-.648,2.691v.555a4.847,4.847,0,0,0,.641,2.7,2.082,2.082,0,0,0,1.844.961,2.064,2.064,0,0,0,1.813-.926,4.819,4.819,0,0,0,.641-2.7Zm11.539,1.8a5.07,5.07,0,0,1-.887,3.129A2.843,2.843,0,0,1,16.242.156a2.633,2.633,0,0,1-2.07-.891V3.25H11.914v-11.7h2.094l.078.828a2.654,2.654,0,0,1,2.141-.984,2.862,2.862,0,0,1,2.43,1.156,5.207,5.207,0,0,1,.867,3.188Zm-2.258-.164a3.327,3.327,0,0,0-.418-1.82,1.361,1.361,0,0,0-1.215-.641,1.478,1.478,0,0,0-1.461.813V-2.5a1.5,1.5,0,0,0,1.477.836Q17.266-1.664,17.266-4.312ZM24.813.156A4.15,4.15,0,0,1,21.785-.984a4.054,4.054,0,0,1-1.168-3.039v-.219a5.106,5.106,0,0,1,.492-2.277A3.612,3.612,0,0,1,22.5-8.066a3.914,3.914,0,0,1,2.059-.543,3.508,3.508,0,0,1,2.73,1.094,4.444,4.444,0,0,1,1,3.1v.922H22.906a2.1,2.1,0,0,0,.66,1.328,2,2,0,0,0,1.395.5A2.437,2.437,0,0,0,27-2.609l1.109,1.242A3.389,3.389,0,0,1,26.734-.246,4.511,4.511,0,0,1,24.813.156Zm-.258-6.945a1.411,1.411,0,0,0-1.09.455,2.357,2.357,0,0,0-.535,1.3H26.07v-.181a1.681,1.681,0,0,0-.406-1.165A1.456,1.456,0,0,0,24.555-6.789Zm9.766.453a6.134,6.134,0,0,0-.812-.062,1.654,1.654,0,0,0-1.68.867V0H29.57V-8.453H31.7l.063,1.008a2.092,2.092,0,0,1,1.883-1.164,2.366,2.366,0,0,1,.7.1ZM39.846,0a2.507,2.507,0,0,1-.227-.758,2.732,2.732,0,0,1-2.133.914,3,3,0,0,1-2.059-.719,2.312,2.312,0,0,1-.816-1.812,2.389,2.389,0,0,1,1-2.062,4.915,4.915,0,0,1,2.879-.727h1.039v-.484a1.393,1.393,0,0,0-.3-.937,1.183,1.183,0,0,0-.949-.352,1.345,1.345,0,0,0-.895.273.929.929,0,0,0-.324.75H34.8a2.268,2.268,0,0,1,.453-1.359,3,3,0,0,1,1.281-.98,4.669,4.669,0,0,1,1.859-.355,3.689,3.689,0,0,1,2.48.785,2.747,2.747,0,0,1,.918,2.207v3.664a4.041,4.041,0,0,0,.336,1.82V0ZM37.979-1.57a1.945,1.945,0,0,0,.922-.223,1.462,1.462,0,0,0,.625-.6V-3.844h-.844q-1.7,0-1.8,1.172l-.008.133a.9.9,0,0,0,.3.7A1.153,1.153,0,0,0,37.979-1.57Zm9.063-.094a1.481,1.481,0,0,0,1.016-.344,1.2,1.2,0,0,0,.406-.914h2.117a2.9,2.9,0,0,1-.469,1.574A3.093,3.093,0,0,1,48.85-.238a3.949,3.949,0,0,1-1.77.395A3.67,3.67,0,0,1,44.221-1,4.56,4.56,0,0,1,43.174-4.18v-.148a4.508,4.508,0,0,1,1.039-3.117,3.627,3.627,0,0,1,2.852-1.164,3.555,3.555,0,0,1,2.543.9,3.2,3.2,0,0,1,.973,2.4H48.464a1.551,1.551,0,0,0-.406-1.072,1.354,1.354,0,0,0-1.031-.412,1.36,1.36,0,0,0-1.191.575,3.333,3.333,0,0,0-.4,1.866v.235a3.375,3.375,0,0,0,.4,1.878A1.377,1.377,0,0,0,47.042-1.664ZM54.253,0H51.987V-8.453h2.266Zm-2.4-10.641a1.112,1.112,0,0,1,.34-.836,1.277,1.277,0,0,1,.926-.328,1.28,1.28,0,0,1,.922.328,1.105,1.105,0,0,1,.344.836,1.108,1.108,0,0,1-.348.844,1.283,1.283,0,0,1-.918.328A1.283,1.283,0,0,1,52.2-9.8,1.108,1.108,0,0,1,51.854-10.641ZM55.76-4.3a5.013,5.013,0,0,1,.484-2.242A3.546,3.546,0,0,1,57.639-8.07a4.069,4.069,0,0,1,2.113-.539,3.849,3.849,0,0,1,2.793,1.047,4.2,4.2,0,0,1,1.207,2.844l.016.578A4.418,4.418,0,0,1,62.682-1.02,3.775,3.775,0,0,1,59.768.156,3.793,3.793,0,0,1,56.85-1.016,4.5,4.5,0,0,1,55.76-4.2Zm2.258.16A3.16,3.16,0,0,0,58.471-2.3a1.5,1.5,0,0,0,1.3.638,1.5,1.5,0,0,0,1.281-.63,3.457,3.457,0,0,0,.461-2.015,3.128,3.128,0,0,0-.461-1.831,1.5,1.5,0,0,0-1.3-.649,1.474,1.474,0,0,0-1.281.646A3.516,3.516,0,0,0,58.018-4.144Zm9.219-4.309.07.977a2.951,2.951,0,0,1,2.43-1.133,2.453,2.453,0,0,1,2,.789,3.682,3.682,0,0,1,.672,2.359V0H70.151V-5.406a1.465,1.465,0,0,0-.312-1.043A1.4,1.4,0,0,0,68.8-6.773a1.553,1.553,0,0,0-1.43.813V0H65.112V-8.453ZM78.01.156A4.15,4.15,0,0,1,74.983-.984a4.054,4.054,0,0,1-1.168-3.039v-.219a5.106,5.106,0,0,1,.492-2.277A3.612,3.612,0,0,1,75.7-8.066a3.914,3.914,0,0,1,2.059-.543,3.508,3.508,0,0,1,2.73,1.094,4.444,4.444,0,0,1,1,3.1v.922H76.1a2.1,2.1,0,0,0,.66,1.328,2,2,0,0,0,1.395.5A2.437,2.437,0,0,0,80.2-2.609l1.109,1.242A3.389,3.389,0,0,1,79.932-.246,4.511,4.511,0,0,1,78.01.156Zm-.258-6.945a1.411,1.411,0,0,0-1.09.455,2.357,2.357,0,0,0-.535,1.3h3.141v-.181a1.681,1.681,0,0,0-.406-1.165A1.456,1.456,0,0,0,77.753-6.789Zm9.594,4.453a.727.727,0,0,0-.41-.652,4.659,4.659,0,0,0-1.316-.426Q82.6-4.047,82.6-5.977a2.323,2.323,0,0,1,.934-1.879,3.766,3.766,0,0,1,2.441-.754,4.053,4.053,0,0,1,2.574.758,2.388,2.388,0,0,1,.965,1.969H87.26a1.092,1.092,0,0,0-.312-.8A1.322,1.322,0,0,0,85.971-7a1.351,1.351,0,0,0-.883.258.814.814,0,0,0-.312.656.7.7,0,0,0,.355.605,3.657,3.657,0,0,0,1.2.4,9.8,9.8,0,0,1,1.422.379A2.336,2.336,0,0,1,89.542-2.43a2.2,2.2,0,0,1-.992,1.871,4.28,4.28,0,0,1-2.562.715A4.47,4.47,0,0,1,84.1-.223a3.166,3.166,0,0,1-1.293-1.039,2.414,2.414,0,0,1-.469-1.426h2.141a1.179,1.179,0,0,0,.445.922,1.766,1.766,0,0,0,1.109.32,1.635,1.635,0,0,0,.98-.246A.766.766,0,0,0,87.346-2.336Z" transform="translate(0.001 13.085)" fill="#12263f"/>
              </g>
            </g>
          </g>
          <path id="Trazado_843040" data-name="Trazado 843040" d="M530.457,52.293h-92.3a7.518,7.518,0,0,1-7.518-7.518V7.518A7.518,7.518,0,0,1,438.155,0h92.3a7.518,7.518,0,0,1,7.518,7.518V44.775a7.518,7.518,0,0,1-7.518,7.518" transform="translate(29.91 0)" fill="#e1f5d6"/>
          <g id="Grupo_1083257" data-name="Grupo 1083257" transform="translate(476.9 9.506)" style="isolation: isolate">
            <g id="Grupo_1083256" data-name="Grupo 1083256">
              <g id="Enmascarar_grupo_390" data-name="Enmascarar grupo 390" clip-path="url(#clip-path-4)">
                <path id="Trazado_843142" data-name="Trazado 843142" d="M3.508,0H1.164V-11.375H3.508Zm4.1-8.453.07.977a2.951,2.951,0,0,1,2.43-1.133,2.453,2.453,0,0,1,2,.789,3.682,3.682,0,0,1,.672,2.359V0H10.523V-5.406a1.465,1.465,0,0,0-.312-1.043,1.4,1.4,0,0,0-1.039-.324,1.553,1.553,0,0,0-1.43.813V0H5.484V-8.453ZM15.109,0V-6.8H13.852V-8.453h1.258v-.719a2.918,2.918,0,0,1,.816-2.207,3.162,3.162,0,0,1,2.285-.785,5.278,5.278,0,0,1,1.148.156l-.023,1.75a2.878,2.878,0,0,0-.687-.07q-1.273,0-1.273,1.2v.68h1.68V-6.8h-1.68V0Zm4.766-4.3a5.013,5.013,0,0,1,.484-2.242A3.546,3.546,0,0,1,21.754-8.07a4.069,4.069,0,0,1,2.113-.539A3.849,3.849,0,0,1,26.66-7.562a4.2,4.2,0,0,1,1.207,2.844l.016.578A4.418,4.418,0,0,1,26.8-1.02,3.775,3.775,0,0,1,23.883.156a3.793,3.793,0,0,1-2.918-1.172A4.5,4.5,0,0,1,19.875-4.2Zm2.258.16A3.16,3.16,0,0,0,22.586-2.3a1.5,1.5,0,0,0,1.3.638,1.5,1.5,0,0,0,1.281-.63,3.457,3.457,0,0,0,.461-2.015,3.128,3.128,0,0,0-.461-1.831,1.5,1.5,0,0,0-1.3-.649,1.474,1.474,0,0,0-1.281.646A3.516,3.516,0,0,0,22.133-4.144ZM34.023-6.336a6.134,6.134,0,0,0-.812-.062,1.654,1.654,0,0,0-1.68.867V0H29.273V-8.453h2.133l.063,1.008a2.092,2.092,0,0,1,1.883-1.164,2.366,2.366,0,0,1,.7.1Zm3.2-2.117.07.945a2.971,2.971,0,0,1,2.43-1.1A2.255,2.255,0,0,1,41.969-7.32a2.9,2.9,0,0,1,2.539-1.289,2.521,2.521,0,0,1,2.047.8,3.681,3.681,0,0,1,.672,2.41V0H44.961V-5.391a1.61,1.61,0,0,0-.281-1.051,1.246,1.246,0,0,0-.992-.332,1.409,1.409,0,0,0-1.406.969L42.289,0H40.031V-5.383a1.59,1.59,0,0,0-.289-1.062,1.259,1.259,0,0,0-.984-.328,1.463,1.463,0,0,0-1.391.8V0H35.109V-8.453ZM52.852.156A4.15,4.15,0,0,1,49.824-.984a4.054,4.054,0,0,1-1.168-3.039v-.219a5.106,5.106,0,0,1,.492-2.277,3.612,3.612,0,0,1,1.395-1.547A3.914,3.914,0,0,1,52.6-8.609a3.508,3.508,0,0,1,2.73,1.094,4.444,4.444,0,0,1,1,3.1v.922H50.945a2.1,2.1,0,0,0,.66,1.328,2,2,0,0,0,1.395.5,2.437,2.437,0,0,0,2.039-.945l1.109,1.242A3.389,3.389,0,0,1,54.773-.246,4.511,4.511,0,0,1,52.852.156Zm-.258-6.945a1.411,1.411,0,0,0-1.09.455,2.357,2.357,0,0,0-.535,1.3h3.141v-.181A1.681,1.681,0,0,0,53.7-6.377,1.456,1.456,0,0,0,52.594-6.789Z" transform="translate(8.034 13.085)" fill="#12263f"/>
                <path id="Trazado_843143" data-name="Trazado 843143" d="M1.414,0V-6.8H.156V-8.453H1.414v-.391a3.17,3.17,0,0,1,.98-2.457,3.945,3.945,0,0,1,2.723-.863A9.031,9.031,0,0,1,7.68-11.7L7.352-9.836a10,10,0,0,0-1.187-.293,5.835,5.835,0,0,0-.906-.066Q3.68-10.2,3.68-8.8v.344H5.344V-6.8H3.68V0Zm7.32,0H6.469V-8.453H8.734ZM12.68-8.453l.07.977a2.951,2.951,0,0,1,2.43-1.133,2.453,2.453,0,0,1,2,.789,3.682,3.682,0,0,1,.672,2.359V0H15.594V-5.406a1.465,1.465,0,0,0-.312-1.043,1.4,1.4,0,0,0-1.039-.324,1.553,1.553,0,0,0-1.43.813V0H10.555V-8.453ZM24.461,0a2.507,2.507,0,0,1-.227-.758A2.732,2.732,0,0,1,22.1.156a3,3,0,0,1-2.059-.719,2.312,2.312,0,0,1-.816-1.812,2.389,2.389,0,0,1,1-2.062A4.915,4.915,0,0,1,23.1-5.164h1.039v-.484a1.393,1.393,0,0,0-.3-.937,1.183,1.183,0,0,0-.949-.352A1.345,1.345,0,0,0,22-6.664a.929.929,0,0,0-.324.75H19.414a2.268,2.268,0,0,1,.453-1.359,3,3,0,0,1,1.281-.98,4.669,4.669,0,0,1,1.859-.355,3.689,3.689,0,0,1,2.48.785,2.747,2.747,0,0,1,.918,2.207v3.664a4.041,4.041,0,0,0,.336,1.82V0ZM22.594-1.57a1.945,1.945,0,0,0,.922-.223,1.462,1.462,0,0,0,.625-.6V-3.844H23.3q-1.7,0-1.8,1.172l-.008.133a.9.9,0,0,0,.3.7A1.153,1.153,0,0,0,22.594-1.57Zm7.625-6.883.07.977a2.951,2.951,0,0,1,2.43-1.133,2.453,2.453,0,0,1,2,.789,3.682,3.682,0,0,1,.672,2.359V0H33.133V-5.406a1.465,1.465,0,0,0-.312-1.043,1.4,1.4,0,0,0-1.039-.324,1.553,1.553,0,0,0-1.43.813V0H28.094V-8.453Zm10.4,6.789a1.481,1.481,0,0,0,1.016-.344,1.2,1.2,0,0,0,.406-.914h2.117a2.9,2.9,0,0,1-.469,1.574A3.093,3.093,0,0,1,42.426-.238a3.949,3.949,0,0,1-1.77.395A3.67,3.67,0,0,1,37.8-1,4.56,4.56,0,0,1,36.75-4.18v-.148a4.508,4.508,0,0,1,1.039-3.117,3.627,3.627,0,0,1,2.852-1.164,3.555,3.555,0,0,1,2.543.9,3.2,3.2,0,0,1,.973,2.4H42.039a1.551,1.551,0,0,0-.406-1.072A1.354,1.354,0,0,0,40.6-6.789a1.36,1.36,0,0,0-1.191.575,3.333,3.333,0,0,0-.4,1.866v.235a3.375,3.375,0,0,0,.4,1.878A1.377,1.377,0,0,0,40.617-1.664ZM47.828,0H45.563V-8.453h2.266Zm-2.4-10.641a1.112,1.112,0,0,1,.34-.836A1.277,1.277,0,0,1,46.7-11.8a1.28,1.28,0,0,1,.922.328,1.105,1.105,0,0,1,.344.836,1.108,1.108,0,0,1-.348.844,1.283,1.283,0,0,1-.918.328,1.283,1.283,0,0,1-.918-.328A1.108,1.108,0,0,1,45.43-10.641ZM53.578.156A4.15,4.15,0,0,1,50.551-.984a4.054,4.054,0,0,1-1.168-3.039v-.219a5.106,5.106,0,0,1,.492-2.277A3.612,3.612,0,0,1,51.27-8.066a3.914,3.914,0,0,1,2.059-.543,3.508,3.508,0,0,1,2.73,1.094,4.444,4.444,0,0,1,1,3.1v.922H51.672a2.1,2.1,0,0,0,.66,1.328,2,2,0,0,0,1.395.5,2.437,2.437,0,0,0,2.039-.945l1.109,1.242A3.389,3.389,0,0,1,55.5-.246,4.511,4.511,0,0,1,53.578.156ZM53.32-6.789a1.411,1.411,0,0,0-1.09.455,2.357,2.357,0,0,0-.535,1.3h3.141v-.181a1.681,1.681,0,0,0-.406-1.165A1.456,1.456,0,0,0,53.32-6.789Zm9.766.453a6.134,6.134,0,0,0-.812-.062,1.654,1.654,0,0,0-1.68.867V0H58.336V-8.453h2.133l.063,1.008a2.092,2.092,0,0,1,1.883-1.164,2.366,2.366,0,0,1,.7.1ZM63.267-4.3a5.013,5.013,0,0,1,.484-2.242A3.546,3.546,0,0,1,65.146-8.07a4.069,4.069,0,0,1,2.113-.539,3.849,3.849,0,0,1,2.793,1.047,4.2,4.2,0,0,1,1.207,2.844l.016.578A4.418,4.418,0,0,1,70.189-1.02,3.775,3.775,0,0,1,67.275.156a3.793,3.793,0,0,1-2.918-1.172A4.5,4.5,0,0,1,63.267-4.2Zm2.258.16A3.16,3.16,0,0,0,65.978-2.3a1.5,1.5,0,0,0,1.3.638,1.5,1.5,0,0,0,1.281-.63,3.457,3.457,0,0,0,.461-2.015,3.128,3.128,0,0,0-.461-1.831,1.5,1.5,0,0,0-1.3-.649,1.474,1.474,0,0,0-1.281.646A3.516,3.516,0,0,0,65.525-4.144Z" transform="translate(-0.008 32.902)" fill="#12263f"/>
              </g>
            </g>
          </g>
          <path id="Trazado_843041" data-name="Trazado 843041" d="M673.586,33.945H554.047A6.744,6.744,0,0,1,547.3,27.2V6.743A6.744,6.744,0,0,1,554.047,0H673.586a6.743,6.743,0,0,1,6.744,6.743V27.2a6.744,6.744,0,0,1-6.744,6.744" transform="translate(38.013 0)" fill="#60cb28"/>
          <g id="Grupo_1083260" data-name="Grupo 1083260" transform="translate(599.87 9.506)" style="isolation: isolate">
            <g id="Grupo_1083259" data-name="Grupo 1083259">
              <g id="Grupo_1083258" data-name="Grupo 1083258" clip-path="url(#clip-path-5)">
                <path id="Trazado_843141" data-name="Trazado 843141" d="M9.945-3.789A4.025,4.025,0,0,1,8.59-.9,4.76,4.76,0,0,1,5.367.156,4.28,4.28,0,0,1,1.926-1.316,6.038,6.038,0,0,1,.672-5.359v-.7A6.819,6.819,0,0,1,1.25-8.945,4.332,4.332,0,0,1,2.9-10.863a4.629,4.629,0,0,1,2.5-.668A4.637,4.637,0,0,1,8.57-10.477,4.326,4.326,0,0,1,9.961-7.516H7.617A2.376,2.376,0,0,0,7-9.113a2.271,2.271,0,0,0-1.605-.5,1.991,1.991,0,0,0-1.754.84,4.707,4.707,0,0,0-.6,2.605V-5.3a5.038,5.038,0,0,0,.559,2.7,1.954,1.954,0,0,0,1.762.852,2.314,2.314,0,0,0,1.621-.5A2.241,2.241,0,0,0,7.6-3.789ZM16.4-.859A2.831,2.831,0,0,1,14.086.156a2.67,2.67,0,0,1-2.074-.781,3.335,3.335,0,0,1-.73-2.289V-8.453h2.258v5.467q0,1.322,1.2,1.322a1.63,1.63,0,0,0,1.578-.8V-8.453h2.266V0H16.461Zm6.008-7.594.07.945a2.971,2.971,0,0,1,2.43-1.1A2.255,2.255,0,0,1,27.148-7.32a2.9,2.9,0,0,1,2.539-1.289,2.521,2.521,0,0,1,2.047.8,3.681,3.681,0,0,1,.672,2.41V0H30.141V-5.391a1.61,1.61,0,0,0-.281-1.051,1.246,1.246,0,0,0-.992-.332,1.409,1.409,0,0,0-1.406.969L27.469,0H25.211V-5.383a1.59,1.59,0,0,0-.289-1.062,1.259,1.259,0,0,0-.984-.328,1.463,1.463,0,0,0-1.391.8V0H20.289V-8.453Zm19.344,4.3a5.07,5.07,0,0,1-.887,3.129A2.843,2.843,0,0,1,38.469.156,2.633,2.633,0,0,1,36.4-.734V3.25H34.141v-11.7h2.094l.078.828a2.654,2.654,0,0,1,2.141-.984,2.862,2.862,0,0,1,2.43,1.156,5.207,5.207,0,0,1,.867,3.188Zm-2.258-.164a3.327,3.327,0,0,0-.418-1.82,1.361,1.361,0,0,0-1.215-.641,1.479,1.479,0,0,0-1.461.813V-2.5a1.5,1.5,0,0,0,1.477.836Q39.492-1.664,39.492-4.312ZM45.531,0H43.266V-12h2.266Zm4.242,0H47.508V-8.453h2.266Zm-2.4-10.641a1.112,1.112,0,0,1,.34-.836,1.277,1.277,0,0,1,.926-.328,1.28,1.28,0,0,1,.922.328,1.105,1.105,0,0,1,.344.836,1.108,1.108,0,0,1-.348.844,1.283,1.283,0,0,1-.918.328,1.283,1.283,0,0,1-.918-.328A1.108,1.108,0,0,1,47.375-10.641ZM53.75-8.453l.07.945a2.971,2.971,0,0,1,2.43-1.1A2.255,2.255,0,0,1,58.492-7.32a2.9,2.9,0,0,1,2.539-1.289,2.521,2.521,0,0,1,2.047.8A3.681,3.681,0,0,1,63.75-5.4V0H61.484V-5.391A1.61,1.61,0,0,0,61.2-6.441a1.246,1.246,0,0,0-.992-.332A1.409,1.409,0,0,0,58.8-5.8L58.813,0H56.555V-5.383a1.59,1.59,0,0,0-.289-1.062,1.259,1.259,0,0,0-.984-.328,1.463,1.463,0,0,0-1.391.8V0H51.633V-8.453ZM67.867,0H65.6V-8.453h2.266Zm-2.4-10.641a1.112,1.112,0,0,1,.34-.836,1.277,1.277,0,0,1,.926-.328,1.28,1.28,0,0,1,.922.328,1.105,1.105,0,0,1,.344.836,1.108,1.108,0,0,1-.348.844,1.283,1.283,0,0,1-.918.328,1.283,1.283,0,0,1-.918-.328A1.108,1.108,0,0,1,65.469-10.641ZM73.617.156A4.15,4.15,0,0,1,70.59-.984a4.054,4.054,0,0,1-1.168-3.039v-.219a5.106,5.106,0,0,1,.492-2.277,3.612,3.612,0,0,1,1.395-1.547,3.914,3.914,0,0,1,2.059-.543A3.508,3.508,0,0,1,76.1-7.516a4.444,4.444,0,0,1,1,3.1v.922H71.711a2.1,2.1,0,0,0,.66,1.328,2,2,0,0,0,1.395.5A2.437,2.437,0,0,0,75.8-2.609l1.109,1.242A3.389,3.389,0,0,1,75.539-.246,4.511,4.511,0,0,1,73.617.156Zm-.258-6.945a1.411,1.411,0,0,0-1.09.455,2.357,2.357,0,0,0-.535,1.3h3.141v-.181a1.681,1.681,0,0,0-.406-1.165A1.456,1.456,0,0,0,73.359-6.789Zm7.094-1.664.07.977a2.951,2.951,0,0,1,2.43-1.133,2.453,2.453,0,0,1,2,.789,3.682,3.682,0,0,1,.672,2.359V0H83.367V-5.406a1.465,1.465,0,0,0-.312-1.043,1.4,1.4,0,0,0-1.039-.324,1.553,1.553,0,0,0-1.43.813V0H78.328V-8.453Zm9.586-2.078v2.078h1.445V-6.8H90.039v4.219a1.007,1.007,0,0,0,.18.672.9.9,0,0,0,.688.2,3.6,3.6,0,0,0,.664-.055V-.047a4.648,4.648,0,0,1-1.367.2,2.156,2.156,0,0,1-2.422-2.4V-6.8H86.547V-8.453h1.234v-2.078ZM91.932-4.3a5.013,5.013,0,0,1,.484-2.242A3.546,3.546,0,0,1,93.811-8.07a4.069,4.069,0,0,1,2.113-.539,3.849,3.849,0,0,1,2.793,1.047,4.2,4.2,0,0,1,1.207,2.844l.016.578A4.418,4.418,0,0,1,98.854-1.02,3.775,3.775,0,0,1,95.94.156a3.793,3.793,0,0,1-2.918-1.172A4.5,4.5,0,0,1,91.932-4.2Zm2.258.16A3.16,3.16,0,0,0,94.643-2.3a1.5,1.5,0,0,0,1.3.638,1.5,1.5,0,0,0,1.281-.63,3.457,3.457,0,0,0,.461-2.015,3.128,3.128,0,0,0-.461-1.831,1.5,1.5,0,0,0-1.3-.649,1.474,1.474,0,0,0-1.281.646A3.516,3.516,0,0,0,94.19-4.144Z" transform="translate(0 13.085)" fill="#12263f"/>
              </g>
            </g>
          </g>
          <g id="Grupo_1083263" data-name="Grupo 1083263" transform="translate(18.349 196.661)" style="isolation: isolate">
            <g id="Grupo_1083262" data-name="Grupo 1083262">
              <g id="Enmascarar_grupo_392" data-name="Enmascarar grupo 392" clip-path="url(#clip-path-6)">
                <path id="Trazado_843156" data-name="Trazado 843156" d="M7.438-2.344H3.328L2.547,0H.055L4.289-11.375H6.461L10.719,0H8.227Zm-3.477-1.9H6.8L5.375-8.5ZM15.148-1.664a1.481,1.481,0,0,0,1.016-.344,1.2,1.2,0,0,0,.406-.914h2.117a2.9,2.9,0,0,1-.469,1.574A3.093,3.093,0,0,1,16.957-.238a3.949,3.949,0,0,1-1.77.395A3.67,3.67,0,0,1,12.328-1,4.56,4.56,0,0,1,11.281-4.18v-.148A4.508,4.508,0,0,1,12.32-7.445a3.627,3.627,0,0,1,2.852-1.164,3.555,3.555,0,0,1,2.543.9,3.2,3.2,0,0,1,.973,2.4H16.57a1.551,1.551,0,0,0-.406-1.072,1.354,1.354,0,0,0-1.031-.412,1.36,1.36,0,0,0-1.191.575,3.333,3.333,0,0,0-.4,1.866v.235a3.375,3.375,0,0,0,.4,1.878A1.377,1.377,0,0,0,15.148-1.664Zm7.531-8.867v2.078h1.445V-6.8H22.68v4.219a1.007,1.007,0,0,0,.18.672.9.9,0,0,0,.688.2,3.6,3.6,0,0,0,.664-.055V-.047a4.648,4.648,0,0,1-1.367.2,2.156,2.156,0,0,1-2.422-2.4V-6.8H19.188V-8.453h1.234v-2.078ZM27.766,0H25.5V-8.453h2.266Zm-2.4-10.641a1.112,1.112,0,0,1,.34-.836,1.277,1.277,0,0,1,.926-.328,1.28,1.28,0,0,1,.922.328,1.105,1.105,0,0,1,.344.836,1.108,1.108,0,0,1-.348.844,1.283,1.283,0,0,1-.918.328,1.283,1.283,0,0,1-.918-.328A1.108,1.108,0,0,1,25.367-10.641Zm7.422,7.883,1.57-5.7h2.359L33.867,0H31.711L28.859-8.453h2.359ZM40.094,0H37.828V-8.453h2.266ZM37.7-10.641a1.112,1.112,0,0,1,.34-.836,1.277,1.277,0,0,1,.926-.328,1.28,1.28,0,0,1,.922.328,1.105,1.105,0,0,1,.344.836,1.108,1.108,0,0,1-.348.844,1.283,1.283,0,0,1-.918.328,1.283,1.283,0,0,1-.918-.328A1.108,1.108,0,0,1,37.7-10.641ZM41.6-4.289a5.094,5.094,0,0,1,.887-3.148,2.877,2.877,0,0,1,2.426-1.172,2.589,2.589,0,0,1,2.039.922V-12h2.266V0H47.18L47.07-.9A2.657,2.657,0,0,1,44.9.156,2.869,2.869,0,0,1,42.5-1.02,5.258,5.258,0,0,1,41.6-4.289Zm2.258.168A3.337,3.337,0,0,0,44.273-2.3a1.349,1.349,0,0,0,1.2.634,1.511,1.511,0,0,0,1.477-.884V-5.889a1.489,1.489,0,0,0-1.461-.884Q43.859-6.773,43.859-4.121ZM55.867,0a2.507,2.507,0,0,1-.227-.758,2.732,2.732,0,0,1-2.133.914,3,3,0,0,1-2.059-.719,2.312,2.312,0,0,1-.816-1.812,2.389,2.389,0,0,1,1-2.062,4.915,4.915,0,0,1,2.879-.727h1.039v-.484a1.393,1.393,0,0,0-.3-.937,1.183,1.183,0,0,0-.949-.352,1.345,1.345,0,0,0-.895.273.929.929,0,0,0-.324.75H50.82a2.268,2.268,0,0,1,.453-1.359,3,3,0,0,1,1.281-.98,4.669,4.669,0,0,1,1.859-.355,3.689,3.689,0,0,1,2.48.785,2.747,2.747,0,0,1,.918,2.207v3.664a4.041,4.041,0,0,0,.336,1.82V0ZM54-1.57a1.945,1.945,0,0,0,.922-.223,1.462,1.462,0,0,0,.625-.6V-3.844H54.7q-1.7,0-1.8,1.172l-.008.133a.9.9,0,0,0,.3.7A1.153,1.153,0,0,0,54-1.57Zm5.2-2.719a5.094,5.094,0,0,1,.887-3.148,2.877,2.877,0,0,1,2.426-1.172,2.589,2.589,0,0,1,2.039.922V-12h2.266V0H64.773l-.109-.9A2.657,2.657,0,0,1,62.492.156,2.869,2.869,0,0,1,60.1-1.02,5.258,5.258,0,0,1,59.2-4.289Zm2.258.168A3.337,3.337,0,0,0,61.867-2.3a1.349,1.349,0,0,0,1.2.634,1.511,1.511,0,0,0,1.477-.884V-5.889a1.489,1.489,0,0,0-1.461-.884Q61.453-6.773,61.453-4.121Zm11,4.277A4.15,4.15,0,0,1,69.426-.984a4.054,4.054,0,0,1-1.168-3.039v-.219A5.106,5.106,0,0,1,68.75-6.52a3.612,3.612,0,0,1,1.395-1.547A3.914,3.914,0,0,1,72.2-8.609a3.508,3.508,0,0,1,2.73,1.094,4.444,4.444,0,0,1,1,3.1v.922H70.547a2.1,2.1,0,0,0,.66,1.328,2,2,0,0,0,1.395.5,2.437,2.437,0,0,0,2.039-.945L75.75-1.367A3.389,3.389,0,0,1,74.375-.246,4.511,4.511,0,0,1,72.453.156ZM72.2-6.789a1.411,1.411,0,0,0-1.09.455,2.357,2.357,0,0,0-.535,1.3h3.141v-.181A1.681,1.681,0,0,0,73.3-6.377,1.456,1.456,0,0,0,72.2-6.789Zm9.594,4.453a.727.727,0,0,0-.41-.652,4.659,4.659,0,0,0-1.316-.426q-3.016-.633-3.016-2.562a2.323,2.323,0,0,1,.934-1.879,3.766,3.766,0,0,1,2.441-.754A4.053,4.053,0,0,1,83-7.852a2.388,2.388,0,0,1,.965,1.969H81.7a1.092,1.092,0,0,0-.312-.8A1.322,1.322,0,0,0,80.414-7a1.351,1.351,0,0,0-.883.258.814.814,0,0,0-.312.656.7.7,0,0,0,.355.605,3.657,3.657,0,0,0,1.2.4A9.8,9.8,0,0,1,82.2-4.7,2.336,2.336,0,0,1,83.984-2.43a2.2,2.2,0,0,1-.992,1.871A4.28,4.28,0,0,1,80.43.156a4.47,4.47,0,0,1-1.887-.379A3.166,3.166,0,0,1,77.25-1.262a2.414,2.414,0,0,1-.469-1.426h2.141a1.179,1.179,0,0,0,.445.922,1.766,1.766,0,0,0,1.109.32,1.635,1.635,0,0,0,.98-.246A.766.766,0,0,0,81.789-2.336ZM89.07-4.289a5.094,5.094,0,0,1,.887-3.148,2.877,2.877,0,0,1,2.426-1.172,2.589,2.589,0,0,1,2.039.922V-12h2.266V0H94.648l-.109-.9A2.657,2.657,0,0,1,92.367.156,2.869,2.869,0,0,1,89.973-1.02,5.258,5.258,0,0,1,89.07-4.289Zm2.258.168A3.337,3.337,0,0,0,91.742-2.3a1.349,1.349,0,0,0,1.2.634,1.511,1.511,0,0,0,1.477-.884V-5.889a1.489,1.489,0,0,0-1.461-.884Q91.328-6.773,91.328-4.121Zm11,4.277A4.15,4.15,0,0,1,99.3-.984a4.054,4.054,0,0,1-1.168-3.039v-.219a5.106,5.106,0,0,1,.492-2.277,3.612,3.612,0,0,1,1.395-1.547,3.914,3.914,0,0,1,2.059-.543,3.508,3.508,0,0,1,2.73,1.094,4.444,4.444,0,0,1,1,3.1v.922h-5.383a2.1,2.1,0,0,0,.66,1.328,2,2,0,0,0,1.395.5,2.437,2.437,0,0,0,2.039-.945l1.109,1.242A3.389,3.389,0,0,1,104.25-.246,4.511,4.511,0,0,1,102.328.156Zm-.258-6.945a1.411,1.411,0,0,0-1.09.455,2.357,2.357,0,0,0-.535,1.3h3.141v-.181a1.681,1.681,0,0,0-.406-1.165A1.456,1.456,0,0,0,102.07-6.789Zm12.516,5.125a1.481,1.481,0,0,0,1.016-.344,1.2,1.2,0,0,0,.406-.914h2.117a2.9,2.9,0,0,1-.469,1.574,3.093,3.093,0,0,1-1.262,1.109,3.949,3.949,0,0,1-1.77.395A3.67,3.67,0,0,1,111.766-1a4.56,4.56,0,0,1-1.047-3.184v-.148a4.508,4.508,0,0,1,1.039-3.117,3.627,3.627,0,0,1,2.852-1.164,3.555,3.555,0,0,1,2.543.9,3.2,3.2,0,0,1,.973,2.4h-2.117a1.551,1.551,0,0,0-.406-1.072,1.354,1.354,0,0,0-1.031-.412,1.36,1.36,0,0,0-1.191.575,3.333,3.333,0,0,0-.4,1.866v.235a3.375,3.375,0,0,0,.4,1.878A1.377,1.377,0,0,0,114.586-1.664ZM119.063-4.3a5.013,5.013,0,0,1,.484-2.242,3.546,3.546,0,0,1,1.395-1.523,4.069,4.069,0,0,1,2.113-.539,3.849,3.849,0,0,1,2.793,1.047,4.2,4.2,0,0,1,1.207,2.844l.016.578a4.418,4.418,0,0,1-1.086,3.121A3.775,3.775,0,0,1,123.07.156a3.793,3.793,0,0,1-2.918-1.172,4.5,4.5,0,0,1-1.09-3.187Zm2.258.16a3.16,3.16,0,0,0,.453,1.843,1.5,1.5,0,0,0,1.3.638,1.5,1.5,0,0,0,1.281-.63,3.457,3.457,0,0,0,.461-2.015,3.128,3.128,0,0,0-.461-1.831,1.5,1.5,0,0,0-1.3-.649,1.474,1.474,0,0,0-1.281.646A3.516,3.516,0,0,0,121.32-4.144Zm9.219-4.309.07.977a2.951,2.951,0,0,1,2.43-1.133,2.453,2.453,0,0,1,2,.789,3.682,3.682,0,0,1,.672,2.359V0h-2.258V-5.406a1.465,1.465,0,0,0-.312-1.043,1.4,1.4,0,0,0-1.039-.324,1.553,1.553,0,0,0-1.43.813V0h-2.258V-8.453Zm9.586-2.078v2.078h1.445V-6.8h-1.445v4.219a1.007,1.007,0,0,0,.18.672.9.9,0,0,0,.688.2,3.6,3.6,0,0,0,.664-.055V-.047a4.648,4.648,0,0,1-1.367.2,2.156,2.156,0,0,1-2.422-2.4V-6.8h-1.234V-8.453h1.234v-2.078Zm7.453,4.2a6.134,6.134,0,0,0-.812-.062,1.654,1.654,0,0,0-1.68.867V0h-2.258V-8.453h2.133l.063,1.008a2.092,2.092,0,0,1,1.883-1.164,2.366,2.366,0,0,1,.7.1Zm.181,2.031a5.013,5.013,0,0,1,.484-2.242,3.546,3.546,0,0,1,1.395-1.523,4.069,4.069,0,0,1,2.113-.539,3.849,3.849,0,0,1,2.793,1.047,4.2,4.2,0,0,1,1.207,2.844l.016.578a4.418,4.418,0,0,1-1.086,3.121A3.775,3.775,0,0,1,151.767.156a3.793,3.793,0,0,1-2.918-1.172,4.5,4.5,0,0,1-1.09-3.187Zm2.258.16A3.16,3.16,0,0,0,150.47-2.3a1.5,1.5,0,0,0,1.3.638,1.5,1.5,0,0,0,1.281-.63,3.457,3.457,0,0,0,.461-2.015,3.128,3.128,0,0,0-.461-1.831,1.5,1.5,0,0,0-1.3-.649,1.474,1.474,0,0,0-1.281.646A3.516,3.516,0,0,0,150.017-4.144ZM159.54,0h-2.266V-12h2.266Z" transform="translate(0 13.085)" fill="#12263f"/>
              </g>
            </g>
          </g>
          <g id="Grupo_1083266" data-name="Grupo 1083266" transform="translate(18.349 269.137)" style="isolation: isolate">
            <g id="Grupo_1083265" data-name="Grupo 1083265">
              <g id="Grupo_1083264" data-name="Grupo 1083264" clip-path="url(#clip-path-2)">
                <path id="Trazado_843157" data-name="Trazado 843157" d="M7.859-4.93h-4.5v3.047H8.641V0H1.016V-11.375H8.625v1.9H3.359v2.711h4.5Zm4.777,2.172,1.57-5.7h2.359L13.714,0H11.558L8.706-8.453h2.359ZM22.227,0A2.507,2.507,0,0,1,22-.758a2.732,2.732,0,0,1-2.133.914,3,3,0,0,1-2.059-.719,2.312,2.312,0,0,1-.816-1.812,2.389,2.389,0,0,1,1-2.062,4.915,4.915,0,0,1,2.879-.727h1.039v-.484a1.393,1.393,0,0,0-.3-.937,1.183,1.183,0,0,0-.949-.352,1.345,1.345,0,0,0-.895.273.929.929,0,0,0-.324.75H17.18a2.268,2.268,0,0,1,.453-1.359,3,3,0,0,1,1.281-.98,4.669,4.669,0,0,1,1.859-.355,3.689,3.689,0,0,1,2.48.785,2.747,2.747,0,0,1,.918,2.207v3.664a4.041,4.041,0,0,0,.336,1.82V0ZM20.36-1.57a1.945,1.945,0,0,0,.922-.223,1.462,1.462,0,0,0,.625-.6V-3.844h-.844q-1.7,0-1.8,1.172l-.008.133a.9.9,0,0,0,.3.7A1.153,1.153,0,0,0,20.36-1.57ZM28.29,0H26.024V-12H28.29Zm6.922-.859A2.831,2.831,0,0,1,32.9.156a2.67,2.67,0,0,1-2.074-.781,3.335,3.335,0,0,1-.73-2.289V-8.453h2.258v5.467q0,1.322,1.2,1.322a1.63,1.63,0,0,0,1.578-.8V-8.453H37.4V0H35.274ZM44,0a2.507,2.507,0,0,1-.227-.758,2.732,2.732,0,0,1-2.133.914,3,3,0,0,1-2.059-.719,2.312,2.312,0,0,1-.816-1.812,2.389,2.389,0,0,1,1-2.062,4.915,4.915,0,0,1,2.879-.727H43.68v-.484a1.393,1.393,0,0,0-.3-.937,1.183,1.183,0,0,0-.949-.352,1.345,1.345,0,0,0-.895.273.929.929,0,0,0-.324.75H38.954a2.268,2.268,0,0,1,.453-1.359,3,3,0,0,1,1.281-.98,4.669,4.669,0,0,1,1.859-.355,3.689,3.689,0,0,1,2.48.785,2.747,2.747,0,0,1,.918,2.207v3.664a4.041,4.041,0,0,0,.336,1.82V0ZM42.133-1.57a1.945,1.945,0,0,0,.922-.223,1.462,1.462,0,0,0,.625-.6V-3.844h-.844q-1.7,0-1.8,1.172l-.008.133a.9.9,0,0,0,.3.7A1.153,1.153,0,0,0,42.133-1.57ZM51.2-1.664a1.481,1.481,0,0,0,1.016-.344,1.2,1.2,0,0,0,.406-.914h2.117a2.9,2.9,0,0,1-.469,1.574A3.093,3.093,0,0,1,53-.238a3.949,3.949,0,0,1-1.77.395A3.67,3.67,0,0,1,48.376-1,4.56,4.56,0,0,1,47.329-4.18v-.148a4.508,4.508,0,0,1,1.039-3.117,3.627,3.627,0,0,1,2.852-1.164,3.555,3.555,0,0,1,2.543.9,3.2,3.2,0,0,1,.973,2.4H52.618a1.551,1.551,0,0,0-.406-1.072,1.354,1.354,0,0,0-1.031-.412,1.36,1.36,0,0,0-1.191.575,3.333,3.333,0,0,0-.4,1.866v.235a3.375,3.375,0,0,0,.4,1.878A1.377,1.377,0,0,0,51.2-1.664ZM58.407,0H56.141V-8.453h2.266Zm-2.4-10.641a1.112,1.112,0,0,1,.34-.836,1.277,1.277,0,0,1,.926-.328,1.28,1.28,0,0,1,.922.328,1.105,1.105,0,0,1,.344.836,1.108,1.108,0,0,1-.348.844,1.283,1.283,0,0,1-.918.328,1.283,1.283,0,0,1-.918-.328A1.108,1.108,0,0,1,56.008-10.641ZM59.915-4.3A5.013,5.013,0,0,1,60.4-6.547,3.546,3.546,0,0,1,61.794-8.07a4.069,4.069,0,0,1,2.113-.539A3.849,3.849,0,0,1,66.7-7.562a4.2,4.2,0,0,1,1.207,2.844l.016.578A4.418,4.418,0,0,1,66.837-1.02,3.775,3.775,0,0,1,63.923.156,3.793,3.793,0,0,1,61-1.016,4.5,4.5,0,0,1,59.915-4.2Zm2.258.16A3.16,3.16,0,0,0,62.626-2.3a1.5,1.5,0,0,0,1.3.638,1.5,1.5,0,0,0,1.281-.63,3.457,3.457,0,0,0,.461-2.015A3.128,3.128,0,0,0,65.2-6.14a1.5,1.5,0,0,0-1.3-.649,1.474,1.474,0,0,0-1.281.646A3.516,3.516,0,0,0,62.173-4.144ZM64.352-12h2.461L64.649-9.578H62.813Zm7.039,3.547.07.977a2.951,2.951,0,0,1,2.43-1.133,2.453,2.453,0,0,1,2,.789,3.682,3.682,0,0,1,.672,2.359V0H74.305V-5.406a1.465,1.465,0,0,0-.312-1.043,1.4,1.4,0,0,0-1.039-.324,1.553,1.553,0,0,0-1.43.813V0H69.266V-8.453ZM81.907-4.289a5.094,5.094,0,0,1,.887-3.148,2.877,2.877,0,0,1,2.426-1.172,2.589,2.589,0,0,1,2.039.922V-12h2.266V0H87.485l-.109-.9A2.657,2.657,0,0,1,85.2.156,2.869,2.869,0,0,1,82.809-1.02,5.258,5.258,0,0,1,81.907-4.289Zm2.258.168A3.337,3.337,0,0,0,84.579-2.3a1.349,1.349,0,0,0,1.2.634,1.511,1.511,0,0,0,1.477-.884V-5.889A1.489,1.489,0,0,0,85.8-6.773Q84.165-6.773,84.165-4.121Zm11,4.277A4.15,4.15,0,0,1,92.137-.984a4.054,4.054,0,0,1-1.168-3.039v-.219a5.106,5.106,0,0,1,.492-2.277,3.612,3.612,0,0,1,1.395-1.547,3.914,3.914,0,0,1,2.059-.543,3.508,3.508,0,0,1,2.73,1.094,4.444,4.444,0,0,1,1,3.1v.922H93.258a2.1,2.1,0,0,0,.66,1.328,2,2,0,0,0,1.395.5,2.437,2.437,0,0,0,2.039-.945l1.109,1.242A3.389,3.389,0,0,1,97.087-.246,4.511,4.511,0,0,1,95.165.156Zm-.258-6.945a1.411,1.411,0,0,0-1.09.455,2.357,2.357,0,0,0-.535,1.3h3.141v-.181a1.681,1.681,0,0,0-.406-1.165A1.456,1.456,0,0,0,94.907-6.789Zm13.75.453a6.134,6.134,0,0,0-.812-.062,1.654,1.654,0,0,0-1.68.867V0h-2.258V-8.453h2.133l.063,1.008a2.092,2.092,0,0,1,1.883-1.164,2.366,2.366,0,0,1,.7.1ZM112.126,0H109.86V-8.453h2.266Zm-2.4-10.641a1.112,1.112,0,0,1,.34-.836,1.277,1.277,0,0,1,.926-.328,1.28,1.28,0,0,1,.922.328,1.105,1.105,0,0,1,.344.836,1.108,1.108,0,0,1-.348.844,1.283,1.283,0,0,1-.918.328,1.283,1.283,0,0,1-.918-.328A1.108,1.108,0,0,1,109.727-10.641Zm8.148,10.8a4.15,4.15,0,0,1-3.027-1.141,4.054,4.054,0,0,1-1.168-3.039v-.219a5.106,5.106,0,0,1,.492-2.277,3.612,3.612,0,0,1,1.395-1.547,3.914,3.914,0,0,1,2.059-.543,3.508,3.508,0,0,1,2.73,1.094,4.444,4.444,0,0,1,1,3.1v.922h-5.383a2.1,2.1,0,0,0,.66,1.328,2,2,0,0,0,1.395.5,2.437,2.437,0,0,0,2.039-.945l1.109,1.242A3.389,3.389,0,0,1,119.8-.246,4.511,4.511,0,0,1,117.876.156Zm-.258-6.945a1.411,1.411,0,0,0-1.09.455,2.357,2.357,0,0,0-.535,1.3h3.141v-.181a1.681,1.681,0,0,0-.406-1.165A1.456,1.456,0,0,0,117.618-6.789Zm9.594,4.453a.727.727,0,0,0-.41-.652,4.659,4.659,0,0,0-1.316-.426q-3.016-.633-3.016-2.562a2.323,2.323,0,0,1,.934-1.879,3.766,3.766,0,0,1,2.441-.754,4.053,4.053,0,0,1,2.574.758,2.388,2.388,0,0,1,.965,1.969h-2.258a1.092,1.092,0,0,0-.312-.8A1.322,1.322,0,0,0,125.837-7a1.351,1.351,0,0,0-.883.258.814.814,0,0,0-.312.656A.7.7,0,0,0,125-5.48a3.657,3.657,0,0,0,1.2.4,9.8,9.8,0,0,1,1.422.379,2.336,2.336,0,0,1,1.789,2.273,2.205,2.205,0,0,1-.992,1.871,4.28,4.28,0,0,1-2.563.715,4.47,4.47,0,0,1-1.887-.379,3.166,3.166,0,0,1-1.293-1.039,2.414,2.414,0,0,1-.469-1.426h2.141a1.179,1.179,0,0,0,.445.922,1.766,1.766,0,0,0,1.109.32,1.635,1.635,0,0,0,.98-.246A.766.766,0,0,0,127.212-2.336Zm3.32-1.953a4.954,4.954,0,0,1,.926-3.133,3,3,0,0,1,2.5-1.187,2.631,2.631,0,0,1,2.164.953l.094-.8h2.047V-.281a3.613,3.613,0,0,1-.5,1.93,3.236,3.236,0,0,1-1.418,1.25,4.985,4.985,0,0,1-2.141.43,4.635,4.635,0,0,1-1.812-.371A3.217,3.217,0,0,1,131.048,2l1-1.375a2.645,2.645,0,0,0,2.047.945,1.936,1.936,0,0,0,1.4-.48,1.8,1.8,0,0,0,.5-1.363V-.727a2.612,2.612,0,0,1-2.055.883,2.992,2.992,0,0,1-2.465-1.191,4.953,4.953,0,0,1-.941-3.16Zm2.258.168a3.085,3.085,0,0,0,.461,1.8,1.466,1.466,0,0,0,1.266.653,1.568,1.568,0,0,0,1.477-.775V-6a1.564,1.564,0,0,0-1.461-.775,1.476,1.476,0,0,0-1.277.665A3.477,3.477,0,0,0,132.79-4.121Zm6.852-.184a5.013,5.013,0,0,1,.484-2.242A3.546,3.546,0,0,1,141.52-8.07a4.069,4.069,0,0,1,2.113-.539,3.849,3.849,0,0,1,2.793,1.047,4.2,4.2,0,0,1,1.207,2.844l.016.578a4.418,4.418,0,0,1-1.086,3.121A3.775,3.775,0,0,1,143.649.156a3.793,3.793,0,0,1-2.918-1.172,4.5,4.5,0,0,1-1.09-3.187Zm2.258.16a3.16,3.16,0,0,0,.453,1.843,1.5,1.5,0,0,0,1.3.638,1.5,1.5,0,0,0,1.281-.63,3.457,3.457,0,0,0,.461-2.015,3.128,3.128,0,0,0-.461-1.831,1.5,1.5,0,0,0-1.3-.649,1.474,1.474,0,0,0-1.281.646A3.516,3.516,0,0,0,141.9-4.144Zm11.719,1.808a.727.727,0,0,0-.41-.652,4.659,4.659,0,0,0-1.316-.426q-3.016-.633-3.016-2.562a2.323,2.323,0,0,1,.934-1.879,3.766,3.766,0,0,1,2.441-.754,4.053,4.053,0,0,1,2.574.758,2.388,2.388,0,0,1,.965,1.969h-2.258a1.092,1.092,0,0,0-.312-.8A1.322,1.322,0,0,0,152.243-7a1.351,1.351,0,0,0-.883.258.814.814,0,0,0-.312.656.7.7,0,0,0,.355.605,3.657,3.657,0,0,0,1.2.4,9.8,9.8,0,0,1,1.422.379,2.336,2.336,0,0,1,1.789,2.273,2.205,2.205,0,0,1-.992,1.871,4.28,4.28,0,0,1-2.562.715,4.47,4.47,0,0,1-1.887-.379,3.166,3.166,0,0,1-1.293-1.039,2.414,2.414,0,0,1-.469-1.426h2.141a1.179,1.179,0,0,0,.445.922,1.766,1.766,0,0,0,1.109.32,1.635,1.635,0,0,0,.98-.246A.766.766,0,0,0,153.618-2.336Z" transform="translate(0 13.085)" fill="#12263f"/>
              </g>
            </g>
          </g>
          <g id="Grupo_1083269" data-name="Grupo 1083269" transform="translate(18.348 119.404)" style="isolation: isolate">
            <g id="Grupo_1083268" data-name="Grupo 1083268">
              <g id="Grupo_1083267" data-name="Grupo 1083267" clip-path="url(#clip-path-8)">
                <path id="Trazado_843159" data-name="Trazado 843159" d="M3.508,0H1.164V-11.375H3.508Zm4.1-8.453.07.977a2.951,2.951,0,0,1,2.43-1.133,2.453,2.453,0,0,1,2,.789,3.682,3.682,0,0,1,.672,2.359V0H10.523V-5.406a1.465,1.465,0,0,0-.312-1.043,1.4,1.4,0,0,0-1.039-.324,1.553,1.553,0,0,0-1.43.813V0H5.484V-8.453ZM15.109,0V-6.8H13.852V-8.453h1.258v-.719a2.918,2.918,0,0,1,.816-2.207,3.162,3.162,0,0,1,2.285-.785,5.278,5.278,0,0,1,1.148.156l-.023,1.75a2.878,2.878,0,0,0-.687-.07q-1.273,0-1.273,1.2v.68h1.68V-6.8h-1.68V0Zm4.766-4.3a5.013,5.013,0,0,1,.484-2.242A3.546,3.546,0,0,1,21.754-8.07a4.069,4.069,0,0,1,2.113-.539A3.849,3.849,0,0,1,26.66-7.562a4.2,4.2,0,0,1,1.207,2.844l.016.578A4.418,4.418,0,0,1,26.8-1.02,3.775,3.775,0,0,1,23.883.156a3.793,3.793,0,0,1-2.918-1.172A4.5,4.5,0,0,1,19.875-4.2Zm2.258.16A3.16,3.16,0,0,0,22.586-2.3a1.5,1.5,0,0,0,1.3.638,1.5,1.5,0,0,0,1.281-.63,3.457,3.457,0,0,0,.461-2.015,3.128,3.128,0,0,0-.461-1.831,1.5,1.5,0,0,0-1.3-.649,1.474,1.474,0,0,0-1.281.646A3.516,3.516,0,0,0,22.133-4.144ZM34.023-6.336a6.134,6.134,0,0,0-.812-.062,1.654,1.654,0,0,0-1.68.867V0H29.273V-8.453h2.133l.063,1.008a2.092,2.092,0,0,1,1.883-1.164,2.366,2.366,0,0,1,.7.1Zm3.2-2.117.07.945a2.971,2.971,0,0,1,2.43-1.1A2.255,2.255,0,0,1,41.969-7.32a2.9,2.9,0,0,1,2.539-1.289,2.521,2.521,0,0,1,2.047.8,3.681,3.681,0,0,1,.672,2.41V0H44.961V-5.391a1.61,1.61,0,0,0-.281-1.051,1.246,1.246,0,0,0-.992-.332,1.409,1.409,0,0,0-1.406.969L42.289,0H40.031V-5.383a1.59,1.59,0,0,0-.289-1.062,1.259,1.259,0,0,0-.984-.328,1.463,1.463,0,0,0-1.391.8V0H35.109V-8.453ZM53.859,0a2.507,2.507,0,0,1-.227-.758A2.732,2.732,0,0,1,51.5.156a3,3,0,0,1-2.059-.719,2.312,2.312,0,0,1-.816-1.812,2.389,2.389,0,0,1,1-2.062A4.915,4.915,0,0,1,52.5-5.164h1.039v-.484a1.393,1.393,0,0,0-.3-.937,1.183,1.183,0,0,0-.949-.352,1.345,1.345,0,0,0-.895.273.929.929,0,0,0-.324.75H48.813a2.268,2.268,0,0,1,.453-1.359,3,3,0,0,1,1.281-.98,4.669,4.669,0,0,1,1.859-.355,3.689,3.689,0,0,1,2.48.785A2.747,2.747,0,0,1,55.8-5.617v3.664a4.041,4.041,0,0,0,.336,1.82V0ZM51.992-1.57a1.945,1.945,0,0,0,.922-.223,1.462,1.462,0,0,0,.625-.6V-3.844H52.7q-1.7,0-1.8,1.172l-.008.133a.9.9,0,0,0,.3.7A1.153,1.153,0,0,0,51.992-1.57Zm9.063-.094a1.481,1.481,0,0,0,1.016-.344,1.2,1.2,0,0,0,.406-.914h2.117a2.9,2.9,0,0,1-.469,1.574A3.093,3.093,0,0,1,62.863-.238a3.949,3.949,0,0,1-1.77.395A3.67,3.67,0,0,1,58.234-1,4.56,4.56,0,0,1,57.188-4.18v-.148a4.508,4.508,0,0,1,1.039-3.117,3.627,3.627,0,0,1,2.852-1.164,3.555,3.555,0,0,1,2.543.9,3.2,3.2,0,0,1,.973,2.4H62.477a1.551,1.551,0,0,0-.406-1.072,1.354,1.354,0,0,0-1.031-.412,1.36,1.36,0,0,0-1.191.575,3.333,3.333,0,0,0-.4,1.866v.235a3.375,3.375,0,0,0,.4,1.878A1.377,1.377,0,0,0,61.055-1.664ZM68.266,0H66V-8.453h2.266Zm-2.4-10.641a1.112,1.112,0,0,1,.34-.836,1.277,1.277,0,0,1,.926-.328,1.28,1.28,0,0,1,.922.328,1.105,1.105,0,0,1,.344.836,1.108,1.108,0,0,1-.348.844,1.283,1.283,0,0,1-.918.328,1.283,1.283,0,0,1-.918-.328A1.108,1.108,0,0,1,65.867-10.641ZM69.773-4.3a5.013,5.013,0,0,1,.484-2.242A3.546,3.546,0,0,1,71.652-8.07a4.069,4.069,0,0,1,2.113-.539,3.849,3.849,0,0,1,2.793,1.047,4.2,4.2,0,0,1,1.207,2.844l.016.578A4.418,4.418,0,0,1,76.7-1.02,3.775,3.775,0,0,1,73.781.156a3.793,3.793,0,0,1-2.918-1.172A4.5,4.5,0,0,1,69.773-4.2Zm2.258.16A3.16,3.16,0,0,0,72.484-2.3a1.5,1.5,0,0,0,1.3.638,1.5,1.5,0,0,0,1.281-.63,3.457,3.457,0,0,0,.461-2.015,3.128,3.128,0,0,0-.461-1.831,1.5,1.5,0,0,0-1.3-.649,1.474,1.474,0,0,0-1.281.646A3.516,3.516,0,0,0,72.031-4.144ZM74.211-12h2.461L74.508-9.578H72.672ZM81.25-8.453l.07.977a2.951,2.951,0,0,1,2.43-1.133,2.453,2.453,0,0,1,2,.789,3.682,3.682,0,0,1,.672,2.359V0H84.164V-5.406a1.465,1.465,0,0,0-.312-1.043,1.4,1.4,0,0,0-1.039-.324,1.553,1.553,0,0,0-1.43.813V0H79.125V-8.453ZM95.273-3.2l1.563-5.258h2.422l-3.4,9.766-.187.445a2.577,2.577,0,0,1-2.5,1.656,3.552,3.552,0,0,1-1-.148V1.555l.344.008a1.857,1.857,0,0,0,.957-.2,1.283,1.283,0,0,0,.5-.648l.266-.7L91.273-8.453H93.7Zm12.375,1.531a1.481,1.481,0,0,0,1.016-.344,1.2,1.2,0,0,0,.406-.914h2.117a2.9,2.9,0,0,1-.469,1.574,3.093,3.093,0,0,1-1.262,1.109,3.949,3.949,0,0,1-1.77.395A3.67,3.67,0,0,1,104.828-1a4.56,4.56,0,0,1-1.047-3.184v-.148a4.508,4.508,0,0,1,1.039-3.117,3.627,3.627,0,0,1,2.852-1.164,3.555,3.555,0,0,1,2.543.9,3.2,3.2,0,0,1,.973,2.4H109.07a1.551,1.551,0,0,0-.406-1.072,1.354,1.354,0,0,0-1.031-.412,1.36,1.36,0,0,0-1.191.575,3.333,3.333,0,0,0-.4,1.866v.235a3.375,3.375,0,0,0,.4,1.878A1.377,1.377,0,0,0,107.648-1.664ZM112.125-4.3a5.013,5.013,0,0,1,.484-2.242A3.546,3.546,0,0,1,114-8.07a4.069,4.069,0,0,1,2.113-.539,3.849,3.849,0,0,1,2.793,1.047,4.2,4.2,0,0,1,1.207,2.844l.016.578a4.418,4.418,0,0,1-1.086,3.121A3.775,3.775,0,0,1,116.133.156a3.793,3.793,0,0,1-2.918-1.172,4.5,4.5,0,0,1-1.09-3.187Zm2.258.16a3.16,3.16,0,0,0,.453,1.843,1.5,1.5,0,0,0,1.3.638,1.5,1.5,0,0,0,1.281-.63,3.457,3.457,0,0,0,.461-2.015,3.128,3.128,0,0,0-.461-1.831,1.5,1.5,0,0,0-1.3-.649,1.474,1.474,0,0,0-1.281.646A3.516,3.516,0,0,0,114.383-4.144Zm9.258-4.309.07.945a2.971,2.971,0,0,1,2.43-1.1,2.255,2.255,0,0,1,2.242,1.289,2.9,2.9,0,0,1,2.539-1.289,2.521,2.521,0,0,1,2.047.8,3.681,3.681,0,0,1,.672,2.41V0h-2.266V-5.391a1.61,1.61,0,0,0-.281-1.051,1.246,1.246,0,0,0-.992-.332A1.409,1.409,0,0,0,128.7-5.8L128.7,0h-2.258V-5.383a1.59,1.59,0,0,0-.289-1.062,1.259,1.259,0,0,0-.984-.328,1.463,1.463,0,0,0-1.391.8V0h-2.258V-8.453Zm16.8,7.594A2.831,2.831,0,0,1,138.125.156a2.67,2.67,0,0,1-2.074-.781,3.335,3.335,0,0,1-.73-2.289V-8.453h2.258v5.467q0,1.322,1.2,1.322a1.63,1.63,0,0,0,1.578-.8V-8.453h2.266V0H140.5Zm5.969-7.594.07.977a2.951,2.951,0,0,1,2.43-1.133,2.453,2.453,0,0,1,2,.789,3.682,3.682,0,0,1,.672,2.359V0H149.32V-5.406a1.465,1.465,0,0,0-.312-1.043,1.4,1.4,0,0,0-1.039-.324,1.553,1.553,0,0,0-1.43.813V0h-2.258V-8.453ZM155.672,0h-2.266V-8.453h2.266Zm-2.4-10.641a1.112,1.112,0,0,1,.34-.836,1.277,1.277,0,0,1,.926-.328,1.28,1.28,0,0,1,.922.328,1.105,1.105,0,0,1,.344.836,1.109,1.109,0,0,1-.348.844,1.283,1.283,0,0,1-.918.328,1.283,1.283,0,0,1-.918-.328A1.109,1.109,0,0,1,153.273-10.641Zm7.773,8.977a1.481,1.481,0,0,0,1.016-.344,1.2,1.2,0,0,0,.406-.914h2.117a2.9,2.9,0,0,1-.469,1.574,3.093,3.093,0,0,1-1.262,1.109,3.949,3.949,0,0,1-1.77.395A3.67,3.67,0,0,1,158.227-1,4.56,4.56,0,0,1,157.18-4.18v-.148a4.508,4.508,0,0,1,1.039-3.117,3.627,3.627,0,0,1,2.852-1.164,3.555,3.555,0,0,1,2.543.9,3.2,3.2,0,0,1,.973,2.4h-2.117a1.551,1.551,0,0,0-.406-1.072,1.355,1.355,0,0,0-1.031-.412,1.36,1.36,0,0,0-1.191.575,3.333,3.333,0,0,0-.4,1.866v.235a3.375,3.375,0,0,0,.4,1.878A1.377,1.377,0,0,0,161.047-1.664ZM170.773,0a2.507,2.507,0,0,1-.227-.758,2.732,2.732,0,0,1-2.133.914,3,3,0,0,1-2.059-.719,2.312,2.312,0,0,1-.816-1.812,2.389,2.389,0,0,1,1-2.062,4.915,4.915,0,0,1,2.879-.727h1.039v-.484a1.393,1.393,0,0,0-.3-.937,1.183,1.183,0,0,0-.949-.352,1.345,1.345,0,0,0-.895.273.929.929,0,0,0-.324.75h-2.258a2.268,2.268,0,0,1,.453-1.359,3,3,0,0,1,1.281-.98,4.669,4.669,0,0,1,1.859-.355,3.689,3.689,0,0,1,2.48.785,2.747,2.747,0,0,1,.918,2.207v3.664a4.041,4.041,0,0,0,.336,1.82V0Zm-1.867-1.57a1.945,1.945,0,0,0,.922-.223,1.462,1.462,0,0,0,.625-.6V-3.844h-.844q-1.7,0-1.8,1.172l-.008.133a.9.9,0,0,0,.3.7A1.153,1.153,0,0,0,168.906-1.57Zm9.063-.094a1.481,1.481,0,0,0,1.016-.344,1.2,1.2,0,0,0,.406-.914h2.117a2.9,2.9,0,0,1-.469,1.574,3.093,3.093,0,0,1-1.262,1.109,3.949,3.949,0,0,1-1.77.395A3.67,3.67,0,0,1,175.148-1,4.56,4.56,0,0,1,174.1-4.18v-.148a4.508,4.508,0,0,1,1.039-3.117,3.627,3.627,0,0,1,2.852-1.164,3.555,3.555,0,0,1,2.543.9,3.2,3.2,0,0,1,.973,2.4h-2.117a1.551,1.551,0,0,0-.406-1.072,1.355,1.355,0,0,0-1.031-.412,1.36,1.36,0,0,0-1.191.575,3.333,3.333,0,0,0-.4,1.866v.235a3.375,3.375,0,0,0,.4,1.878A1.377,1.377,0,0,0,177.969-1.664ZM185.18,0h-2.266V-8.453h2.266Zm-2.4-10.641a1.112,1.112,0,0,1,.34-.836,1.277,1.277,0,0,1,.926-.328,1.28,1.28,0,0,1,.922.328,1.105,1.105,0,0,1,.344.836,1.109,1.109,0,0,1-.348.844,1.283,1.283,0,0,1-.918.328,1.283,1.283,0,0,1-.918-.328A1.109,1.109,0,0,1,182.781-10.641ZM186.688-4.3a5.013,5.013,0,0,1,.484-2.242,3.546,3.546,0,0,1,1.395-1.523,4.069,4.069,0,0,1,2.113-.539,3.849,3.849,0,0,1,2.793,1.047,4.2,4.2,0,0,1,1.207,2.844l.016.578a4.418,4.418,0,0,1-1.086,3.121A3.775,3.775,0,0,1,190.7.156a3.793,3.793,0,0,1-2.918-1.172,4.5,4.5,0,0,1-1.09-3.187Zm2.258.16A3.16,3.16,0,0,0,189.4-2.3a1.5,1.5,0,0,0,1.3.638,1.5,1.5,0,0,0,1.281-.63,3.457,3.457,0,0,0,.461-2.015,3.128,3.128,0,0,0-.461-1.831,1.5,1.5,0,0,0-1.3-.649,1.474,1.474,0,0,0-1.281.646A3.516,3.516,0,0,0,188.945-4.144ZM191.125-12h2.461l-2.164,2.422h-1.836Zm7.039,3.547.07.977a2.951,2.951,0,0,1,2.43-1.133,2.453,2.453,0,0,1,2,.789,3.682,3.682,0,0,1,.672,2.359V0h-2.258V-5.406a1.465,1.465,0,0,0-.312-1.043,1.4,1.4,0,0,0-1.039-.324,1.553,1.553,0,0,0-1.43.813V0h-2.258V-8.453Z" transform="translate(0 13.085)" fill="#fff"/>
              </g>
            </g>
          </g>
          <g id="Grupo_1083272" data-name="Grupo 1083272" transform="translate(18.348 340.503)" style="isolation: isolate">
            <g id="Grupo_1083271" data-name="Grupo 1083271">
              <g id="Grupo_1083270" data-name="Grupo 1083270" clip-path="url(#clip-path-9)">
                <path id="Trazado_843158" data-name="Trazado 843158" d="M7.438-2.344H3.328L2.547,0H.055L4.289-11.375H6.461L10.719,0H8.227Zm-3.477-1.9H6.8L5.375-8.5Zm9.046-4.211.07.945a2.971,2.971,0,0,1,2.43-1.1A2.255,2.255,0,0,1,17.749-7.32a2.9,2.9,0,0,1,2.539-1.289,2.521,2.521,0,0,1,2.047.8,3.681,3.681,0,0,1,.672,2.41V0H20.741V-5.391a1.61,1.61,0,0,0-.281-1.051,1.246,1.246,0,0,0-.992-.332,1.409,1.409,0,0,0-1.406.969L18.069,0H15.812V-5.383a1.59,1.59,0,0,0-.289-1.062,1.259,1.259,0,0,0-.984-.328,1.463,1.463,0,0,0-1.391.8V0H10.89V-8.453Zm19.352,4.3A5.119,5.119,0,0,1,31.491-.98,2.872,2.872,0,0,1,29.069.156,2.639,2.639,0,0,1,26.874-.9l-.1.9H24.741V-12H27v4.3a2.571,2.571,0,0,1,2.055-.914A2.9,2.9,0,0,1,31.48-7.473a5.126,5.126,0,0,1,.879,3.2ZM30.1-4.312a3.363,3.363,0,0,0-.406-1.871,1.374,1.374,0,0,0-1.211-.59A1.489,1.489,0,0,0,27-5.891v3.336a1.509,1.509,0,0,0,1.5.891,1.394,1.394,0,0,0,1.438-1.078A5.562,5.562,0,0,0,30.1-4.312ZM36.132,0H33.866V-8.453h2.266Zm-2.4-10.641a1.112,1.112,0,0,1,.34-.836A1.277,1.277,0,0,1,35-11.8a1.28,1.28,0,0,1,.922.328,1.105,1.105,0,0,1,.344.836,1.108,1.108,0,0,1-.348.844A1.283,1.283,0,0,1,35-9.469a1.283,1.283,0,0,1-.918-.328A1.108,1.108,0,0,1,33.734-10.641ZM41.882.156A4.15,4.15,0,0,1,38.855-.984a4.054,4.054,0,0,1-1.168-3.039v-.219a5.106,5.106,0,0,1,.492-2.277,3.612,3.612,0,0,1,1.395-1.547,3.914,3.914,0,0,1,2.059-.543,3.508,3.508,0,0,1,2.73,1.094,4.444,4.444,0,0,1,1,3.1v.922H39.976a2.1,2.1,0,0,0,.66,1.328,2,2,0,0,0,1.395.5,2.437,2.437,0,0,0,2.039-.945l1.109,1.242A3.389,3.389,0,0,1,43.8-.246,4.511,4.511,0,0,1,41.882.156Zm-.258-6.945a1.411,1.411,0,0,0-1.09.455A2.357,2.357,0,0,0,40-5.031H43.14v-.181a1.681,1.681,0,0,0-.406-1.165A1.456,1.456,0,0,0,41.624-6.789Zm7.094-1.664.07.977a2.951,2.951,0,0,1,2.43-1.133,2.453,2.453,0,0,1,2,.789,3.682,3.682,0,0,1,.672,2.359V0H51.632V-5.406a1.465,1.465,0,0,0-.312-1.043,1.4,1.4,0,0,0-1.039-.324,1.553,1.553,0,0,0-1.43.813V0H46.593V-8.453ZM58.3-10.531v2.078h1.445V-6.8H58.3v4.219a1.007,1.007,0,0,0,.18.672.9.9,0,0,0,.688.2,3.6,3.6,0,0,0,.664-.055V-.047a4.648,4.648,0,0,1-1.367.2,2.156,2.156,0,0,1-2.422-2.4V-6.8H54.812V-8.453h1.234v-2.078ZM64.9.156A4.15,4.15,0,0,1,61.87-.984,4.054,4.054,0,0,1,60.7-4.023v-.219a5.106,5.106,0,0,1,.492-2.277,3.612,3.612,0,0,1,1.395-1.547,3.914,3.914,0,0,1,2.059-.543,3.508,3.508,0,0,1,2.73,1.094,4.444,4.444,0,0,1,1,3.1v.922H62.991a2.1,2.1,0,0,0,.66,1.328,2,2,0,0,0,1.395.5,2.437,2.437,0,0,0,2.039-.945l1.109,1.242A3.389,3.389,0,0,1,66.82-.246,4.511,4.511,0,0,1,64.9.156ZM64.64-6.789a1.411,1.411,0,0,0-1.09.455,2.357,2.357,0,0,0-.535,1.3h3.141v-.181a1.681,1.681,0,0,0-.406-1.165A1.456,1.456,0,0,0,64.64-6.789Zm8.648,2.5a5.094,5.094,0,0,1,.887-3.148A2.877,2.877,0,0,1,76.6-8.609a2.589,2.589,0,0,1,2.039.922V-12h2.266V0H78.866l-.109-.9A2.657,2.657,0,0,1,76.585.156,2.869,2.869,0,0,1,74.191-1.02,5.258,5.258,0,0,1,73.288-4.289Zm2.258.168A3.337,3.337,0,0,0,75.96-2.3a1.349,1.349,0,0,0,1.2.634,1.511,1.511,0,0,0,1.477-.884V-5.889a1.489,1.489,0,0,0-1.461-.884Q75.546-6.773,75.546-4.121Zm11,4.277A4.15,4.15,0,0,1,83.519-.984a4.054,4.054,0,0,1-1.168-3.039v-.219a5.106,5.106,0,0,1,.492-2.277,3.612,3.612,0,0,1,1.395-1.547A3.914,3.914,0,0,1,86.3-8.609a3.508,3.508,0,0,1,2.73,1.094,4.444,4.444,0,0,1,1,3.1v.922H84.64a2.1,2.1,0,0,0,.66,1.328,2,2,0,0,0,1.395.5,2.437,2.437,0,0,0,2.039-.945l1.109,1.242A3.389,3.389,0,0,1,88.468-.246,4.511,4.511,0,0,1,86.546.156Zm-.258-6.945a1.411,1.411,0,0,0-1.09.455,2.357,2.357,0,0,0-.535,1.3H87.8v-.181A1.681,1.681,0,0,0,87.4-6.377,1.456,1.456,0,0,0,86.288-6.789ZM98.8-1.664a1.481,1.481,0,0,0,1.016-.344,1.2,1.2,0,0,0,.406-.914h2.117a2.9,2.9,0,0,1-.469,1.574,3.093,3.093,0,0,1-1.262,1.109,3.949,3.949,0,0,1-1.77.395A3.67,3.67,0,0,1,95.984-1,4.56,4.56,0,0,1,94.937-4.18v-.148a4.508,4.508,0,0,1,1.039-3.117,3.627,3.627,0,0,1,2.852-1.164,3.555,3.555,0,0,1,2.543.9,3.2,3.2,0,0,1,.973,2.4h-2.117a1.551,1.551,0,0,0-.406-1.072,1.354,1.354,0,0,0-1.031-.412,1.36,1.36,0,0,0-1.191.575,3.333,3.333,0,0,0-.4,1.866v.235a3.375,3.375,0,0,0,.4,1.878A1.377,1.377,0,0,0,98.8-1.664ZM103.28-4.3a5.013,5.013,0,0,1,.484-2.242,3.546,3.546,0,0,1,1.395-1.523,4.069,4.069,0,0,1,2.113-.539,3.849,3.849,0,0,1,2.793,1.047,4.2,4.2,0,0,1,1.207,2.844l.016.578A4.418,4.418,0,0,1,110.2-1.02,3.775,3.775,0,0,1,107.288.156a3.793,3.793,0,0,1-2.918-1.172A4.5,4.5,0,0,1,103.28-4.2Zm2.258.16a3.16,3.16,0,0,0,.453,1.843,1.5,1.5,0,0,0,1.3.638,1.5,1.5,0,0,0,1.281-.63,3.457,3.457,0,0,0,.461-2.015,3.128,3.128,0,0,0-.461-1.831,1.5,1.5,0,0,0-1.3-.649,1.474,1.474,0,0,0-1.281.646A3.516,3.516,0,0,0,105.538-4.144Zm9.219-4.309.07.977a2.951,2.951,0,0,1,2.43-1.133,2.453,2.453,0,0,1,2,.789,3.682,3.682,0,0,1,.672,2.359V0h-2.258V-5.406a1.465,1.465,0,0,0-.312-1.043,1.4,1.4,0,0,0-1.039-.324,1.553,1.553,0,0,0-1.43.813V0h-2.258V-8.453Zm9.586-2.078v2.078h1.445V-6.8h-1.445v4.219a1.007,1.007,0,0,0,.18.672.9.9,0,0,0,.688.2,3.6,3.6,0,0,0,.664-.055V-.047a4.648,4.648,0,0,1-1.367.2,2.156,2.156,0,0,1-2.422-2.4V-6.8h-1.234V-8.453h1.234v-2.078Zm7.453,4.2a6.134,6.134,0,0,0-.812-.062,1.654,1.654,0,0,0-1.68.867V0h-2.258V-8.453h2.133l.063,1.008a2.092,2.092,0,0,1,1.883-1.164,2.366,2.366,0,0,1,.7.1Zm.181,2.031a5.013,5.013,0,0,1,.484-2.242,3.546,3.546,0,0,1,1.395-1.523,4.069,4.069,0,0,1,2.113-.539,3.849,3.849,0,0,1,2.793,1.047,4.2,4.2,0,0,1,1.207,2.844l.016.578A4.418,4.418,0,0,1,138.9-1.02,3.775,3.775,0,0,1,135.985.156a3.793,3.793,0,0,1-2.918-1.172,4.5,4.5,0,0,1-1.09-3.187Zm2.258.16a3.16,3.16,0,0,0,.453,1.843,1.5,1.5,0,0,0,1.3.638,1.5,1.5,0,0,0,1.281-.63,3.457,3.457,0,0,0,.461-2.015,3.128,3.128,0,0,0-.461-1.831,1.5,1.5,0,0,0-1.3-.649,1.474,1.474,0,0,0-1.281.646A3.516,3.516,0,0,0,134.235-4.144ZM143.758,0h-2.266V-12h2.266Z" transform="translate(0 13.085)" fill="#fff"/>
              </g>
            </g>
          </g>
          <path id="Trazado_843042" data-name="Trazado 843042" d="M794.22,146.418h-115.7a6.829,6.829,0,0,1-6.83-6.828V104.624a6.829,6.829,0,0,1,6.83-6.83h115.7a6.829,6.829,0,0,1,6.828,6.83v34.966a6.829,6.829,0,0,1-6.828,6.828" transform="translate(46.653 6.792)" fill="#304c8e"/>
          <g id="Grupo_1083275" data-name="Grupo 1083275" transform="translate(732.105 119.404)" style="isolation: isolate">
            <g id="Grupo_1083274" data-name="Grupo 1083274">
              <g id="Enmascarar_grupo_391" data-name="Enmascarar grupo 391" clip-path="url(#clip-path-10)">
                <path id="Trazado_843146" data-name="Trazado 843146" d="M7.438-2.344H3.328L2.547,0H.055L4.289-11.375H6.461L10.719,0H8.227Zm-3.477-1.9H6.8L5.375-8.5ZM15.148-1.664a1.481,1.481,0,0,0,1.016-.344,1.2,1.2,0,0,0,.406-.914h2.117a2.9,2.9,0,0,1-.469,1.574A3.093,3.093,0,0,1,16.957-.238a3.949,3.949,0,0,1-1.77.395A3.67,3.67,0,0,1,12.328-1,4.56,4.56,0,0,1,11.281-4.18v-.148A4.508,4.508,0,0,1,12.32-7.445a3.627,3.627,0,0,1,2.852-1.164,3.555,3.555,0,0,1,2.543.9,3.2,3.2,0,0,1,.973,2.4H16.57a1.551,1.551,0,0,0-.406-1.072,1.354,1.354,0,0,0-1.031-.412,1.36,1.36,0,0,0-1.191.575,3.333,3.333,0,0,0-.4,1.866v.235a3.375,3.375,0,0,0,.4,1.878A1.377,1.377,0,0,0,15.148-1.664Zm7.531-8.867v2.078h1.445V-6.8H22.68v4.219a1.007,1.007,0,0,0,.18.672.9.9,0,0,0,.688.2,3.6,3.6,0,0,0,.664-.055V-.047a4.648,4.648,0,0,1-1.367.2,2.156,2.156,0,0,1-2.422-2.4V-6.8H19.188V-8.453h1.234v-2.078ZM27.766,0H25.5V-8.453h2.266Zm-2.4-10.641a1.112,1.112,0,0,1,.34-.836,1.277,1.277,0,0,1,.926-.328,1.28,1.28,0,0,1,.922.328,1.105,1.105,0,0,1,.344.836,1.108,1.108,0,0,1-.348.844,1.283,1.283,0,0,1-.918.328,1.283,1.283,0,0,1-.918-.328A1.108,1.108,0,0,1,25.367-10.641Zm7.422,7.883,1.57-5.7h2.359L33.867,0H31.711L28.859-8.453h2.359ZM40.094,0H37.828V-8.453h2.266ZM37.7-10.641a1.112,1.112,0,0,1,.34-.836,1.277,1.277,0,0,1,.926-.328,1.28,1.28,0,0,1,.922.328,1.105,1.105,0,0,1,.344.836,1.108,1.108,0,0,1-.348.844,1.283,1.283,0,0,1-.918.328,1.283,1.283,0,0,1-.918-.328A1.108,1.108,0,0,1,37.7-10.641ZM41.6-4.289a5.094,5.094,0,0,1,.887-3.148,2.877,2.877,0,0,1,2.426-1.172,2.589,2.589,0,0,1,2.039.922V-12h2.266V0H47.18L47.07-.9A2.657,2.657,0,0,1,44.9.156,2.869,2.869,0,0,1,42.5-1.02,5.258,5.258,0,0,1,41.6-4.289Zm2.258.168A3.337,3.337,0,0,0,44.273-2.3a1.349,1.349,0,0,0,1.2.634,1.511,1.511,0,0,0,1.477-.884V-5.889a1.489,1.489,0,0,0-1.461-.884Q43.859-6.773,43.859-4.121ZM55.867,0a2.507,2.507,0,0,1-.227-.758,2.732,2.732,0,0,1-2.133.914,3,3,0,0,1-2.059-.719,2.312,2.312,0,0,1-.816-1.812,2.389,2.389,0,0,1,1-2.062,4.915,4.915,0,0,1,2.879-.727h1.039v-.484a1.393,1.393,0,0,0-.3-.937,1.183,1.183,0,0,0-.949-.352,1.345,1.345,0,0,0-.895.273.929.929,0,0,0-.324.75H50.82a2.268,2.268,0,0,1,.453-1.359,3,3,0,0,1,1.281-.98,4.669,4.669,0,0,1,1.859-.355,3.689,3.689,0,0,1,2.48.785,2.747,2.747,0,0,1,.918,2.207v3.664a4.041,4.041,0,0,0,.336,1.82V0ZM54-1.57a1.945,1.945,0,0,0,.922-.223,1.462,1.462,0,0,0,.625-.6V-3.844H54.7q-1.7,0-1.8,1.172l-.008.133a.9.9,0,0,0,.3.7A1.153,1.153,0,0,0,54-1.57Zm5.2-2.719a5.094,5.094,0,0,1,.887-3.148,2.877,2.877,0,0,1,2.426-1.172,2.589,2.589,0,0,1,2.039.922V-12h2.266V0H64.773l-.109-.9A2.657,2.657,0,0,1,62.492.156,2.869,2.869,0,0,1,60.1-1.02,5.258,5.258,0,0,1,59.2-4.289Zm2.258.168A3.337,3.337,0,0,0,61.867-2.3a1.349,1.349,0,0,0,1.2.634,1.511,1.511,0,0,0,1.477-.884V-5.889a1.489,1.489,0,0,0-1.461-.884Q61.453-6.773,61.453-4.121ZM77.938,0H75.68V-8.7l-2.7.836V-9.7L77.7-11.391h.242Z" transform="translate(9.189 13.085)" fill="#fff"/>
              </g>
            </g>
          </g>
          <path id="Trazado_843043" data-name="Trazado 843043" d="M792.933,217.19h-115.7a6.829,6.829,0,0,1-6.83-6.828V175.4a6.829,6.829,0,0,1,6.83-6.83h115.7a6.829,6.829,0,0,1,6.828,6.83v34.966a6.829,6.829,0,0,1-6.828,6.828" transform="translate(46.563 11.708)" fill="#dee9f0"/>
        </g>
      </g>
      <path id="Trazado_843147" data-name="Trazado 843147" d="M7.438-2.344H3.328L2.547,0H.055L4.289-11.375H6.461L10.719,0H8.227Zm-3.477-1.9H6.8L5.375-8.5ZM15.148-1.664a1.481,1.481,0,0,0,1.016-.344,1.2,1.2,0,0,0,.406-.914h2.117a2.9,2.9,0,0,1-.469,1.574A3.093,3.093,0,0,1,16.957-.238a3.949,3.949,0,0,1-1.77.395A3.67,3.67,0,0,1,12.328-1,4.56,4.56,0,0,1,11.281-4.18v-.148A4.508,4.508,0,0,1,12.32-7.445a3.627,3.627,0,0,1,2.852-1.164,3.555,3.555,0,0,1,2.543.9,3.2,3.2,0,0,1,.973,2.4H16.57a1.551,1.551,0,0,0-.406-1.072,1.354,1.354,0,0,0-1.031-.412,1.36,1.36,0,0,0-1.191.575,3.333,3.333,0,0,0-.4,1.866v.235a3.375,3.375,0,0,0,.4,1.878A1.377,1.377,0,0,0,15.148-1.664Zm7.531-8.867v2.078h1.445V-6.8H22.68v4.219a1.007,1.007,0,0,0,.18.672.9.9,0,0,0,.688.2,3.6,3.6,0,0,0,.664-.055V-.047a4.648,4.648,0,0,1-1.367.2,2.156,2.156,0,0,1-2.422-2.4V-6.8H19.188V-8.453h1.234v-2.078ZM27.766,0H25.5V-8.453h2.266Zm-2.4-10.641a1.112,1.112,0,0,1,.34-.836,1.277,1.277,0,0,1,.926-.328,1.28,1.28,0,0,1,.922.328,1.105,1.105,0,0,1,.344.836,1.108,1.108,0,0,1-.348.844,1.283,1.283,0,0,1-.918.328,1.283,1.283,0,0,1-.918-.328A1.108,1.108,0,0,1,25.367-10.641Zm7.422,7.883,1.57-5.7h2.359L33.867,0H31.711L28.859-8.453h2.359ZM40.094,0H37.828V-8.453h2.266ZM37.7-10.641a1.112,1.112,0,0,1,.34-.836,1.277,1.277,0,0,1,.926-.328,1.28,1.28,0,0,1,.922.328,1.105,1.105,0,0,1,.344.836,1.108,1.108,0,0,1-.348.844,1.283,1.283,0,0,1-.918.328,1.283,1.283,0,0,1-.918-.328A1.108,1.108,0,0,1,37.7-10.641ZM41.6-4.289a5.094,5.094,0,0,1,.887-3.148,2.877,2.877,0,0,1,2.426-1.172,2.589,2.589,0,0,1,2.039.922V-12h2.266V0H47.18L47.07-.9A2.657,2.657,0,0,1,44.9.156,2.869,2.869,0,0,1,42.5-1.02,5.258,5.258,0,0,1,41.6-4.289Zm2.258.168A3.337,3.337,0,0,0,44.273-2.3a1.349,1.349,0,0,0,1.2.634,1.511,1.511,0,0,0,1.477-.884V-5.889a1.489,1.489,0,0,0-1.461-.884Q43.859-6.773,43.859-4.121ZM55.867,0a2.507,2.507,0,0,1-.227-.758,2.732,2.732,0,0,1-2.133.914,3,3,0,0,1-2.059-.719,2.312,2.312,0,0,1-.816-1.812,2.389,2.389,0,0,1,1-2.062,4.915,4.915,0,0,1,2.879-.727h1.039v-.484a1.393,1.393,0,0,0-.3-.937,1.183,1.183,0,0,0-.949-.352,1.345,1.345,0,0,0-.895.273.929.929,0,0,0-.324.75H50.82a2.268,2.268,0,0,1,.453-1.359,3,3,0,0,1,1.281-.98,4.669,4.669,0,0,1,1.859-.355,3.689,3.689,0,0,1,2.48.785,2.747,2.747,0,0,1,.918,2.207v3.664a4.041,4.041,0,0,0,.336,1.82V0ZM54-1.57a1.945,1.945,0,0,0,.922-.223,1.462,1.462,0,0,0,.625-.6V-3.844H54.7q-1.7,0-1.8,1.172l-.008.133a.9.9,0,0,0,.3.7A1.153,1.153,0,0,0,54-1.57Zm5.2-2.719a5.094,5.094,0,0,1,.887-3.148,2.877,2.877,0,0,1,2.426-1.172,2.589,2.589,0,0,1,2.039.922V-12h2.266V0H64.773l-.109-.9A2.657,2.657,0,0,1,62.492.156,2.869,2.869,0,0,1,60.1-1.02,5.258,5.258,0,0,1,59.2-4.289Zm2.258.168A3.337,3.337,0,0,0,61.867-2.3a1.349,1.349,0,0,0,1.2.634,1.511,1.511,0,0,0,1.477-.884V-5.889a1.489,1.489,0,0,0-1.461-.884Q61.453-6.773,61.453-4.121ZM80.25,0h-7.8V-1.547l3.68-3.922a9.078,9.078,0,0,0,1.121-1.445,2.322,2.322,0,0,0,.363-1.172,1.738,1.738,0,0,0-.383-1.191,1.382,1.382,0,0,0-1.094-.434,1.49,1.49,0,0,0-1.207.527A2.089,2.089,0,0,0,74.492-7.8H72.227a3.729,3.729,0,0,1,.5-1.9,3.5,3.5,0,0,1,1.4-1.348,4.262,4.262,0,0,1,2.055-.488,4.036,4.036,0,0,1,2.73.844A2.985,2.985,0,0,1,79.883-8.3a3.825,3.825,0,0,1-.437,1.719,9.551,9.551,0,0,1-1.5,2.039L75.359-1.82H80.25Z" transform="translate(739.918 208.177)" fill="#12263f"/>
      <g id="Grupo_1083279" data-name="Grupo 1083279">
        <g id="Grupo_1083278" data-name="Grupo 1083278" clip-path="url(#clip-path-11)">
          <path id="Trazado_843044" data-name="Trazado 843044" d="M794.22,286.246h-115.7a6.829,6.829,0,0,1-6.83-6.828V244.452a6.829,6.829,0,0,1,6.83-6.83h115.7a6.829,6.829,0,0,1,6.828,6.83v34.966a6.829,6.829,0,0,1-6.828,6.828" transform="translate(46.653 16.504)" fill="#ffe126"/>
        </g>
      </g>
      <path id="Trazado_843153" data-name="Trazado 843153" d="M9.625-11.375v7.492A3.836,3.836,0,0,1,8.457-.93,4.5,4.5,0,0,1,5.266.156,4.553,4.553,0,0,1,2.1-.9a3.77,3.77,0,0,1-1.2-2.9v-7.578H3.25v7.508a2.167,2.167,0,0,0,.535,1.629,2.054,2.054,0,0,0,1.48.512q1.977,0,2.008-2.078v-7.57Zm3.852,2.922.07.977a2.951,2.951,0,0,1,2.43-1.133,2.453,2.453,0,0,1,2,.789,3.682,3.682,0,0,1,.672,2.359V0H16.391V-5.406a1.465,1.465,0,0,0-.312-1.043,1.4,1.4,0,0,0-1.039-.324,1.553,1.553,0,0,0-1.43.813V0H11.352V-8.453ZM22.742,0H20.477V-8.453h2.266Zm-2.4-10.641a1.112,1.112,0,0,1,.34-.836,1.277,1.277,0,0,1,.926-.328,1.28,1.28,0,0,1,.922.328,1.105,1.105,0,0,1,.344.836,1.108,1.108,0,0,1-.348.844,1.283,1.283,0,0,1-.918.328,1.283,1.283,0,0,1-.918-.328A1.108,1.108,0,0,1,20.344-10.641ZM24.25-4.289a5.094,5.094,0,0,1,.887-3.148,2.877,2.877,0,0,1,2.426-1.172,2.589,2.589,0,0,1,2.039.922V-12h2.266V0H29.828l-.109-.9A2.657,2.657,0,0,1,27.547.156,2.869,2.869,0,0,1,25.152-1.02,5.258,5.258,0,0,1,24.25-4.289Zm2.258.168A3.337,3.337,0,0,0,26.922-2.3a1.349,1.349,0,0,0,1.2.634A1.511,1.511,0,0,0,29.6-2.548V-5.889a1.489,1.489,0,0,0-1.461-.884Q26.508-6.773,26.508-4.121ZM38.516,0a2.507,2.507,0,0,1-.227-.758,2.732,2.732,0,0,1-2.133.914A3,3,0,0,1,34.1-.562a2.312,2.312,0,0,1-.816-1.812,2.389,2.389,0,0,1,1-2.062,4.915,4.915,0,0,1,2.879-.727H38.2v-.484a1.393,1.393,0,0,0-.3-.937,1.183,1.183,0,0,0-.949-.352,1.345,1.345,0,0,0-.895.273.929.929,0,0,0-.324.75H33.469a2.268,2.268,0,0,1,.453-1.359,3,3,0,0,1,1.281-.98,4.669,4.669,0,0,1,1.859-.355,3.689,3.689,0,0,1,2.48.785,2.747,2.747,0,0,1,.918,2.207v3.664A4.041,4.041,0,0,0,40.8-.133V0ZM36.648-1.57a1.945,1.945,0,0,0,.922-.223,1.462,1.462,0,0,0,.625-.6V-3.844h-.844q-1.7,0-1.8,1.172l-.008.133a.9.9,0,0,0,.3.7A1.153,1.153,0,0,0,36.648-1.57Zm5.2-2.719a5.094,5.094,0,0,1,.887-3.148,2.877,2.877,0,0,1,2.426-1.172,2.589,2.589,0,0,1,2.039.922V-12h2.266V0H47.422l-.109-.9A2.657,2.657,0,0,1,45.141.156,2.869,2.869,0,0,1,42.746-1.02,5.258,5.258,0,0,1,41.844-4.289Zm2.258.168A3.337,3.337,0,0,0,44.516-2.3a1.349,1.349,0,0,0,1.2.634A1.511,1.511,0,0,0,47.2-2.548V-5.889a1.489,1.489,0,0,0-1.461-.884Q44.1-6.773,44.1-4.121ZM61.766-2.344H57.656L56.875,0H54.383l4.234-11.375h2.172L65.047,0H62.555Zm-3.477-1.9h2.844L59.7-8.5Z" transform="translate(749.43 282.029)" fill="#12263f"/>
      <g id="Grupo_1083281" data-name="Grupo 1083281">
        <g id="Grupo_1083280" data-name="Grupo 1083280" clip-path="url(#clip-path-11)">
          <path id="Trazado_843045" data-name="Trazado 843045" d="M794.22,353.158h-115.7a6.829,6.829,0,0,1-6.83-6.828V311.364a6.829,6.829,0,0,1,6.83-6.83h115.7a6.829,6.829,0,0,1,6.828,6.83v34.966a6.829,6.829,0,0,1-6.828,6.828" transform="translate(46.653 21.152)" fill="#7e10b8"/>
        </g>
      </g>
      <path id="Trazado_843154" data-name="Trazado 843154" d="M9.625-11.375v7.492A3.836,3.836,0,0,1,8.457-.93,4.5,4.5,0,0,1,5.266.156,4.553,4.553,0,0,1,2.1-.9a3.77,3.77,0,0,1-1.2-2.9v-7.578H3.25v7.508a2.167,2.167,0,0,0,.535,1.629,2.054,2.054,0,0,0,1.48.512q1.977,0,2.008-2.078v-7.57Zm3.852,2.922.07.977a2.951,2.951,0,0,1,2.43-1.133,2.453,2.453,0,0,1,2,.789,3.682,3.682,0,0,1,.672,2.359V0H16.391V-5.406a1.465,1.465,0,0,0-.312-1.043,1.4,1.4,0,0,0-1.039-.324,1.553,1.553,0,0,0-1.43.813V0H11.352V-8.453ZM22.742,0H20.477V-8.453h2.266Zm-2.4-10.641a1.112,1.112,0,0,1,.34-.836,1.277,1.277,0,0,1,.926-.328,1.28,1.28,0,0,1,.922.328,1.105,1.105,0,0,1,.344.836,1.108,1.108,0,0,1-.348.844,1.283,1.283,0,0,1-.918.328,1.283,1.283,0,0,1-.918-.328A1.108,1.108,0,0,1,20.344-10.641ZM24.25-4.289a5.094,5.094,0,0,1,.887-3.148,2.877,2.877,0,0,1,2.426-1.172,2.589,2.589,0,0,1,2.039.922V-12h2.266V0H29.828l-.109-.9A2.657,2.657,0,0,1,27.547.156,2.869,2.869,0,0,1,25.152-1.02,5.258,5.258,0,0,1,24.25-4.289Zm2.258.168A3.337,3.337,0,0,0,26.922-2.3a1.349,1.349,0,0,0,1.2.634A1.511,1.511,0,0,0,29.6-2.548V-5.889a1.489,1.489,0,0,0-1.461-.884Q26.508-6.773,26.508-4.121ZM38.516,0a2.507,2.507,0,0,1-.227-.758,2.732,2.732,0,0,1-2.133.914A3,3,0,0,1,34.1-.562a2.312,2.312,0,0,1-.816-1.812,2.389,2.389,0,0,1,1-2.062,4.915,4.915,0,0,1,2.879-.727H38.2v-.484a1.393,1.393,0,0,0-.3-.937,1.183,1.183,0,0,0-.949-.352,1.345,1.345,0,0,0-.895.273.929.929,0,0,0-.324.75H33.469a2.268,2.268,0,0,1,.453-1.359,3,3,0,0,1,1.281-.98,4.669,4.669,0,0,1,1.859-.355,3.689,3.689,0,0,1,2.48.785,2.747,2.747,0,0,1,.918,2.207v3.664A4.041,4.041,0,0,0,40.8-.133V0ZM36.648-1.57a1.945,1.945,0,0,0,.922-.223,1.462,1.462,0,0,0,.625-.6V-3.844h-.844q-1.7,0-1.8,1.172l-.008.133a.9.9,0,0,0,.3.7A1.153,1.153,0,0,0,36.648-1.57Zm5.2-2.719a5.094,5.094,0,0,1,.887-3.148,2.877,2.877,0,0,1,2.426-1.172,2.589,2.589,0,0,1,2.039.922V-12h2.266V0H47.422l-.109-.9A2.657,2.657,0,0,1,45.141.156,2.869,2.869,0,0,1,42.746-1.02,5.258,5.258,0,0,1,41.844-4.289Zm2.258.168A3.337,3.337,0,0,0,44.516-2.3a1.349,1.349,0,0,0,1.2.634A1.511,1.511,0,0,0,47.2-2.548V-5.889a1.489,1.489,0,0,0-1.461-.884Q44.1-6.773,44.1-4.121ZM55.344,0V-11.375h3.984a5.232,5.232,0,0,1,3.141.793,2.712,2.712,0,0,1,1.07,2.324,2.57,2.57,0,0,1-.43,1.473,2.482,2.482,0,0,1-1.2.934,2.4,2.4,0,0,1,1.379.883,2.61,2.61,0,0,1,.5,1.625A3,3,0,0,1,62.75-.859,4.713,4.713,0,0,1,59.766,0Zm2.344-4.953v3.07H59.7a1.938,1.938,0,0,0,1.293-.395,1.353,1.353,0,0,0,.465-1.09,1.428,1.428,0,0,0-1.617-1.586Zm0-1.656h1.734Q61.2-6.641,61.2-8.023a1.307,1.307,0,0,0-.449-1.113,2.363,2.363,0,0,0-1.418-.34H57.688Z" transform="translate(749.716 353.588)" fill="#fff"/>
      <g id="Grupo_1083283" data-name="Grupo 1083283">
        <g id="Grupo_1083282" data-name="Grupo 1083282" clip-path="url(#clip-path-11)">
          <line id="Línea_143" data-name="Línea 143" x1="0.459" transform="translate(329.814 154.127)" fill="none" stroke="#60cb28" stroke-linecap="round" stroke-linejoin="round" stroke-width="1.716"/>
          <line id="Línea_144" data-name="Línea 144" x1="39.79" transform="translate(284.834 154.127)" fill="none" stroke="#60cb28" stroke-linecap="round" stroke-linejoin="round" stroke-width="1.716" stroke-dasharray="0.809 4.853"/>
          <path id="Trazado_843046" data-name="Trazado 843046" d="M263.939,144.147h-.459v-.459" transform="translate(18.3 9.98)" fill="none" stroke="#60cb28" stroke-linecap="round" stroke-linejoin="round" stroke-width="1.716"/>
          <line id="Línea_145" data-name="Línea 145" y1="91.469" transform="translate(281.781 56.819)" fill="none" stroke="#60cb28" stroke-linecap="round" stroke-linejoin="round" stroke-width="1.716" stroke-dasharray="0.839 5.031"/>
          <path id="Trazado_843047" data-name="Trazado 843047" d="M263.51,50.642v-.459h-.459" transform="translate(18.27 3.486)" fill="none" stroke="#60cb28" stroke-linecap="round" stroke-linejoin="round" stroke-width="1.716"/>
          <line id="Línea_146" data-name="Línea 146" x1="110.401" transform="translate(165.535 53.669)" fill="none" stroke="#60cb28" stroke-linecap="round" stroke-linejoin="round" stroke-width="1.716" stroke-dasharray="0.839 5.036"/>
          <line id="Línea_147" data-name="Línea 147" x1="0.459" transform="translate(162.384 53.669)" fill="none" stroke="#60cb28" stroke-linecap="round" stroke-linejoin="round" stroke-width="1.716"/>
          <path id="Trazado_843048" data-name="Trazado 843048" d="M314.007,187.728H251.753v-67.2H234.191" transform="translate(16.266 8.371)" fill="none" stroke="#304c8e" stroke-linecap="round" stroke-linejoin="round" stroke-width="1.716" stroke-dasharray="0.858 5.147"/>
          <path id="Trazado_843049" data-name="Trazado 843049" d="M316.688,219.65H251.807V192.586H195.588" transform="translate(13.585 13.376)" fill="none" stroke="#dee9f0" stroke-linecap="round" stroke-linejoin="round" stroke-width="1.716" stroke-dasharray="0.858 5.147"/>
          <line id="Línea_148" data-name="Línea 148" x1="122.935" transform="translate(209.173 278.439)" fill="none" stroke="#ffe126" stroke-linecap="round" stroke-linejoin="round" stroke-width="1.716" stroke-dasharray="0.858 5.147"/>
          <path id="Trazado_843050" data-name="Trazado 843050" d="M318.821,293.382h-57.8v36.239H191.3" transform="translate(13.287 20.377)" fill="none" stroke="#7e10b8" stroke-linecap="round" stroke-linejoin="round" stroke-width="1.716" stroke-dasharray="0.858 5.147"/>
          <path id="Trazado_843051" data-name="Trazado 843051" d="M463.091,65.248,381.463,128.9h-72.64L390.45,65.248Z" transform="translate(21.45 4.532)" fill="#55b71c"/>
          <path id="Trazado_843052" data-name="Trazado 843052" d="M463.091,65.248,381.463,128.9h-72.64L390.45,65.248Z" transform="translate(21.45 4.532)" fill="none" stroke="#317505" stroke-miterlimit="10" stroke-width="0.858"/>
          <path id="Trazado_843053" data-name="Trazado 843053" d="M529.613,65.248,447.986,128.9h-72.64l81.626-63.654Z" transform="translate(26.07 4.532)" fill="#e1f5d6"/>
          <path id="Trazado_843054" data-name="Trazado 843054" d="M529.613,65.248,447.986,128.9h-72.64l81.626-63.654Z" transform="translate(26.07 4.532)" fill="none" stroke="#2a5e08" stroke-miterlimit="10" stroke-width="0.858"/>
          <path id="Trazado_843055" data-name="Trazado 843055" d="M584.951,65.248,513.808,128.9H441.168l81.627-63.654Z" transform="translate(30.642 4.532)" fill="#55b71c"/>
          <path id="Trazado_843056" data-name="Trazado 843056" d="M584.951,65.248,513.808,128.9H441.168l81.627-63.654Z" transform="translate(30.642 4.532)" fill="none" stroke="#317505" stroke-miterlimit="10" stroke-width="0.858"/>
          <path id="Trazado_843057" data-name="Trazado 843057" d="M328.43,108.662H539.8V302.311" transform="translate(22.811 7.547)" fill="none" stroke="#fff" stroke-miterlimit="10" stroke-width="0.7"/>
          <path id="Trazado_843058" data-name="Trazado 843058" d="M346.986,95.008H552.991V285.6" transform="translate(24.1 6.599)" fill="none" stroke="#fff" stroke-miterlimit="10" stroke-width="0.7"/>
          <path id="Trazado_843059" data-name="Trazado 843059" d="M365.751,80.194h206.2V266.4" transform="translate(25.403 5.57)" fill="none" stroke="#fdfde3" stroke-miterlimit="10" stroke-width="0.7"/>
          <path id="Trazado_843060" data-name="Trazado 843060" d="M422.089,67.575V44.121H355.576V31.74" transform="translate(24.697 2.205)" fill="none" stroke="#60cb28" stroke-linecap="round" stroke-linejoin="round" stroke-width="1.716" stroke-dasharray="0.858 5.147"/>
          <line id="Línea_149" data-name="Línea 149" y1="16.11" transform="translate(513.758 53.669)" fill="none" stroke="#60cb28" stroke-linecap="round" stroke-linejoin="round" stroke-width="1.716" stroke-dasharray="0.858 5.147"/>
          <path id="Trazado_843061" data-name="Trazado 843061" d="M547.3,67.575V44.121h66.514V31.74" transform="translate(38.013 2.205)" fill="none" stroke="#60cb28" stroke-linecap="round" stroke-linejoin="round" stroke-width="1.716" stroke-dasharray="0.858 5.147"/>
          <line id="Línea_150" data-name="Línea 150" y2="199.081" transform="translate(544.033 133.027)" fill="none" stroke="#fff" stroke-miterlimit="10" stroke-width="0.7"/>
          <path id="Trazado_843062" data-name="Trazado 843062" d="M572.777,91.229a4.587,4.587,0,1,1-4.587-4.587,4.587,4.587,0,0,1,4.587,4.587" transform="translate(39.145 6.018)" fill="#fff"/>
          <path id="Trazado_843063" data-name="Trazado 843063" d="M572.777,226.769a4.587,4.587,0,1,1-4.587-4.587,4.587,4.587,0,0,1,4.587,4.587" transform="translate(39.145 15.432)" fill="#fff"/>
          <line id="Línea_151" data-name="Línea 151" y2="140.366" transform="translate(607.335 101.834)" fill="none" stroke="#fff" stroke-linecap="round" stroke-linejoin="round" stroke-width="1.716" stroke-dasharray="0.858 5.147"/>
          <path id="Trazado_843064" data-name="Trazado 843064" d="M554.763,110.1a4.587,4.587,0,1,1-4.587-4.587,4.587,4.587,0,0,1,4.587,4.587" transform="translate(37.894 7.329)" fill="#fff"/>
          <path id="Trazado_843065" data-name="Trazado 843065" d="M554.763,245.641a4.587,4.587,0,1,1-4.587-4.587,4.587,4.587,0,0,1,4.587,4.587" transform="translate(37.894 16.743)" fill="#fff"/>
          <line id="Línea_152" data-name="Línea 152" y2="140.366" transform="translate(588.069 122.017)" fill="none" stroke="#fff" stroke-linecap="round" stroke-linejoin="round" stroke-width="1.716" stroke-dasharray="0.858 5.147"/>
          <path id="Trazado_843066" data-name="Trazado 843066" d="M537.606,128.117a4.587,4.587,0,1,1-4.587-4.587,4.587,4.587,0,0,1,4.587,4.587" transform="translate(36.703 8.58)" fill="#fff"/>
          <path id="Trazado_843067" data-name="Trazado 843067" d="M537.606,263.656a4.587,4.587,0,1,1-4.587-4.587,4.587,4.587,0,0,1,4.587,4.587" transform="translate(36.703 17.994)" fill="#fff"/>
          <line id="Línea_153" data-name="Línea 153" y2="140.366" transform="translate(569.721 141.283)" fill="none" stroke="#fff" stroke-linecap="round" stroke-linejoin="round" stroke-width="1.716" stroke-dasharray="0.858 5.147"/>
          <path id="Trazado_843068" data-name="Trazado 843068" d="M523.023,140.984a4.587,4.587,0,1,1-4.587-4.587,4.587,4.587,0,0,1,4.587,4.587" transform="translate(35.69 9.474)" fill="#fff"/>
          <path id="Trazado_843069" data-name="Trazado 843069" d="M523.023,276.524a4.587,4.587,0,1,1-4.587-4.587,4.587,4.587,0,0,1,4.587,4.587" transform="translate(35.69 18.888)" fill="#fff"/>
          <line id="Línea_154" data-name="Línea 154" y2="140.366" transform="translate(554.125 155.045)" fill="none" stroke="#fff" stroke-linecap="round" stroke-linejoin="round" stroke-width="1.716" stroke-dasharray="0.858 5.147"/>
          <path id="Trazado_843070" data-name="Trazado 843070" d="M567.892,165.018h66.476V116.705H678.9" transform="translate(39.443 8.106)" fill="none" stroke="#304c8e" stroke-linecap="round" stroke-linejoin="round" stroke-width="1.716" stroke-dasharray="0.858 5.147"/>
          <line id="Línea_155" data-name="Línea 155" x2="130.275" transform="translate(588.069 202.961)" fill="none" stroke="#dee9f0" stroke-linecap="round" stroke-linejoin="round" stroke-width="1.716" stroke-dasharray="0.858 5.147"/>
          <path id="Trazado_843071" data-name="Trazado 843071" d="M532.721,226.471H637.663v34.862h43.681" transform="translate(37 15.73)" fill="none" stroke="#e8c410" stroke-linecap="round" stroke-linejoin="round" stroke-width="1.716" stroke-dasharray="0.858 5.147"/>
          <path id="Trazado_843072" data-name="Trazado 843072" d="M519.594,249.632h96.148V332.66h66.513" transform="translate(36.089 17.338)" fill="none" stroke="#59068e" stroke-linecap="round" stroke-linejoin="round" stroke-width="1.716" stroke-dasharray="0.858 5.147"/>
        </g>
      </g>
    </g>
  </g>
</svg>
